<?xml version="1.0" encoding="utf-8"?>
<!-- Generator: Adobe Illustrator 24.1.0, SVG Export Plug-In . SVG Version: 6.00 Build 0)  -->
<svg version="1.1" id="Layer_1" xmlns="http://www.w3.org/2000/svg" xmlns:xlink="http://www.w3.org/1999/xlink" x="0px" y="0px"
	 viewBox="0 0 226.5 185.9" style="enable-background:new 0 0 226.5 185.9;" xml:space="preserve">
<g>
	<path class="st0" d="M220.6,76c11.3,20.8,5.8,95.8-11.5,109.2c-6.8,5.3,4.7-22-8.6-41.4c-5.5-8.1-32.8-13.9-39.3-16.4
		c-6.9-2.7-47.1,0.6-87.3-25.6c-9.2-6-18.6-1.3-26.5,2.4c-35.5,16.6-30.4,95.1-35.8,77.2c-22.9-77.5-6.1-109.3,1.8-121.9
		C32.2,29.4,83.9,10.9,94.8,4.4C130-17,203.8,45.2,220.6,76z"/>
	<path class="st0" d="M200,127.2c-8.5-2.6-31.2-4.3-46-3.4c-13.8,0.8-30.8,5.2-41.6,5.9c-18.4-0.6-26.3-5.1-40.1-5.9
		c-14.7-0.9-37.4,0.9-46,3.4c0,0-0.1,1.6-0.1,4.3c0,4.2-0.1,10.9,0.3,18.1c0.1,1.5,0.1,3,0.2,4.6c0,0,4.3,1.7,6,6.6
		c1.7,4.9,2.3,20.8,26.7,21.2c25.6,0.4,39.3-1.1,43.4-28.2c0,0,1.6-10.6,9.7-9.7c7.1,0,8.7,9.8,8.7,9.8c4.2,28.7,19.3,29,44.9,28.1
		c23.1-0.8,26.2-16,27.9-20.9s5.5-6.9,5.5-6.9C200.4,140.7,200,127.2,200,127.2z M97.4,153.1c-3.1,13.7-8.1,22.6-23.4,23.2
		c-15.5,0.6-33.6,2.4-37.4-21.9c-1-6.3-4-22.3,11.9-23.4c16-1.1,34.9,1.5,40,2.9C93.7,135.3,101.1,136.7,97.4,153.1z M190.1,153.6
		c-1.5,20.1-17.1,22.3-26.8,22.8s-33.4,1.1-36.4-20.5c-2.5-18.2,4.2-21.2,6.6-21.8c12.5-3.3,36.2-4.2,44-3.1
		C185.2,132,191.8,130.7,190.1,153.6z"/>
</g>
</svg>
