<?xml version="1.0" encoding="utf-8"?>
<!-- Generator: Adobe Illustrator 24.1.0, SVG Export Plug-In . SVG Version: 6.00 Build 0)  -->
<svg version="1.1" id="Layer_1" xmlns="http://www.w3.org/2000/svg" xmlns:xlink="http://www.w3.org/1999/xlink" x="0px" y="0px"
	 viewBox="0 0 1770.7 345" style="enable-background:new 0 0 1770.7 345;" xml:space="preserve">
<style type="text/css">
	.st0{fill:#FFFFFF;}
</style>
<g transform="translate(0.000000,800.000000) scale(0.100000,-0.100000)">
	<path class="st0" d="M1963.2,7978c-28-45-1957-3389-1963-3404c-4-12,65-14,508-14l514,1l731,1267c402,697,735,1266,740,1266
		c5-1,338-571,739-1268l730-1265l513-1c281,0,512,3,512,8c0,4-445,777-988,1717l-987,1710l-517,3l-517,2L1963.2,7978z"/>
	<path class="st0" d="M5235.2,7984c-93-17-218-61-307-110c-496-272-687-881-436-1389c133-267,373-463,673-548c76-21,89-22,1107-27
		c1157-6,1077-1,1169-81c161-142,126-393-69-497l-50-27l-1082-3l-1081-2l211-371l212-370l1000,3l1000,3l90,28
		c190,59,332,142,461,271c95,95,150,175,210,300c74,157,89,232,89,441c0,210-16,285-91,444c-136,289-370,483-694,574
		c-74,21-92,22-1105,27l-1030,5l-53,24c-73,33-147,116-168,189c-42,145,30,299,171,364l50,23l1213,3l1212,2v370v370l-1312-1
		C5553.2,7998,5298.2,7996,5235.2,7984z"/>
	<path class="st0" d="M8377.2,7630v-370h675h675V5905V4550h455h455v1355v1355h675h675v370v370h-1805h-1805V7630z"/>
	<path class="st0" d="M12437.2,6275V4550h455h455l2,1353l3,1352h865c976,0,917,5,1008-79c88-81,121-197,87-311c-13-48-28-70-78-120
		c-102-100-54-95-868-95h-699v-370v-370l416-2l416-3l387-670l386-670l517-3l517-2l-143,247c-78,137-255,444-394,683
		c-138,239-254,442-257,451c-5,13,11,23,71,47c171,70,359,227,467,389c303,456,194,1082-245,1413c-98,74-232,140-358,177l-95,28
		l-1457,3l-1458,2V6275z"/>
	<path class="st0" d="M16789.2,6278l3-1723l458-3l457-2v1725v1725h-460h-460L16789.2,6278z"/>
	<path class="st0" d="M2437.2,5844c-133-23-207-60-291-144c-76-75-112-143-135-250c-57-272,130-538,409-582c155-24,303,26,418,141
		c120,121,168,275,136,436c-23,110-59,179-136,255c-66,65-137,108-217,129C2573.2,5841,2471.2,5850,2437.2,5844z"/>
</g>
</svg>
