<svg id="Layer_1" data-name="Layer 1" xmlns="http://www.w3.org/2000/svg" viewBox="0 0 703 447.54"><defs><style>.cls-1{fill:#231f20;opacity:0.2;isolation:isolate;}.cls-2{fill:#fff;}</style></defs><title>logo</title><path class="cls-1" d="M663.12,104.47,343.72,396.08S272.4,459,173.64,445.68c-44.1-6-100.82-20.62-172.64-50.53l30.73-40.26H199.8S488.12,114.79,525.26,77.65C556.86,46.05,636,24.05,688,36.16,705.4,40.23,712.34,55.26,663.12,104.47Z"/><polygon class="cls-1" points="378.99 267.4 93.25 223.64 135.81 165.21 499.29 165.21 378.99 267.4"/><path class="cls-2" d="M663.12,71.66,343.72,363.27s-71.32,63-170.08,49.6c-44.1-6-100.82-20.62-172.64-50.53l30.73-40.26H199.8S488.12,82,525.26,44.84C556.86,13.24,636-8.76,688,3.35,705.4,7.42,712.34,22.44,663.12,71.66Z"/><polygon class="cls-2" points="378.99 234.59 93.25 190.83 130.16 125.21 507.49 125.21 378.99 234.59"/></svg>
