<?xml version="1.0" encoding="utf-8"?>
<!-- Generator: Adobe Illustrator 24.1.0, SVG Export Plug-In . SVG Version: 6.00 Build 0)  -->
<svg version="1.1" id="svg" xmlns="http://www.w3.org/2000/svg" xmlns:xlink="http://www.w3.org/1999/xlink" x="0px" y="0px"
	 viewBox="0 0 324 308.9" style="enable-background:new 0 0 324 308.9;" xml:space="preserve">
<style type="text/css">
	.st0{fill-rule:evenodd;clip-rule:evenodd;fill:#F8F9FA;}
</style>
<g id="svgg">
	<path id="path0" class="st0" d="M189.8,0.9c-3.6,1.1-6.7,4.4-10.5,10.9c-3.5,6.2-4.6,7.6-8.4,10.4c-5,3.8-7.9,4.6-17.7,5.2
		c-11.8,0.6-11.9,0.7-11.6,16.4l0.2,10.1l1.5,1.5l1.5,1.5l54.8,0.1c59.6,0.2,57.4,0.3,58.7-3c1-2.3,1-20.4,0-23.3
		c-0.9-2.6-2.9-3.2-10.7-3.3c-8.3,0-19.9-4.2-19.9-7.1c0-0.2-0.7-1.1-1.6-2c-0.9-0.9-3-4-4.8-6.9c-4-6.4-6.9-9.4-10.4-10.6
		C207.5-0.3,193.6-0.3,189.8,0.9 M116,33.9c-18.3,2.5-34.1,17-37.9,34.6l-0.4,1.7l4.3-0.3c2.7-0.2,6.2,0.1,9.5,0.6
		c5.6,1,5.7,1,6.6-2c3.3-10.4,12.7-15.8,27.4-15.8l6.7,0v-9.6v-9.6l-7.3,0.1C120.9,33.6,116.9,33.8,116,33.9 M268.6,42.7l0.2,9.2
		l7.1,0.4c16.1,0.9,25.6,8,28.1,21.1c1.2,6.2,1.2,191.9,0,196.3c-2.4,8.9-8.5,15.5-17.7,18.9l-3.3,1.2l-78.8,0.2
		c-82.1,0.2-86.7,0.1-92.2-2.2c-6-2.4-11.8-8.2-13.8-13.6c-0.4-1.2-1-2.2-1.2-2.2c-0.3,0-9,4.8-12.1,6.8c-0.7,0.4-1.5,0.2-3.4-0.9
		c-3-1.8-3.1-1.4-0.9,3.6c5.8,13.6,18,23.5,32.6,26.5c5,1,167,1.3,173.3,0.3c21.1-3.4,35.6-20.1,37-42.5
		c0.7-11.5,0.7-187.1-0.1-192.5c-3.4-24.5-22-39.7-48.5-39.7l-6.5,0L268.6,42.7 M75.3,85.7c-2.1,0.5-7.9,2.5-12.9,4.4
		c-5,1.9-13.5,5-19,7c-5.4,2-12.2,4.4-15.1,5.5c-2.8,1.1-8.7,3.1-13,4.6c-14.7,5-16.3,7-15.2,19.2C5.6,182.1,36,232.9,80.5,260.2
		l3.5,2.1l1.8-1c44.5-25.6,78.7-82.8,82-137c0.6-10.2-1.2-12.3-13.8-16.7c-7.6-2.6-15.9-5.6-26.4-9.5c-4.5-1.7-10-3.7-12.1-4.4
		c-2.1-0.8-7.2-2.7-11.3-4.2C90.7,84.4,83.9,83.5,75.3,85.7 M90.5,98.3c2,0.6,11.6,4,21.4,7.6c17.7,6.6,37.4,13.7,41.3,14.9
		c2.4,0.8,2.3,0,1,10c-6.5,48.5-30.3,88.5-68.6,115.2l-1.8,1.2l-2.9-2.1c-32.3-22.9-54.7-56.5-63.8-95.8c-2.8-12-5.1-28-4.1-28
		c0.5,0,31.7-11.2,52.7-19c6.8-2.5,13-4.7,13.7-4.8C82.7,97.1,87.1,97.3,90.5,98.3 M180.6,109.5c0,0.1,0.5,2.1,1.1,4.5
		c0.6,2.4,1.1,5.5,1.1,7c0,3.2-1.2,2.9,11.7,2.9l9.8,0v-6.4c0-3.5,0.2-6.8,0.3-7.3c0.3-0.8-1-0.9-11.8-0.9
		C186,109.3,180.6,109.4,180.6,109.5 M228.5,116.6l0.2,7.3l23.6,0.2c13,0.1,24.7,0,26-0.2l2.3-0.3v-7.1v-7.1h-26.1h-26.1
		L228.5,116.6 M74.4,148.8l-0.1,12.5l-12.5,0.1l-12.5,0.1l0.2,9.2l0.2,9.2l12.5,0.1l12.5,0.1v12.4v12.4h9.3h9.3v-12.6v-12.6h12.6
		h12.6v-9v-9l-5.9-0.3c-3.3-0.2-8.9-0.2-12.6,0l-6.7,0.3V149v-12.7h-9.3h-9.3L74.4,148.8 M178.1,153.7c-0.2,0.8-0.9,3.8-1.7,6.5
		c-0.7,2.8-1.3,5.3-1.3,5.6c0,0.4,6,0.6,21.2,0.6h21.2v-7.1v-7.1h-19.5h-19.5L178.1,153.7 M241.6,159.3v7.1h19.5h19.5v-7.1v-7.1
		h-19.5h-19.5V159.3 M163.1,196.6c-0.2,0.5-1.8,3.6-3.6,6.9c-1.8,3.3-3.2,6.1-3.2,6.3c0,0.5,47.4,0.5,47.8,0
		c0.2-0.2,0.2-3.5,0.1-7.3l-0.2-6.9h-20.3C165,195.6,163.5,195.7,163.1,196.6 M228.4,202.7v7.1l4,0.3c3.3,0.2,45.2,0.2,47.5-0.1
		c0.5-0.1,0.7-1.9,0.7-7.2v-7.1h-26.1h-26.1V202.7 M136.2,245.5l0.1,7l26,0.1l26,0.1v-7.1v-7.1h-26.1H136L136.2,245.5 M212.4,245.6
		v7.1h34.1h34.1v-7.1v-7.1h-34.1h-34.1V245.6"/>
</g>
</svg>
