<?xml version="1.0" encoding="utf-8"?>
<!-- Generator: Adobe Illustrator 25.2.3, SVG Export Plug-In . SVG Version: 6.00 Build 0)  -->
<svg version="1.1" id="Layer_1" xmlns="http://www.w3.org/2000/svg" xmlns:xlink="http://www.w3.org/1999/xlink" x="0px" y="0px"
	 viewBox="0 0 183 200" style="enable-background:new 0 0 183 200;" xml:space="preserve">
<style type="text/css">
	.st0{fill:#FCFEFD;}
	.st1{fill:#F8F9FA;}
</style>
<g>
	<path class="st0" d="M0,100V0h91.5H183v100v100H91.5H0V100z M95.7,189.5l2.8-2.4H91h-7.5l2.8,2.4c1.5,1.4,3.7,2.5,4.7,2.5
		S94.2,190.9,95.7,189.5z M110.3,172.2c3.3-3.6,0.5-4.2-19.8-4.2s-23.1,0.6-19.8,4.2c1.4,1.6,3.5,1.8,19.8,1.8
		S108.9,173.8,110.3,172.2z M110.3,153.2c3.3-3.6,0.5-4.2-19.8-4.2s-23.1,0.6-19.8,4.2c1.4,1.6,3.5,1.8,19.8,1.8
		S108.9,154.8,110.3,153.2z M113.2,133.3c0.9-1,2.7-4,4.1-6.8c1.4-2.7,5.3-8.6,8.6-13c7.3-9.5,10.2-16.5,10.8-26.1
		c1.5-20.4-13.7-40.3-35.6-46.8c-7.3-2.1-13.5-2-21.3,0.4c-16,4.9-29.2,18.5-33.4,34.4c-3.5,13-0.2,25.1,10.7,39.4
		c2.7,3.5,5.7,7.8,6.6,9.5c0.9,1.8,2.7,4.9,4,7L70,135h20.9C109.4,135,111.9,134.8,113.2,133.3L113.2,133.3z"/>
	<path class="st0" d="M67.6,124.4c-1.4-2.6-2.6-5.9-2.6-7.5V114h26h26v3.2c0,1.7-1.1,5.1-2.5,7.5l-2.6,4.3H91H70.2L67.6,124.4z"/>
	<path class="st0" d="M116,110.1V107H90.5c-25.1,0-25.5,0-25.5,2.1c0,1.7-0.5,2-3.7,1.7c-3.6-0.3-4-0.7-7.1-6.9
		c-4.3-8.5-5.4-20.8-2.7-30.8c2-8,7.7-17.1,10.5-17.1c1.2,0,2-0.7,2-1.7c0-2.3,7-6.7,13.9-8.7s19.7-2.1,26.4-0.1
		c7.5,2.2,13.1,5.7,13.5,8.3c0.2,1.5,1,2.2,2.5,2.2c2.7,0,7.8,7.3,10.1,14.3c1.9,5.5,2.1,19.2,0.5,26.5c-0.5,2.8-2.5,7.4-4.2,10.3
		c-2.9,4.8-3.6,5.4-7,5.7C116.2,113.1,116,113,116,110.1L116,110.1z"/>
</g>
<g>
	<path class="st1" d="M86.4,194.6c-3.6-1.6-7.4-6.1-7.4-8.7c0-1.8,1-1.9,12.5-1.9H104l-1.1,2.7c-1.4,3.9-3.8,6.3-7.6,7.9
		C91.4,196.3,90.4,196.3,86.4,194.6z"/>
	<path class="st1" d="M67.7,175.2c-2.1-2.2-2.2-7.5-0.3-9.1c0.9-0.8,8.1-1.1,23.7-0.9l22.4,0.3l1.3,2.9c1.3,2.5,1.2,3.1-0.5,5.5
		l-2,2.6l-21.5,0.3C71,177,69.2,176.9,67.7,175.2z"/>
	<path class="st1" d="M67.7,156.2c-2.1-2.2-2.2-7.5-0.3-9.1c0.9-0.8,8.1-1.1,23.7-0.9l22.4,0.3l1.3,2.9c1.3,2.5,1.2,3.1-0.5,5.5
		l-2,2.6l-21.5,0.3C71,158,69.2,157.9,67.7,156.2z"/>
	<path class="st1" d="M64.7,134.3c-1.3-2.1-3.1-5.2-4-7c-0.9-1.7-3.9-6-6.6-9.5C45.1,106,42,97.6,42,85c0-42.5,50.3-64.8,82-36.3
		c15.6,14,20.5,34.6,13,54.6c-1.1,2.8-4.7,8.8-8.1,13.2c-3.3,4.4-7.2,10.3-8.6,13c-4.6,9.1-2.6,8.5-29.4,8.5H67
		C67,138,64.7,134.3,64.7,134.3z M111.7,121.3l2.5-4.3h-23H68.1l2.6,4.5l2.5,4.5l18-0.2l18-0.3L111.7,121.3z M125.7,100.2
		c3.4-7.3,4.2-19.1,1.9-26.4c-1.8-5.6-7.4-14.8-9-14.8c-0.6,0-1.9,0.9-3.1,2c-2,1.9-2.3,1.9-3.5,0.5c-1.1-1.3-0.9-1.9,0.9-3.9
		c2.4-2.6,2.1-3.1-3.8-6.1c-12.3-6.2-26.5-5.8-37.8,1.3l-4.2,2.7l2.1,2.2c1.8,1.9,1.9,2.5,0.8,3.8c-1.2,1.4-1.5,1.4-3.5-0.5
		c-1.2-1.1-2.4-2-2.8-2c-0.4,0-2.3,2.4-4.1,5.3c-4.7,7.3-7,16.4-6.1,24.3c0.9,8.7,8.5,24.2,8.5,17.5c0-1.6,0.6-2.1,2.9-2.1
		c3.4,0,3.3,0.1,5.2-21.5c0.6-7.7,1.6-15,2-16.2C72.9,64,73.2,64,90.5,64s17.6,0,18.4,2.3c0.7,1.7,4.2,33.1,4.1,37
		c0,0.4,1.4,0.7,3,0.7c2.7,0,3,0.3,3,3.3l0.1,3.2l2.1-2.5C122.3,106.6,124.4,103.1,125.7,100.2z M106.9,102.8
		c0-0.7-0.8-8.3-1.7-16.8l-1.7-15.5h-13h-13l-1.2,12c-0.6,6.6-1.4,14.1-1.7,16.8l-0.5,4.7h16.4C103.1,104,107,103.7,106.9,102.8
		L106.9,102.8z"/>
	<path class="st1" d="M56,79c0-1.8,0.7-2,5.5-2s5.5,0.2,5.5,2s-0.7,2-5.5,2S56,80.8,56,79z"/>
	<path class="st1" d="M116,79c0-1.7,0.7-2,5-2s5,0.3,5,2s-0.7,2-5,2S116,80.7,116,79z"/>
	<path class="st1" d="M89,54c0-5.3,0.2-6,2-6s2,0.7,2,6s-0.2,6-2,6S89,59.3,89,54z"/>
	<path class="st1" d="M97.7,95.8c-0.3-2.9-0.9-8.8-1.3-13c-0.7-7.5-0.6-7.8,1.5-7.8c1.1,0,2.1,0.6,2.1,1.3c0,1.6,1.9,18.5,2.5,22
		c0.4,2.3,0.1,2.7-1.9,2.7C98.5,101,98.2,100.4,97.7,95.8z"/>
	<path class="st1" d="M8,117c-0.7-1.2-0.8-2.6-0.3-3c1.2-1.1,16.5-7.1,17-6.6c0.2,0.2-2.7,2.5-6.4,5.1c-3.7,2.7-7.3,5.2-8,5.7
		C9.5,118.8,8.8,118.4,8,117z"/>
	<path class="st1" d="M164.8,113.3c-4.3-3.1-7.6-5.8-7.4-6c0.5-0.6,17,6.4,17.3,7.3c0.2,0.6-0.2,1.7-0.9,2.6
		C172.6,118.7,171.7,118.3,164.8,113.3L164.8,113.3z"/>
	<path class="st1" d="M2,77.2c0-2.3,0-2.3,8.3-1.6c8.5,0.7,13.8,2.3,8.2,2.4c-1.6,0.1-6,0.4-9.7,0.9C2.1,79.6,2,79.6,2,77.2z"/>
	<path class="st1" d="M170.1,78.7c-11-1.1-10.3-2.2,2.2-3.2c8.3-0.6,8.7-0.6,8.7,1.4c0,1.1-0.3,2.1-0.7,2.3
		C179.8,79.4,175.3,79.2,170.1,78.7z"/>
	<path class="st1" d="M21.8,47.8c-5.4-2.2-9.8-4.3-9.8-4.7c0-0.3,0.7-1.4,1.4-2.4c1.3-1.7,1.9-1.4,9.8,4.3c8.9,6.6,9.4,7,8.7,7
		C31.7,51.9,27.1,50.1,21.8,47.8z"/>
	<path class="st1" d="M151.5,51.2c0.6-0.5,4.5-3.5,8.8-6.6c7.4-5.4,8-5.6,9.3-3.9c0.7,1,1.4,2.1,1.4,2.4c0,0.4-4.6,2.5-10.2,4.8
		C155.2,50.2,151,51.6,151.5,51.2z"/>
	<path class="st1" d="M44.1,19.9c-5.1-6.5-6-8.3-5.1-9.5c2.4-2.7,3.7-1.3,7.7,8.1c2.3,5.2,4,9.5,3.9,9.5
		C50.4,28,47.5,24.4,44.1,19.9z"/>
	<path class="st1" d="M132.9,22.8c6.7-15.5,6.3-14.9,9.4-12.5c1.5,1.1,1.1,1.8-3.4,7.7C131.5,27.5,130.5,28.3,132.9,22.8z"/>
	<path class="st1" d="M90.7,19C90.1,17.5,88,4.2,88,2.1C88,1.5,89.4,1,91,1c2.6,0,3,0.3,2.9,2.8C93.8,8.7,91.3,20.5,90.7,19z"/>
</g>
</svg>
