<?xml version="1.0" encoding="utf-8"?>
<!-- Generator: Adobe Illustrator 24.2.1, SVG Export Plug-In . SVG Version: 6.00 Build 0)  -->
<svg version="1.1" id="svg" xmlns="http://www.w3.org/2000/svg" xmlns:xlink="http://www.w3.org/1999/xlink" x="0px" y="0px"
	 viewBox="0 0 80.5 88.2" style="enable-background:new 0 0 80.5 88.2;" xml:space="preserve">
<style type="text/css">
	.st0{fill-rule:evenodd;clip-rule:evenodd;fill:#F8F9FA;}
</style>
<path id="path0" class="st0" d="M38.2,0.3c0,0,0.1,0.3,0.2,0.5c0.1,0.3,0.1,0.4,0,0.5c-0.1,0-0.1,0.2,0.1,0.4
	c0.1,0.2,0.2,0.6,0.2,1.6c0,1.4,0.1,1.8,0.3,1.3c0.1-0.3,0.2,2.1,0.2,2.7c0,0.1,0.1,0.2,0.2,0.2c0.1,0,0.1-0.1,0.1-0.2
	c-0.1-0.1,0-0.2,0.1-0.2s0.1,0.3,0.1,0.7c-0.1,0.5,0,0.8,0.1,0.8c0.1,0.1,0.1,0.2,0,0.3c-0.1,0.2-0.1,0.3,0,0.5s0.1,0.4,0.1,0.4
	c0,0.1,0,0.1,0,0c0.1,0,0.2,0.1,0.3,0.2c0.1,0.2,0.4,0.3,0.5,0.3c0.2,0,0.2,0,0.1-0.1c-0.1-0.1-0.2-0.2-0.1-0.2
	c0.1-0.1,0.2-0.5,0.2-1c0-1,0.1-1.6,0.3-1.5c0.1,0,0.1-0.4,0.1-1.1s0.1-1.2,0.2-1.4c0.3-0.3,0.3-2.1,0.1-2.3c-0.1-0.1-0.1-0.1,0-0.1
	s0.2-0.1,0.1-0.3c-0.1-0.2,0-0.4,0.2-0.5c0.3-0.2,0.6-1.6,0.3-1.6c-0.1,0-0.2-0.1-0.1-0.2c0.1,0.3-0.6,0.2-1.9,0.2
	C39.1,0.2,38.2,0.2,38.2,0.3 M18.2,3.8c-0.1,0.1-0.3,0.2-0.3,0.1c-0.1,0-0.1,0-0.1,0.1c0,0.1-0.1,0.1-0.2,0.1
	c-0.1-0.1-0.2,0-0.2,0.1s-0.1,0.1-0.2,0.1C17,4.2,17,4.3,17,4.5c0,0.1-0.1,0.3-0.2,0.4s-0.1,0-0.1-0.2c0-0.4,0-0.4-0.2-0.2
	c-0.1,0.1-0.3,0.2-0.4,0.1C16,4.5,16,4.8,16,5.1s0.2,0.7,0.4,0.9c0.2,0.1,0.3,0.2,0.2,0.1c-0.3-0.2-0.2,0.2,0.1,0.5
	C16.9,6.7,17,6.9,16.9,7c-0.1,0.1,0,0.1,0.2,0s0.3,0,0.3,0.1s0.1,0.3,0.3,0.3c0.1,0.1,0.2,0.2,0.2,0.2c-0.1,0.4,0,0.7,0.2,0.6
	c0.1-0.1,0.2,0.1,0.3,0.3c0.1,0.3,0.1,0.3,0.3,0.1c0-0.1,0,0,0,0.3s0.1,0.4,0.1,0.4s0.1,0,0.1,0.1s0.2,0.3,0.5,0.5s0.5,0.4,0.4,0.6
	c-0.1,0.2,0.1,0.3,0.4,0.5c0.5,0.3,0.7,0.5,0.3,0.4c-0.1-0.1-0.2,0-0.2,0.1s0.1,0.2,0.2,0.2c0.3,0,0.7,0.5,0.5,0.6
	c-0.1,0.1,0,0.2,0.3,0.4s0.5,0.3,0.4,0.5s0,0.2,0.3,0.2c0.2,0,0.4,0.1,0.4,0.2c0,0.1-0.1,0.1-0.2,0.1c-0.1-0.1-0.2,0-0.2,0.1
	s0.2,0.1,0.4,0.1c0.3,0,0.4-0.1,0.3-0.4c-0.1-0.2-0.1-0.4,0.1-0.6c0.1-0.2,0.1-0.2-0.1-0.1c-0.2,0-0.3-0.1-0.3-0.4
	c0-0.2-0.1-0.5-0.2-0.6s-0.1,0,0,0.1c0.1,0.2,0.1,0.2-0.1,0.1c-0.1-0.1-0.2-0.3-0.2-0.6s-0.1-0.5-0.2-0.5c-0.2,0-0.2-0.2-0.2-0.7
	c0-0.4-0.1-0.6-0.2-0.6c-0.1,0.1-0.2-0.1-0.2-0.4c0-0.4-0.1-0.5-0.3-0.5c-0.2,0-0.3-0.1-0.3-0.5c0-0.4,0-0.5-0.2-0.4
	s-0.2-0.1-0.2-0.5S20,6.7,19.9,6.6s-0.2-0.3-0.2-0.5s0-0.5-0.1-0.5c-0.1-0.1-0.1,0,0,0.1s0.1,0.2,0,0.1s-0.2-0.4-0.3-0.7
	c-0.1-0.3-0.2-0.5-0.3-0.5s-0.2-0.1-0.2-0.4C19,3.5,18.5,3.4,18.2,3.8 M61.6,3.9c0,0.2-0.1,0.3-0.2,0.2c-0.1,0-0.2,0-0.2,0.1
	s0,0.3-0.1,0.5s0,0.4,0,0.5S61,5.3,60.9,5.3c-0.1-0.1-0.2,0.1-0.3,0.3c0,0.2-0.1,0.5-0.2,0.5c-0.1,0.1-0.1,0.2-0.1,0.3
	c0.1,0.1,0,0.3-0.1,0.5c-0.2,0.3-0.2,0.3-0.1,0c0.1-0.3,0.1-0.3-0.2-0.1c-0.1,0.2-0.2,0.5-0.2,0.7c0,0.5-0.5,1.6-0.7,1.4
	c-0.1-0.1-0.1,0-0.1,0.1c0,0.7-0.1,1-0.3,0.9s-0.2,0-0.2,0.3s0,0.4-0.2,0.4c-0.3,0-0.4,0.3-0.3,0.9c0,0.2-0.1,0.5-0.2,0.5
	c-0.1,0-0.2,0.2-0.2,0.4s-0.1,0.4-0.3,0.6c-0.3,0.4-0.2,0.7,0.3,0.6c0.5,0,0.8-0.2,0.7-0.6c0-0.2,0-0.3,0.1-0.3
	c0.1,0.1,0.2,0,0.3-0.2c0.1-0.1,0.2-0.2,0.2-0.2c0.1,0.1,0.1,0,0.1-0.1s0.3-0.4,0.6-0.8c0.4-0.4,0.6-0.7,0.5-0.8s0-0.2,0.1-0.2
	s0.3-0.2,0.3-0.3c0.1-0.2,0.2-0.3,0.3-0.2s0.1,0,0-0.2s0-0.3,0.2-0.2s0.2,0,0.2-0.2c-0.1-0.2,0-0.2,0.1-0.1c0.1,0.1,0.2,0,0.1-0.4
	c0-0.3,0-0.5,0.2-0.5c0.1,0,0.3,0,0.5-0.1c0.1,0,0.2-0.1,0.2-0.1s0.2-0.3,0.4-0.6c0.2-0.3,0.4-0.6,0.3-0.7c-0.1-0.2,0.1-0.3,0.4-0.2
	c0.1,0,0.1-0.2,0.1-0.4c0-0.4,0-0.4,0.2-0.2c0.5,0.2,0.6,0.2,0.5-0.1c0-0.2,0.1-0.4,0.2-0.5c0.2-0.1,0.2-0.2,0-0.3
	C64.2,5,64.1,5,64.2,5.2c0.1,0.1,0,0.2,0,0.2C64,5.4,63.8,5,64,4.8c0.2-0.2-0.4-0.5-0.7-0.3c-0.1,0.1-0.3-0.1-0.5-0.4
	C62.4,3.5,61.7,3.4,61.6,3.9 M37.8,15.8c-0.1,0.2-0.4,0.3-1.4,0.3c-0.7,0-1.2,0.1-1.2,0.2s-0.3,0.2-0.7,0.2s-0.7,0.1-0.7,0.2
	s-0.1,0.1-0.2,0.1c-0.1-0.1-0.2,0-0.2,0.1s-0.1,0.2-0.2,0.1c-0.1,0-0.4,0.1-0.6,0.2c-0.3,0.2-0.4,0.2-0.3-0.1c0.1-0.2,0-0.2-0.3,0.1
	c-0.2,0.2-0.5,0.4-0.6,0.4s-0.3,0.1-0.3,0.2S30.8,18,30.6,18c-0.3,0-0.4,0.1-0.3,0.3c0.1,0.2,0,0.2-0.5,0.1c-0.3-0.1-0.5,0-0.4,0
	c0.2,0.1,0.1,0.2-0.2,0.3c-0.2,0.1-0.4,0.3-0.4,0.4s-0.1,0.2-0.1,0.1c-0.4-0.1-0.5,0-0.5,0.3c0,0.2,0,0.2-0.3,0
	c-0.1-0.3-0.2-0.3-0.2-0.1c0,0.1-0.1,0.2-0.2,0.2c-0.2,0-0.2,0-0.2,0.1c0.1,0.1-0.1,0.2-0.3,0.3c-0.2,0.1-0.3,0.2-0.3,0.3
	c0.1,0.1-0.1,0.2-0.4,0.3c-0.2,0-0.4,0.1-0.4,0.3c0,0.1-0.1,0.2-0.2,0.1c-0.1,0-0.3,0-0.4,0.1s-0.1,0.2,0.1,0.1
	c0.1-0.1,0.2-0.1,0.1,0.1c-0.1,0.1-0.3,0.2-0.5,0.2c-0.3,0-0.3,0.1-0.2,0.4c0.1,0.2,0,0.3-0.1,0.2c-0.1-0.1-0.3,0.1-0.6,0.4
	c-0.2,0.3-0.5,0.4-0.6,0.4c-0.2-0.1-0.2,0-0.1,0.3s0,0.3-0.1,0.3c-0.2-0.1-0.3,0.1-0.3,0.4c0,0.1-0.1,0.1-0.2,0.1
	c-0.2,0-0.2,0-0.3,0.6c0,0.1-0.1,0.4-0.3,0.5c-0.2,0.3-0.2,0.3-0.1,0s0-0.2-0.4,0.2c-0.5,0.5-0.7,0.9-0.3,0.7c0.1-0.1,0.1,0,0,0.2
	s-0.3,0.4-0.4,0.4s-0.2,0.1-0.2,0.1c0.1,0.4-0.1,0.7-0.3,0.7c-0.2,0-0.2,0.1-0.2,0.3c0.1,0.2,0,0.3-0.1,0.3S20,28.1,20,28.4
	c0,0.2-0.2,0.6-0.3,0.7c-0.1,0.2-0.2,0.5-0.2,0.7s-0.1,0.4-0.3,0.4c-0.2,0-0.2,0.1-0.1,0.3c0.2,0.4,0,1-0.3,1
	c-0.1,0-0.2,0.2-0.2,0.5c0,0.3-0.1,0.6-0.3,0.8C18,33,18,33,18.3,32.9c0.3-0.1,0.3-0.1,0,0.2c-0.2,0.2-0.3,0.6-0.3,1.2
	c0,0.7-0.1,1-0.3,1c-0.2,0.1-0.2,0.1,0,0.4c0.1,0.2,0.2,0.2,0,0.2c-0.2-0.1-0.2,0.1-0.1,0.8c0.1,1.2,0.1,1.5,0,2.9
	c-0.1,1-0.1,1.2,0.2,1.4c0.2,0.2,0.3,0.5,0.3,0.8c0,0.4,0,0.5,0.2,0.4c0.2,0,0.2,0,0,0.2c-0.3,0.2-0.4,0.9-0.1,0.7
	c0.1-0.1,0.2,0.2,0.4,1.3c0.1,0.3,0.2,0.6,0.2,0.5c0.1,0,0.1,0.2,0.1,0.6c0,0.4,0,0.7,0.1,0.8s0.1,0,0.1-0.1c-0.1-0.1,0-0.2,0.1-0.1
	c0.1,0.1,0.2,0.3,0.2,0.6s0,0.5,0.2,0.5c0.1,0,0.2,0.1,0.3,0.2c0,0.5,0.1,0.5,0.4,0.8s0.4,0.5,0.1,0.4c-0.1-0.1-0.1,0-0.1,0.2
	c0.1,0.1,0.2,0.2,0.2,0.2c0.1-0.1,0.1,0,0.1,0.2c0,0.4,0,0.5,0.4,0.7c0.2,0.1,0.3,0.4,0.3,0.6c0,0.3,0,0.3,0.2,0.1
	c0.1-0.2,0.2-0.2,0.1,0.1s0,0.4,0.3,0.6c0.2,0.1,0.5,0.4,0.5,0.6c0.1,0.2,0.3,0.5,0.5,0.7c0.3,0.2,0.4,0.3,0.2,0.4
	c-0.2,0.1-0.2,0.1,0,0.1c0.4,0,1.2,0.9,1.2,1.3c0,0.2,0.1,0.3,0.3,0.3c0.2,0,0.2,0.1,0.2,0.2c-0.1,0.2,0,0.2,0.1,0.2
	s0.2,0.1,0.2,0.3c0,0.4,0.4,0.7,0.6,0.6c0.1-0.1,0.1,0,0,0.2s0,0.3,0.2,0.3s0.3,0.1,0.2,0.4c-0.1,0.3,0,0.4,0.2,0.5s0.3,0.2,0.2,0.5
	c0,0.2,0,0.4,0.1,0.4s0.1-0.1,0.1-0.3c-0.1-0.2-0.1-0.2,0.2,0c0.1,0.2,0.2,0.5,0.2,0.7c0,0.3,0,0.4,0.2,0.4c0.1,0,0.2,0.1,0.2,0.2
	c-0.1,0.4,0,0.6,0.3,0.6c0.1,0,0.2,0.1,0.2,0.2c-0.1,0.1,0,0.2,0.1,0.2s0.2,0.1,0.1,0.3c-0.1,0.1,0,0.2,0.1,0.2
	c0.1-0.1,0.2,0.3,0.1,0.5c-0.4,0.6,0.3,0.6,11.6,0.6c10.9,0,11.7,0,11.5-0.4c-0.1-0.1,0-0.1,0.2-0.1c0.2,0.1,0.2,0,0.2-0.1
	c-0.1-0.1,0-0.2,0.2-0.3c0.4-0.1,0.5-0.7,0.1-0.7c-0.2,0-0.1-0.1,0.2-0.1c0.4-0.1,0.5-0.2,0.5-0.5c0-0.2,0.1-0.5,0.2-0.7
	c0.1-0.1,0.2-0.4,0.3-0.5c0.1-0.2,0.2-0.3,0.3-0.2s0.2,0,0.1,0c-0.1-0.5,0-0.9,0.3-0.8c0.2,0.1,0.2,0,0.1-0.1
	c-0.1-0.1,0-0.3,0.1-0.3c0.1-0.1,0.2-0.2,0.2-0.4c0-0.1,0.2-0.4,0.3-0.6c0.2-0.2,0.3-0.5,0.3-0.7s0.2-0.3,0.3-0.4
	c0.2-0.1,0.3-0.2,0.2-0.3s0.1-0.3,0.3-0.5c0.3-0.3,0.4-0.4,0.2-0.5s-0.2-0.1,0.1-0.1c0.2,0,0.3-0.1,0.3-0.3c0-0.1,0.1-0.2,0.3-0.2
	c0.3,0,0.4-0.3,0.4-0.9c0-0.1,0.1-0.1,0.3-0.1s0.4-0.2,0.5-0.4c0.2-0.4,0.2-0.4-0.1,0c-0.2,0.2-0.3,0.2-0.2,0.1
	c0-0.1,0.2-0.3,0.4-0.4s0.4-0.3,0.5-0.5s0.2-0.3,0.2-0.2c0.1,0.1,0.1,0,0.1-0.1s0.1-0.5,0.4-0.8c0.3-0.3,0.5-0.6,0.4-0.8
	c-0.1-0.1,0-0.2,0.1-0.2s0.1-0.1,0.1-0.3c-0.1-0.3,0.2-0.7,0.5-0.7c0.1,0,0.2-0.1,0.3-0.2c0.1-0.1,0-0.2-0.2-0.1
	c-0.3,0.1-0.3,0.1-0.1-0.1c0.1-0.1,0.2-0.4,0.2-0.5c0-0.2,0-0.3,0.2-0.2s0.2,0,0.2-0.1s0-0.3,0.1-0.3c0.1-0.1,0.1-0.3,0.1-0.5
	c0.1-0.6,0.2-0.6,0.4-0.6c0.2,0.1,0.3-0.2,0.4-1.7c0-0.2,0.1-0.2,0.2-0.1c0.1,0.1,0.2-0.1,0.2-1s0-1.2,0.2-1.1c0.1,0,0.2,0,0.1-0.1
	s0-0.2,0.1-0.2s0.1-0.1,0-0.3s-0.2-0.2,0-0.2c0.2,0.1,0.2-0.8,0-1.2c-0.1-0.2,0-2.8,0.1-3.7c0-0.5,0-0.9,0-0.8
	c-0.2,0.2-0.5-0.6-0.5-1.4c0-0.5-0.1-0.8-0.2-0.9c-0.1-0.1-0.3-0.4-0.3-0.8c0-0.3-0.1-0.6-0.2-0.6c-0.1,0-0.2-0.3-0.2-0.7
	c0-0.5-0.1-0.7-0.2-0.7c-0.1,0-0.2,0-0.1-0.1c0.1-0.1,0-0.2,0-0.2c-0.1,0-0.1-0.2-0.1-0.5c0.1-0.4,0-0.5-0.2-0.5s-0.4-0.3-0.3-0.7
	c0-0.1-0.1-0.1-0.1,0c-0.1,0.1-0.2,0-0.2-0.1s-0.1-0.1-0.2-0.1c-0.1,0.1-0.1,0,0-0.2s0.2-0.3,0-0.3C60,27,60,26.9,60,26.7
	c0.1-0.2,0-0.2-0.1-0.2c-0.1,0.1-0.2,0-0.2-0.1s-0.2-0.3-0.3-0.5c-0.2-0.2-0.3-0.5-0.2-0.6c0.1-0.2,0-0.2-0.1-0.2
	c-0.1,0.1-0.3-0.1-0.5-0.4s-0.2-0.5-0.2-0.5c0.1,0-0.1-0.2-0.4-0.4c-0.3-0.2-0.4-0.4-0.2-0.3c0.1,0.1,0.1,0-0.2-0.2
	C57.4,23.1,57.1,23,57,23s-0.1-0.1,0-0.1c0.1-0.1,0-0.2-0.2-0.3c-0.2-0.1-0.3-0.3-0.2-0.4s0-0.1-0.2-0.1c-0.3,0.1-0.3,0.1-0.3-0.1
	c0.1-0.2,0-0.3-0.2-0.3c-0.1,0-0.3-0.1-0.3-0.3s-0.2-0.2-0.2-0.2c-0.1,0-0.2-0.1-0.2-0.3c0-0.2-0.2-0.3-0.3-0.2
	c-0.1,0.1-0.2,0-0.3-0.1s-0.2-0.2-0.2-0.2c-0.1,0-0.2,0-0.2-0.2C54.1,20.1,54,20,53.8,20s-0.3-0.1-0.3-0.2s-0.2-0.4-0.4-0.5
	c-0.4-0.1-0.4-0.1-0.3,0.1s0.2,0.3,0.1,0.3c-0.2,0-0.9-0.6-0.9-0.8c0-0.1-0.2-0.2-0.4-0.2s-0.4-0.1-0.4-0.2s-0.2-0.2-0.3-0.2
	s-0.3-0.1-0.3-0.2c-0.1-0.2-0.3-0.2-0.7-0.2s-0.6-0.1-0.7-0.3c-0.1-0.1-0.2-0.2-0.3-0.2c-0.6,0.1-1,0-0.9-0.2c0-0.1,0-0.2-0.1-0.2
	c-0.6,0-1-0.1-0.9-0.2c0-0.1-0.1-0.1-0.3-0.2c-0.2,0-0.4,0.1-0.5,0.2c-0.1,0.2-0.1,0.2-0.1,0c0-0.1-0.1-0.2-0.2-0.2
	c-0.1,0-0.3-0.1-0.5-0.3c-0.2-0.2-0.3-0.2-0.2-0.1c0.1,0.2,0.1,0.2-0.1,0.1c-0.3-0.2-1.2-0.3-1.1-0.1c0.1,0.2-1-0.2-1.2-0.5
	c-0.2-0.2-0.3-0.2-0.6,0.1C42,16,41.9,16,42,15.9c0.2-0.3-3.2-0.3-3.6-0.1c-0.1,0.1-0.1,0-0.1-0.1c0.1-0.1,0-0.2-0.1-0.2
	S38,15.6,38,15.7C38,15.8,37.9,15.9,37.8,15.8c-0.1,0.1-0.1,0-0.1-0.1C38.1,15.4,38,15.5,37.8,15.8 M5.8,17c0,0-0.1,0.3-0.1,0.5
	c0,0.2-0.1,0.4-0.2,0.5s-0.1-0.1-0.1-0.3l0.1-0.4l-0.2,0.4c-0.1,0.2-0.1,0.5-0.1,0.7c0.1,0.2,0,0.3-0.1,0.2c-0.2-0.1-0.2,0-0.2,0.3
	s-0.1,0.4-0.3,0.4c-0.3,0-0.3,0,0,0.1c0.2,0.1,0.2,0.3,0.2,0.4c-0.1,0.3,0.5,0.7,1.1,0.7c0.2,0,0.4,0.1,0.5,0.2s0.2,0.2,0.2,0.2
	c0.4-0.1,0.6,0,0.5,0.2c-0.1,0.1,0,0.2,0.1,0.2s0.3,0,0.5,0.1c0.1,0,0.4,0,0.6,0.1c0.2,0,0.3,0.1,0.2,0.3C8.4,22,8.5,22,8.9,22
	s0.5,0,0.5,0.2c0,0.1,0.1,0.2,0.4,0.2c0.2,0,0.6,0.1,0.9,0.2c0.3,0.1,0.6,0.2,0.8,0.2s0.3,0.1,0.2,0.2c-0.1,0.2,0,0.2,0.4,0.2
	c0.3,0,0.5,0,0.5,0.2c0,0.1,0.2,0.2,0.4,0.2c0.7,0.1,1.1,0.2,1,0.4c-0.2,0.2,0.5,0.2,0.7-0.1c0.1-0.2,0.1-0.3-0.1-0.6
	c-0.2-0.3-0.2-0.4,0-0.3c0.1,0.1,0.1,0-0.2-0.2c-0.2-0.2-0.5-0.3-0.6-0.2c-0.1,0.1-0.3-0.1-0.3-0.3c-0.1-0.2-0.2-0.4-0.5-0.4
	c-0.2,0-0.5-0.2-0.7-0.5s-0.4-0.5-0.5-0.4c-0.2,0.1-0.7-0.4-0.7-0.7c0-0.1-0.1-0.2-0.2-0.2c-0.1,0-0.1,0.1-0.1,0.2s-0.1,0.1-0.3-0.1
	s-0.4-0.4-0.3-0.4c0.1-0.1,0-0.1-0.1-0.1c-0.1,0.1-0.3,0-0.3-0.2c-0.1-0.2-0.2-0.2-0.4-0.2c-0.1,0.1-0.3,0-0.5-0.2
	c-0.1-0.2-0.4-0.3-0.5-0.4c-0.2-0.1-0.3-0.3-0.4-0.4c-0.1-0.3-0.3-0.4-0.8-0.4c-0.1,0-0.1-0.1,0-0.2s0-0.2,0-0.2
	c-0.4,0.1-0.7,0-0.7-0.2c0.1-0.1,0-0.2-0.1-0.3c-0.1-0.1-0.2,0-0.1,0.1s0,0.2-0.2,0.3c-0.2,0.1-0.2,0-0.2-0.1C6,16.8,6,16.8,5.8,17
	 M74.2,17.4c-0.3,0.4-0.4,0.4-0.4,0.2l0.1-0.3l-0.3,0.3c-0.2,0.2-0.4,0.3-0.5,0.3S73,18,73,18.1c0.1,0.2,0,0.2-0.2,0.2
	s-0.3,0-0.2,0.3c0,0.2,0,0.3-0.3,0.2c-0.2-0.1-0.3,0-0.3,0.1S71.9,19,71.8,19c-0.1-0.1-0.2,0-0.2,0.1c0,0.3-0.8,1-1.1,1
	c-0.1,0-0.2,0.1-0.2,0.2c0,0.2-0.1,0.2-0.3,0.1c-0.2-0.1-0.2,0-0.2,0c0.2,0.2-0.6,0.7-0.9,0.6c-0.2,0-0.3,0.1-0.3,0.3
	c0,0.2-0.1,0.3-0.2,0.2c-0.2-0.1-0.2,0-0.2,0.2s-0.1,0.3-0.3,0.2c-0.2-0.1-0.2,0-0.2,0.2c0.1,0.2,0,0.2-0.2,0.2
	c-0.4-0.1-0.6,0-0.9,0.7c-0.1,0.3-0.4,0.5-0.5,0.5s-0.2,0.1-0.2,0.2c0,0.2,0.1,0.2,0.2,0.2c0.1-0.1,0.3,0,0.3,0
	c0.3,0.3,0.6,0.2,0.5-0.1c-0.1-0.3,0-0.3,0.6-0.2c0.6,0.1,0.7,0,0.8-0.2c0.1-0.2,0.2-0.3,0.3-0.4c0.1,0,0.2,0,0.1,0.1
	c-0.2,0.3,0.1,0.2,0.5-0.2c0.2-0.2,0.5-0.3,0.6-0.3s0.2-0.1,0.2-0.2s0.1-0.2,0.4-0.2s0.6-0.1,0.7-0.2c0.2-0.2,0.2-0.2,0.1,0
	s0.9-0.3,1.1-0.5c0.1-0.1,0.4-0.2,0.7-0.1c0.5,0,0.6,0,0.4-0.2c-0.1-0.2-0.1-0.2,0-0.2c0.4,0,0.7-0.1,1.1-0.3
	c0.2-0.1,0.4-0.2,0.5-0.1c0.2,0.1,0.7-0.1,0.6-0.3c0-0.1,0-0.3,0.2-0.5c0.2-0.3,0.2-0.3,0.1,0c-0.1,0.2,0,0.4,0.1,0.4
	c0.3,0,0.2-0.7-0.1-0.9c-0.1-0.1-0.2-0.3-0.2-0.4s0-0.1,0-0.1c-0.1,0.2-0.5-0.2-0.4-0.5s-0.3-0.8-0.5-0.6c-0.1,0.1-0.1,0-0.1-0.2
	c0.1-0.1,0-0.3-0.1-0.4s-0.1,0-0.1,0.1c0.1,0.1,0,0.3-0.2,0.4C74,17.8,74,17.8,74.2,17.4C74.8,16.7,74.7,16.8,74.2,17.4 M41.9,21.7
	c0.1,0.2,0.2,0.2,0.2,0.1s0.1-0.2,0.2-0.2s0.1,0.1,0.1,0.1c0,0.1,0.3,0.1,0.8,0.1s1,0.1,1.2,0.2s0.6,0.2,0.9,0.3
	c0.4,0,0.6,0.1,0.5,0.3c-0.1,0.2,0,0.2,0.4,0.2c0.3,0,0.5,0,0.5,0.1S46.8,23,47,23c0.1,0,0.2,0.1,0.2,0.1c0,0.1,0.1,0.1,0.4,0.1
	c0.4,0,0.5,0,0.3,0.2c-0.1,0.1-0.1,0.2,0.1,0.2c0.7,0.1,0.9,0.2,1,0.4c0.1,0.1,0.2,0.2,0.3,0.2s0.1,0.1,0.1,0.2s0.1,0.2,0.3,0.2
	c0.6,0,0.7,0.3,0.2,0.8c-0.3,0.3-0.4,0.4-0.4,0.3c0.1-0.1,0-0.2-0.1-0.2s-0.1,0.1-0.1,0.3c0.1,0.2,0,0.4-0.3,0.6
	c-0.6,0.6-0.7,1-0.1,1.4c0.3,0.2,0.5,0.5,0.4,0.6c-0.1,0.2,0.4,0.2,1.1,0.1c0.2,0,1.4-1.1,1.3-1.2c0,0,0.1-0.2,0.3-0.3
	c0.4-0.2,0.4-0.1,0.4,0.1s0,0.2,0.1,0c0.1-0.3,0.1-0.3,0.3,0.1c0.1,0.3,0.2,0.4,0.3,0.2c0.1-0.2,0.1-0.2,0.1,0
	c0,0.1-0.1,0.2-0.2,0.3c-0.3,0.2,0.2,0.6,0.5,0.5c0.2-0.1,0.2,0,0.1,0.2c-0.1,0.1,0,0.3,0.2,0.5c0.2,0.1,0.3,0.3,0.3,0.3
	c0,0.1,0.1,0.3,0.3,0.5s0.3,0.5,0.2,0.7c-0.1,0.3,0,0.4,0.2,0.3s0.3,0,0.2,0.3s0,0.5,0.2,0.5c0.2,0.1,0.3,0.2,0.2,0.3
	c-0.1,0.1,0,0.3,0.1,0.5c0.1,0.1,0.2,0.4,0.2,0.7s0.2,0.5,0.3,0.6c0.2,0.1,0.3,0.4,0.2,1.1c0,0.6,0,1,0.1,0.9
	c0.4-0.2,0.5,3.8,0.1,4.4c-0.1,0.1-0.2,0.5-0.2,0.9c0,0.3-0.1,0.8-0.3,0.9c-0.2,0.2-0.2,0.3,0,0.2c0.1-0.1,0.1,0-0.1,0.1
	c-0.2,0.2-0.2,0.3-0.1,0.3c0.2,0.1,0.2,0.1,0,0.2c-0.1,0.1-0.2,0.3-0.1,0.4c0.1,0.3-0.1,0.5-0.3,0.2c0.5,0,0.4,0.2,0.4,0.5
	c0,0.9,0,1-0.2,0.9c-0.1-0.1-0.2,0.4-0.2,0.8c0,0.1-0.1,0.2-0.3,0.2c-0.2,0.1-0.3,0.2-0.2,0.4s0,0.4-0.2,0.4
	c-0.1,0.1-0.2,0.2-0.2,0.3c0.1,0.2,0,0.2-0.2,0.2s-0.3,0-0.2,0.3s-0.4,0.9-0.7,0.9c-0.1,0-0.1-0.3-0.1-0.7c0.1-1,0-1.1-1.3-1
	c-1.1,0.1-1.7-0.2-1.7-0.9c0-0.1,0.1,0,0.2,0.2c0.1,0.2,0.2,0.3,0.2,0.2s-0.2-0.3-0.4-0.6C50,45.1,49.9,44.9,50,45
	c0.2,0.1,0.2-3.2,0-3.4c-0.1-0.1-0.1-0.1,0.1-0.1c0.1,0,0.2-0.1,0.1-0.2c-0.1-0.1-0.2-0.1-0.2-0.1c-0.2,0.1-0.2-0.3-0.2-2.5
	c0-1.1-0.1-1.9-0.2-1.8c-0.1,0-0.2-0.7-0.2-1.9c0-1.1-0.1-2-0.2-2.1c-0.1-0.1-0.1-0.3,0.1-0.4c0.2-0.2,0.2-0.2,0-0.1
	c-0.2,0.1-0.2,0.1-0.1-0.1c0.1-0.2,0-0.3,0-0.4c-0.1,0-0.1-0.6-0.1-1.3c0-0.8,0-1.2-0.1-1.1s-0.1,0-0.1-0.2c0.1-0.2,0-0.3-0.1-0.2
	c-0.1,0-0.2-0.1-0.2-0.2s-0.1-0.2-0.2-0.2c-0.1,0-0.4-0.1-0.5-0.3c-0.3-0.3-15-0.5-15-0.1c0,0.1-0.2,0.2-0.4,0.2
	c-0.4,0-1,0.5-0.7,0.5c0.1,0,0,0.2-0.1,0.4c-0.2,0.3-0.3,0.9-0.3,2.2c0,1.3-0.1,1.8-0.2,1.9c-0.4,0.2-0.5,0.7-0.5,2.1
	c0,1.7,0,2-0.3,2.2c-0.2,0.1-0.2,0.3-0.1,0.3s0.1,0.3,0.1,0.7c-0.1,0.3-0.1,1.1-0.1,1.7c0,0.6-0.1,1.2-0.1,1.3
	c-0.1,0.2-0.1,0.2,0.1,0.1c0.2-0.1,0.2-0.1,0,0.2c-0.2,0.2-0.3,0.7-0.3,2.2c0,2.3,0,2.2-1.8,2.1c-1.3-0.1-1.4-0.1-1.3,0.3
	c0,0.2,0,0.4-0.1,0.5c-0.1,0-0.1,0-0.1-0.2c0-0.1-0.1-0.3-0.2-0.3s-0.2-0.2-0.2-0.3S26.2,46,26.1,46c-0.1-0.1-0.2-0.2-0.2-0.3
	s0-0.3-0.1-0.3c-0.1-0.1-0.1-0.2-0.1-0.3c0.1-0.1,0-0.1-0.1-0.1s-0.2-0.1-0.2-0.4c0-0.2,0-0.4-0.1-0.4c-0.2,0.1-0.5-0.9-0.4-1.1
	c0-0.1,0-0.2-0.2-0.2c-0.2-0.1-0.3-0.3-0.3-0.8s-0.1-0.9-0.3-1.2c-0.2-0.2-0.3-0.5-0.2-0.5c0.2-0.1,0.1-3.7,0-4
	c-0.2-0.3,0.1-0.3,0.4,0c0.2,0.2,0.2,0.2,0.2,0s0.1-0.2,0.3,0c0.5,0.3,4.8,0.2,4.8,0s0-0.2,0.1,0s0.1-0.3,0-2.3
	c0-0.1-1.2-0.1-2.7-0.1c-2.7,0-2.7,0-2.7-0.3c0-0.2,0.1-0.4,0.2-0.3c0.1,0,0.2-0.2,0.2-0.6c0-0.5,0.1-0.7,0.3-0.6
	c0.2,0,0.3-0.1,0.2-0.4c-0.1-0.3,0-0.5,0.3-0.8c0.3-0.2,0.3-0.3,0.1-0.4c-0.1-0.4,0-0.4,0.2-0.4s0.4-0.1,0.4-0.3c0-0.3,0-0.3-0.2,0
	c-0.2,0.2-0.2,0.2-0.1,0c0-0.1,0.2-0.3,0.4-0.4c0.2-0.1,0.3-0.3,0.3-0.4c0-0.2,0.1-0.4,0.2-0.6c0.2-0.3,0.2-0.3,0,0.1
	s-0.2,0.4,0.1,0.2c0.2-0.1,0.3-0.3,0.3-0.5s0.9-1.2,1.1-1.2s0.6,0.5,0.6,0.7c0,0.1,0.1,0.2,0.1,0.2c0.1,0,0.3,0.1,0.6,0.3
	c0.4,0.2,0.5,0.3,0.7,0.1c0.2-0.2,0.5-0.3,0.4,0c-0.1,0.1,0,0.1,0.2,0.1c0.1-0.1,0.2-0.2,0.2-0.2c0-0.1,0-0.2,0.1-0.4
	c0.1-0.2,0.2-0.2,0.2,0c0,0.1,0.1,0.2,0.2,0.1s0.1-0.2,0.1-0.4c-0.1-0.2,0-0.2,0.2-0.2c0.6,0.1,0.5-0.7-0.2-1.3
	c-0.3-0.3-0.7-0.6-0.8-0.6s-0.1,0,0-0.1s0-0.2-0.2-0.3c-0.3-0.1-0.2-0.2,0.2-0.2c0.3,0,0.5-0.1,0.5-0.3c0-0.2,0-0.2,0.1-0.2
	c0.1,0.1,0.2,0,0.3-0.2c0.2-0.2,0.3-0.3,0.5-0.2c0.2,0.1,0.3,0,0.4-0.2c0.1-0.2,0.2-0.3,0.3-0.2c0.1,0.1,0.3,0,0.4-0.1
	c0.1-0.1,0.3-0.2,0.5-0.2c0.1,0,0.3,0,0.4,0c0.1,0,0.2-0.1,0.1-0.2c-0.1-0.2,0.1-0.2,0.7-0.2c0.3,0,0.4-0.1,0.3-0.2
	c-0.1-0.2,0-0.2,0.3-0.3c1.1,0,1.2-0.1,1.1-0.3c0-0.1,0-0.2,0.1-0.1s0.3,0,0.4,0c0.2-0.1,0.3-0.1,0.3,0s0.2,0.1,0.5,0s0.5-0.1,0.4,0
	c-0.1,0.2,0,0.2,0.4,0c0.3-0.1,0.3,0.1,0.2,2.6c0,2.2,0,2.7,0.2,2.7c0.1,0,0.6,0,1.1,0.1c1.2,0.1,1.2,0,1.2-2.8c0-1.4,0-2.6,0-2.7
	C41.4,21.3,41.7,21.3,41.9,21.7 M45.4,31.9c0,0.2,0,0.4,0.1,0.6c0.1,0.2,0.1,0.3,0,0.3c-0.2,0-0.2,0.5,0,0.5
	c0.3,0.1,0.3,0.5,0.3,2.7c0,1.5,0.1,2,0.2,2c0.1,0.1,0.2,0.4,0.2,0.9c0,0.6,0.1,0.8,0.2,0.7c0.1-0.1,0.1,0,0,0.3
	c-0.2,0.4-0.2,1.5,0.1,1.8c0.1,0.2,0.1,0.3-0.1,0.4c-0.2,0.1-0.2,0.2,0,0.2c0.2,0.1,0.2,0.3,0.2,1c0,0.5,0.1,0.9,0.2,1
	c0.1,0.1,0.1,0.1,0,0.1s-0.2,0.1-0.2,0.3c0,0.1,0.1,0.2,0.2,0.2c0.1-0.1,0.1,0.1,0,0.4c-0.1,0.3-0.1,0.5,0,0.6
	c0.8,0.5,0.2,0.6-6.7,0.5h-6.9v-1.6c0-0.9,0.1-1.7,0.2-1.9c0.2-0.4,0.3-2.3,0-2.3c-0.1,0-0.1-0.1,0-0.1c0.1-0.1,0.2-0.4,0.2-0.8
	c0-0.9,0.1-1.3,0.3-1.1c0.1,0.1,0.1,0,0-0.2s-0.2-0.3,0-0.4c0.2-0.1,0.2-1.6,0-1.6c-0.1,0-0.1-0.1,0-0.3s0.2-0.8,0.2-1.4
	c0-0.6,0.1-1,0.1-0.8c0.2,0.5,0.3,0.1,0.3-1c0-0.7,0-1.3,0-1.3c0-0.1,2.4-0.1,5.4-0.1C45.1,31.6,45.4,31.6,45.4,31.9 M0,34.5v1.4
	L0.5,36c0.3,0,0.6,0,0.7-0.2s0.1-0.2,0.1,0c0,0.1,0.3,0.2,1,0.2s1-0.1,1-0.2c0-0.2,0.4-0.2,1.8-0.2c1.9,0,2.4,0,2.3-0.3
	c-0.1-0.1-0.1-0.1,1.9-0.1c1.2,0,1.4,0,1.3-0.3c0-0.1-0.1-0.3-0.1-0.4c0-0.1-0.1-0.1-0.3-0.1c-0.1,0-0.4,0-0.6-0.2
	c-0.3-0.2-0.7-0.3-1.9-0.3c-1.1,0-1.6-0.1-1.8-0.3c-0.3-0.3-0.3-0.3-0.2,0.1C5.8,34,5.8,34,5.6,33.8S5,33.6,3.8,33.6s-1.7,0-1.7-0.2
	c-0.1-0.2-0.2-0.2-0.5-0.1c-0.3,0.1-0.4,0.1-0.3,0c0.1-0.1-0.2-0.2-0.6-0.1H0L0,34.5 M41.9,34.3c0,0.9,0.1,1.2,0.2,1.2
	c0.2,0,0.3,0.7,0.2,3.3c0,0.7,0.1,1.1,0.2,1.1c0.2,0.1,0.2,0.6,0.2,2.1s0,2,0.2,1.9c0.1,0,0.2,0,0.2,0.1s0,0.4,0,0.7v0.5h1.3h1.3
	v-0.5c0-0.3,0-0.5-0.1-0.4s-0.1-0.1,0-0.3c0.1-0.3,0.1-0.5,0-0.6c-0.3-0.2-0.4-1.1-0.5-3.2c0-1.4-0.1-1.8-0.3-1.7s-0.2-0.3-0.1-1.9
	c0-1.1,0-2-0.1-2s-0.1-0.1-0.1-0.3s-0.1-0.4-0.2-0.5c-0.1-0.1-0.2-0.3-0.1-0.4c0.1-0.2-0.2-0.2-1.2-0.2h-1.3L41.9,34.3 M78.6,33.3
	c0,0.1-0.7,0.2-1.7,0.2c-1.5,0-2.6,0.2-2.5,0.4c0,0.1-0.8,0.1-1.8,0.1s-1.9,0-1.8,0.1c0,0.1-0.1,0.2-0.4,0.2
	c-0.3,0.1-0.5,0.1-0.6,0.1s-0.2,0.2-0.2,0.3c0,0.2,0,0.3,0.2,0.1s0.3-0.2,0.2,0c-0.1,0.2,0.1,0.3,1.5,0.2c0.9,0,1.6,0,1.6,0.1
	s0.1,0.1,0.2,0s0.3,0,0.4,0.1s0,0.1-0.1,0s-0.2-0.1-0.1,0c0.2,0.2,0.8,0.3,0.8,0.1c0-0.1,0.1-0.1,0.2-0.1c0.1,0.1,0.8,0.1,1.5,0.2
	c0.9,0,1.3,0.1,1.3,0.2c0,0.1,0.1,0.1,0.4,0s0.4-0.1,0.4,0c0,0.2,2.2,0.2,2.4,0c0.3-0.2,0.2-2.4-0.1-2.6C80,33,78.7,33,78.6,33.3
	 M51,34.1c-0.2,0.1-0.2,0.3-0.2,0.3c0.1,0.1,0.1,1.3-0.1,1.8c-0.1,0.2,0.2,0.3,2.3,0.3c1.7,0,2.4,0,2.4-0.2c0-0.1,0.1-0.1,0.2-0.1
	c0.2,0.1,0.2-0.1,0.2-1.2v-1.3h-2.4C52,33.9,51.2,34,51,34.1 M24.4,35.2c0,0.3-0.1,0.5-0.3,0.7c-0.3,0.2-0.3,0.2-0.2-0.3
	C24.1,34.6,24.4,34.4,24.4,35.2 M11.1,47.1c-0.1,0.2-0.2,0.2-0.5,0.2c-0.3-0.1-0.4,0-0.3,0.2c0.1,0.2-0.2,0.3-0.6,0.3
	c-0.1,0-0.1,0.1-0.1,0.2c0,0.1-0.1,0.1-0.3,0.1c-0.1-0.1-0.2,0-0.2,0.1c0.1,0-0.1,0.1-0.5,0c-0.1,0-0.3,0.1-0.4,0.2
	c-0.1,0.1-0.4,0.2-0.6,0.2c-0.2,0-0.4,0-0.4,0.1s-1.1,0.7-1.3,0.7c0,0,0-0.1,0-0.2s0-0.2-0.1-0.2s-0.2,0.1-0.2,0.2
	c0,0.2-0.2,0.3-0.5,0.3C5,49.5,5,49.6,5,49.7c0,0.1-0.1,0.2-0.4,0.2S4.1,50,4.1,50.1c0,0.1-0.1,0.1-0.2-0.1c-0.1-0.2-0.2-0.2-0.2,0
	s0,0.2-0.2,0c-0.1-0.2-0.2-0.2-0.2,0S3.2,50.3,3,50.3s-0.3,0.1-0.3,0.2c0,0.1-0.1,0.2-0.2,0.2c-0.4-0.1-0.6,0.5-0.3,0.7
	c0.2,0.1,0.3,0.3,0.2,0.6s0,0.4,0.2,0.3c0.1,0,0.2,0,0.3,0.1c0,0.1,0,0.4,0,0.5c0,0.2,0.1,0.3,0.2,0.3c0.1,0,0.3,0.1,0.5,0.2
	c0.2,0.1,0.3,0.1,0.3,0s0.2-0.1,0.4-0.1c0.2,0,0.4-0.1,0.4-0.2c0.1-0.7,0.1-0.8,0.2-0.5c0.1,0.2,0.2,0.2,0.2,0
	c0.1-0.2,0.3-0.2,0.6-0.2c0.3,0,0.4,0,0.3,0c-0.3-0.2-0.2-0.4,0.1-0.3c0.2,0.1,0.3,0,0.4-0.2c0-0.2,0.2-0.3,0.3-0.3
	c0.1,0,0.5-0.2,0.7-0.4C7.7,51,8,50.8,8.1,50.9c0.1,0.1,0.1,0,0.1,0c-0.1-0.4,0-0.6,0.4-0.5c0.2,0,0.4,0,0.4-0.1s0.1-0.3,0.3-0.4
	c0.2-0.1,0.3-0.3,0.2-0.4c-0.1-0.1,0-0.2,0.2-0.2c0.8,0,1.1-0.1,1-0.2c-0.1-0.1,0-0.2,0.1-0.3s0.3-0.3,0.3-0.5
	c0.1-0.3,0.2-0.4,0.3-0.3c0.4,0.2,0.6,0.2,0.5-0.1c0-0.2-0.1-0.4-0.1-0.5s-0.1-0.2-0.2-0.2C11.5,47.2,11.3,47.1,11.1,47.1
	C11.3,46.9,11.2,46.9,11.1,47.1 M69.2,47c0,0.1,0,0.2,0,0.2c0,0.1-0.1,0.1-0.1,0.1c-0.1,0-0.2-0.1-0.2-0.2c0-0.4-0.6,0-0.6,0.4
	s0,0.4,0.3,0.4c0.2,0,0.3,0,0.3,0.1s0.1,0.1,0.2,0.1c0.1-0.1,0.2,0,0.2,0.2c0,0.1,0.1,0.3,0.3,0.3c0.4,0,0.4,0.3,0.1,0.4
	c-0.1,0.1,0,0.1,0.2,0s0.4,0,0.4,0.1s0.1,0.2,0.2,0.2s0.3,0.2,0.3,0.3c0.1,0.2,0.2,0.3,0.3,0.3c0.1,0,0.2,0.1,0.2,0.2
	c0,0.2,0.1,0.2,0.4,0.1c0.3-0.1,0.4,0,0.4,0.3c0,0.2,0.1,0.3,0.1,0.3c0.1,0,0.3,0.1,0.6,0.3c0.2,0.2,0.6,0.4,0.8,0.4
	c0.2,0,0.3,0.1,0.3,0.3c0,0.3,0.1,0.3,0.3,0.2c0.4-0.1,0.5,0.2,0.1,0.3c-0.1,0.1,0,0.1,0.2,0c0.5-0.1,1.1,0.3,1.1,0.7
	c0,0.2,0.1,0.3,0.4,0.3c0.2,0,0.4,0,0.4,0.1s0.1,0.1,0.3,0c0.2-0.1,0.4-0.2,0.5-0.2s0.2-0.2,0.2-0.5c0-0.2,0.1-0.4,0.3-0.5
	c0.1-0.1,0.2-0.2,0.2-0.4c0-0.1,0.1-0.3,0.2-0.5c0.3-0.3,0.3-0.5,0-0.6c-0.1-0.1-0.2-0.2-0.2-0.2c0.1-0.1-0.1-0.2-0.4-0.3
	S77,50,77,49.8s0-0.2-0.2,0c0,0.4-0.1,0.4-0.1,0.3s-0.1-0.2-0.3-0.1c-0.4,0.1-1-0.1-0.9-0.3c0-0.1-0.1-0.1-0.3-0.1
	c-0.2,0-0.3-0.1-0.3-0.2c0-0.3-0.2-0.3-0.6,0c-0.3,0.2-0.4,0.2-0.3,0c0.1-0.1,0-0.3-0.3-0.4c-0.2-0.1-0.3-0.2-0.3-0.2
	c0-0.1-0.1-0.1-0.4-0.1s-0.5-0.1-0.7-0.2c-0.1-0.2-0.2-0.2-0.2,0c0,0.1-0.1,0.2-0.1,0.1c-0.1-0.1-0.2-0.2-0.4-0.2
	c-0.1,0-0.2-0.1-0.2-0.2c0-0.1-0.1-0.2-0.2-0.2c-0.6,0-1.3-0.4-1-0.6c0.2-0.1,0.1-0.1-0.2-0.1c-0.7,0-0.9,0-0.8-0.2
	C69.3,47,69.3,46.9,69.2,47C69.2,46.9,69.2,46.9,69.2,47 M50,52.7c0,0.2-0.4,0.5-0.6,0.4c-0.1-0.1-0.1,0-0.1,0.2s0,0.3-0.1,0.3
	S49,53.7,49.1,54c0,0.2-0.1,0.6-0.3,0.7c-0.2,0.2-0.3,0.3-0.2,0.4c0,0-0.1,0.2-0.2,0.3c-0.2,0.2-0.3,0.2-0.1,0
	c0.1-0.2,0.1-0.2-0.1-0.1c-0.1,0.1-0.2,0.3-0.1,0.5l0.1,0.4h-7.7c-7.2,0-7.7,0-7.7-0.3s0-0.3-0.1,0c0,0.2-0.1,0.3-0.2,0.3
	c-0.1,0-0.1-0.1-0.1-0.1c0-0.1,0-0.3-0.2-0.5c-0.1-0.2-0.2-0.4-0.2-0.5s0.1,0,0.2,0.2c0.1,0.2,0.2,0.2,0.2,0.1
	c0-0.1-0.2-0.4-0.5-0.6c-0.3-0.2-0.4-0.3-0.2-0.3c0.1,0.1,0.2,0,0.2-0.1s-0.1-0.2-0.2-0.2c-0.3,0-0.8-0.7-0.8-1.1
	c0-0.2-0.1-0.5-0.3-0.6c-0.2-0.1,2.8-0.2,9.5-0.2C45.8,52.5,50,52.6,50,52.7 M31,64.6c-0.2,0-0.3,0.1-0.3,0.2S30.6,65,30.5,65
	s-0.1-0.1-0.1-0.2c0.1-0.1,0,0-0.2,0.2c-0.3,0.3-0.4,0.3-0.5,0.2c-0.2-0.2-0.2-0.2-0.1,0.1c0.1,0.2,0,0.3,0,0.3
	c-0.3,0-0.4,0-0.2,0.2c0.2,0.1,0.2,0.1-0.2,0.1c-0.3-0.1-0.4-0.1-0.3,0.1c0.1,0.1,0,0.5-0.1,0.7c-0.3,0.6-0.3,2,0,2.2
	c0.1,0.1,0.2,0.3,0.2,0.3c-0.1,0.5,0.1,0.9,0.3,0.8c0.1-0.1,0.2,0,0.2,0.1c0,0.7,0,0.7,10.5,0.7c5.5,0,9.9-0.1,9.9-0.1
	c0-0.1,0-0.2,0.1-0.2c0.1-0.1,0.2,0,0.2,0.1s0.1,0,0.3-0.2s0.3-0.5,0.2-0.5c0-0.1,0-0.1,0.1,0s0.3-0.1,0.5-0.3
	c0.3-0.5,0.5-1.3,0.2-1.5c-0.1-0.1-0.1-0.2,0-0.4c0.1-0.2,0.1-0.5,0.1-1.1c0-0.1-0.1-0.1-0.2,0.1c-0.1,0.2-0.2,0-0.3-0.4
	c-0.1-0.3-0.2-0.6-0.3-0.6s-0.2-0.1-0.2-0.3c0-0.2-0.1-0.3-0.3-0.3s-0.5-0.1-0.7-0.2c-0.3-0.1-0.3-0.1-0.2,0.1s0,0.2-0.2-0.1
	l-0.3-0.4H40C35.3,64.6,31.2,64.6,31,64.6 M30.4,73.3c-0.1,0.1-0.2,0.3-0.2,0.4c0,0.2,0,0.2-0.3,0c-0.2-0.1-0.2-0.2-0.2,0
	c0.1,0.2-0.8,1.2-1.1,1.2c-0.1,0-0.2,0.1-0.2,0.2s0.1,0.1,0.2,0.1c0.2-0.1,0.1-0.1,0,0.1c-0.3,0.3-0.2,2.3,0,2.2
	c0.1,0,0.2,0.1,0.1,0.4c0,0.2,0,0.3,0.1,0.3c0.2-0.2,0.6,0.4,0.4,0.6c-0.1,0.1,0,0.1,0.1,0.1c0.1-0.1,0.2,0,0.3,0.1
	c0.2,0.4,20,0.5,20.1,0.1c0-0.1,0.1-0.2,0.2-0.1c0.1,0.1,0.9-0.7,0.9-0.9c0,0,0.1-0.2,0.3-0.3c0.3-0.2,0.4-2.1,0.2-2
	c-0.1,0-0.1-0.1,0-0.4c0.2-0.6,0.2-0.6-0.1-0.5s-0.5-0.3-0.3-0.6c0.1-0.1,0-0.2,0-0.2c-0.3,0.1-0.6,0-0.5-0.2c0.1-0.1,0-0.2-0.2-0.2
	s-0.5-0.1-0.6-0.3c-0.2-0.1-0.2-0.2-0.1-0.1c0.1,0.1,0.2,0.1,0.1,0C49.4,73.1,49,73,49,73.2c0,0.1-1.7,0.1-3.8,0.1
	C34.2,73.1,30.5,73.1,30.4,73.3 M34.5,81.7c0.1,0.1,0,0.2,0,0.2c-0.2,0-0.2,1.3,0,1.5c0.1,0.1,0.1,0,0-0.1c-0.1-0.2-0.1-0.2,0.1,0
	c0.2,0.2,0.2,0.4,0.2,0.9c-0.1,0.6,0,0.7,0.2,0.6s0.3,0,0.3,0.3s0,0.3,0.2,0.1c0.2-0.3,0.2-0.2,0.2,0.7c0,0.1,0.1,0.3,0.3,0.3
	c0.1,0,0.2,0.1,0.2,0.2s0.1,0.2,0.3,0.2s0.3,0.1,0.3,0.2s0.1,0.1,0.3,0.1c0.1-0.1,0.2,0,0.2,0c0,0.1,0,0.2,0.2,0.2
	c0.1,0.1,0.2,0.2,0.2,0.3c-0.1,0.1,0,0.1,0.2,0.1s0.4,0.1,0.6,0.2c0.4,0.3,1.2,0.4,1,0.2c-0.1-0.1,0.1-0.1,0.3,0
	c0.5,0.2,1.3,0.1,1.6,0c0.1-0.1,0.2-0.1,0.1,0.1c-0.1,0.1,0,0.2,0.1,0.2s0.3-0.1,0.3-0.2c0.1-0.1,0.1-0.1,0.1,0c0,0.2,0.1,0.2,0.2,0
	c0.1-0.2,0.4-0.3,0.7-0.3s0.6-0.1,0.7-0.3c0.2-0.2,0.2-0.2,0-0.1s-0.2,0.1-0.1,0c0.1-0.1,0.3-0.2,0.4-0.1c0.2,0,0.3,0,0.2-0.2
	s0-0.2,0.1-0.2c0.1,0.1,0.3,0,0.4-0.1c0.2-0.2,0.2-0.2-0.1-0.2c-0.2,0.1-0.2,0,0.1-0.1c0.2-0.1,0.4-0.3,0.4-0.3
	c0-0.1,0.1-0.1,0.3-0.1s0.3-0.1,0.3-0.3c0-0.2,0.1-0.5,0.3-0.7s0.3-0.4,0.2-0.5s0.1-0.3,0.2-0.5c0.2-0.2,0.3-0.4,0.2-0.6
	S46.4,83,46.4,83c0.2-0.7,0.2-0.8-0.1-0.7c-0.1,0.1-0.2,0-0.2-0.1S44,82,40.3,82C36.5,81.5,34.4,81.6,34.5,81.7"/>
</svg>
