<?xml version="1.0" encoding="utf-8"?>
<!-- Generator: Adobe Illustrator 25.2.3, SVG Export Plug-In . SVG Version: 6.00 Build 0)  -->
<svg version="1.1" id="Layer_1" xmlns="http://www.w3.org/2000/svg" xmlns:xlink="http://www.w3.org/1999/xlink" x="0px" y="0px"
	 viewBox="0 0 179 194.9" style="enable-background:new 0 0 179 194.9;" xml:space="preserve">
<style type="text/css">
	.st0{fill:#F8F9FA;}
</style>
<g>
	<path class="st0" d="M84.4,193.6c-3.6-1.6-7.4-6.1-7.4-8.7c0-1.8,1-1.9,12.5-1.9H102l-1.1,2.7c-1.4,3.9-3.8,6.3-7.6,7.9
		C89.4,195.3,88.4,195.3,84.4,193.6z"/>
	<path class="st0" d="M65.7,174.2c-2.1-2.2-2.2-7.5-0.3-9.1c0.9-0.8,8.1-1.1,23.7-0.9l22.4,0.3l1.3,2.9c1.3,2.5,1.2,3.1-0.5,5.5
		l-2,2.6l-21.5,0.3C69,176,67.2,175.9,65.7,174.2z"/>
	<path class="st0" d="M65.7,155.2c-2.1-2.2-2.2-7.5-0.3-9.1c0.9-0.8,8.1-1.1,23.7-0.9l22.4,0.3l1.3,2.9c1.3,2.5,1.2,3.1-0.5,5.5
		l-2,2.6l-21.5,0.3C69,157,67.2,156.9,65.7,155.2z"/>
	<path class="st0" d="M62.7,133.3c-1.3-2.1-3.1-5.2-4-7c-0.9-1.7-3.9-6-6.6-9.5C43.1,105,40,96.6,40,84c0-42.5,50.3-64.8,82-36.3
		c15.6,14,20.5,34.6,13,54.6c-1.1,2.8-4.7,8.8-8.1,13.2c-3.3,4.4-7.2,10.3-8.6,13c-4.6,9.1-2.6,8.5-29.4,8.5H65L62.7,133.3z
		 M109.7,120.3l2.5-4.3h-23H66.1l2.6,4.5l2.5,4.5l18-0.2l18-0.3L109.7,120.3z M123.7,99.2c3.4-7.3,4.2-19.1,1.9-26.4
		c-1.8-5.6-7.4-14.8-9-14.8c-0.6,0-1.9,0.9-3.1,2c-2,1.9-2.3,1.9-3.5,0.5c-1.1-1.3-0.9-1.9,0.9-3.9c2.4-2.6,2.1-3.1-3.8-6.1
		c-12.3-6.2-26.5-5.8-37.8,1.3l-4.2,2.7l2.1,2.2c1.8,1.9,1.9,2.5,0.8,3.8c-1.2,1.4-1.5,1.4-3.5-0.5c-1.2-1.1-2.4-2-2.8-2
		c-0.4,0-2.3,2.4-4.1,5.3c-4.7,7.3-7,16.4-6.1,24.3c0.9,8.7,8.5,24.2,8.5,17.5c0-1.6,0.6-2.1,2.9-2.1c3.4,0,3.3,0.1,5.2-21.5
		c0.6-7.7,1.6-15,2-16.2C70.9,63,71.2,63,88.5,63s17.6,0,18.4,2.3c0.7,1.7,4.2,33.1,4.1,37c0,0.4,1.4,0.7,3,0.7c2.7,0,3,0.3,3,3.3
		l0.1,3.2l2.1-2.5C120.3,105.6,122.4,102.1,123.7,99.2z M104.9,101.8c0-0.7-0.8-8.3-1.7-16.8l-1.7-15.5h-13h-13l-1.2,12
		c-0.6,6.6-1.4,14.1-1.7,16.8l-0.5,4.7h16.4C101.1,103,105,102.7,104.9,101.8L104.9,101.8z"/>
	<path class="st0" d="M54,78c0-1.8,0.7-2,5.5-2s5.5,0.2,5.5,2s-0.7,2-5.5,2S54,79.8,54,78z"/>
	<path class="st0" d="M114,78c0-1.7,0.7-2,5-2s5,0.3,5,2s-0.7,2-5,2S114,79.7,114,78z"/>
	<path class="st0" d="M87,53c0-5.3,0.2-6,2-6s2,0.7,2,6s-0.2,6-2,6S87,58.3,87,53z"/>
	<path class="st0" d="M95.7,94.8c-0.3-2.9-0.9-8.8-1.3-13c-0.7-7.5-0.6-7.8,1.5-7.8c1.1,0,2.1,0.6,2.1,1.3c0,1.6,1.9,18.5,2.5,22
		c0.4,2.3,0.1,2.7-1.9,2.7C96.5,100,96.2,99.4,95.7,94.8z"/>
	<path class="st0" d="M6,116c-0.7-1.2-0.8-2.6-0.3-3c1.2-1.1,16.5-7.1,17-6.6c0.2,0.2-2.7,2.5-6.4,5.1c-3.7,2.7-7.3,5.2-8,5.7
		C7.5,117.8,6.8,117.4,6,116z"/>
	<path class="st0" d="M162.8,112.3c-4.3-3.1-7.6-5.8-7.4-6c0.5-0.6,17,6.4,17.3,7.3c0.2,0.6-0.2,1.7-0.9,2.6
		C170.6,117.7,169.7,117.3,162.8,112.3L162.8,112.3z"/>
	<path class="st0" d="M0,76.2c0-2.3,0-2.3,8.3-1.6c8.5,0.7,13.8,2.3,8.2,2.4c-1.6,0.1-6,0.4-9.7,0.9C0.1,78.6,0,78.6,0,76.2z"/>
	<path class="st0" d="M168.1,77.7c-11-1.1-10.3-2.2,2.2-3.2c8.3-0.6,8.7-0.6,8.7,1.4c0,1.1-0.3,2.1-0.7,2.3
		C177.8,78.4,173.3,78.2,168.1,77.7z"/>
	<path class="st0" d="M19.8,46.8c-5.4-2.2-9.8-4.3-9.8-4.7c0-0.3,0.7-1.4,1.4-2.4c1.3-1.7,1.9-1.4,9.8,4.3c8.9,6.6,9.4,7,8.7,7
		C29.7,50.9,25.1,49.1,19.8,46.8z"/>
	<path class="st0" d="M149.5,50.2c0.6-0.5,4.5-3.5,8.8-6.6c7.4-5.4,8-5.6,9.3-3.9c0.7,1,1.4,2.1,1.4,2.4c0,0.4-4.6,2.5-10.2,4.8
		C153.2,49.2,149,50.6,149.5,50.2z"/>
	<path class="st0" d="M42.1,18.9c-5.1-6.5-6-8.3-5.1-9.5c2.4-2.7,3.7-1.3,7.7,8.1c2.3,5.2,4,9.5,3.9,9.5
		C48.4,27,45.5,23.4,42.1,18.9z"/>
	<path class="st0" d="M130.9,21.8c6.7-15.5,6.3-14.9,9.4-12.5c1.5,1.1,1.1,1.8-3.4,7.7C129.5,26.5,128.5,27.3,130.9,21.8z"/>
	<path class="st0" d="M88.7,18C88.1,16.5,86,3.2,86,1.1C86,0.5,87.4,0,89,0c2.6,0,3,0.3,2.9,2.8C91.8,7.7,89.3,19.5,88.7,18z"/>
</g>
</svg>
