<?xml version="1.0" encoding="utf-8"?>
<!-- Generator: Adobe Illustrator 25.0.0, SVG Export Plug-In . SVG Version: 6.00 Build 0)  -->
<svg version="1.1" id="Layer_1" xmlns="http://www.w3.org/2000/svg" xmlns:xlink="http://www.w3.org/1999/xlink" x="0px" y="0px"
	 viewBox="0 0 420.2 168.2" style="enable-background:new 0 0 420.2 168.2;" xml:space="preserve">
<style type="text/css">
	.st0{fill-rule:evenodd;clip-rule:evenodd;fill:#F8F9FA;}
</style>
<path class="st0" d="M0.1,0.1v11.5h81.8V0.1H0.1z M93.5,0.1v11.5H210c0,0-11.9-11.5-27.7-11.5H93.5z M232.8,0.1v11.5h70.5l-4.2-11.5
	H232.8z M353.8,0.1l-4.2,11.5h69.8V0.1H353.8z M0.1,22.5V34h81.8V22.5H0.1z M93.5,22.5V34h130c0,0-1.5-8.8-4.2-11.5H93.5z
	 M232.8,22.5V34H311l-3.9-11.5H232.8z M345.5,22.5L341.6,34h77.9V22.5H345.5z M23.6,44.8v11.5H59V44.8H23.6z M117,44.8v11.5h35.4
	V44.8H117z M186.8,44.8v11.5h35.4c0,0,2.2-6.1,2.2-11.5H186.8z M256.3,44.8v11.5h62.8l-4.2-11.5H256.3z M337.7,44.8l-4.2,11.5h63.1
	V44.8H337.7z M23.6,67.2v11.5H59V67.2H23.6z M117,67.2v11.5h90.4c0,0,7.6-5.9,10-11.5H117z M256.3,67.2v11.5h35.4v-6.4l2.2,6.4h64.9
	l2.4-6.4v6.4h35.4V67.2h-66.5l-3.5,9.7l-3.5-9.7H256.3z M23.6,89.6V101H59V89.6H23.6z M117,89.6V101h100.4c-2.4-5.6-10-11.5-10-11.5
	H117z M256.3,89.6V101h35.4V89.6H256.3z M298.1,89.6l4.3,11.5h48.6l4.1-11.5H298.1z M361.2,89.6V101h35.4V89.6H361.2z M23.6,111.9
	v11.5H59v-11.5H23.6z M117,111.9v11.5h35.4v-11.5H117z M186.8,111.9v11.5h37.7c0-5.4-2.2-11.5-2.2-11.5H186.8z M256.3,111.9v11.5
	h35.4v-11.5H256.3z M306.2,111.9l4.1,11.5h32.6l4.2-11.5H306.2z M361.2,111.9v11.5h35.4v-11.5H361.2z M0.8,134.3v11.5h81.8v-11.5
	L0.8,134.3z M93.5,134.3v11.5h125.9c2.6-2.6,4.2-11.5,4.2-11.5L93.5,134.3z M233.5,134.3v11.5h58.3v-11.5L233.5,134.3z M314.2,134.3
	l4.3,11.5h16.6l4-11.5L314.2,134.3z M361.2,134.3v11.5h58.9v-11.5L361.2,134.3z M0.8,156.6v11.5h81.8v-11.5H0.8z M93.5,156.6v11.5
	h88.8c15.8,0,27.7-11.5,27.7-11.5H93.5z M233.5,156.6v11.5h58.3v-11.5H233.5z M322.3,156.6l4.1,11.5l0.7,0l4.2-11.5H322.3z
	 M361.2,156.6v11.5h58.9v-11.5H361.2z"/>
</svg>
