<?xml version="1.0" encoding="utf-8"?>
<!-- Generator: Adobe Illustrator 25.4.1, SVG Export Plug-In . SVG Version: 6.00 Build 0)  -->
<svg version="1.1" id="Layer_1" xmlns="http://www.w3.org/2000/svg" xmlns:xlink="http://www.w3.org/1999/xlink" x="0px" y="0px"
	 viewBox="0 0 750 207.8" style="enable-background:new 0 0 750 207.8;" xml:space="preserve">
<style type="text/css">
	.st0{fill:#F8F9FA;}
</style>
<g>
	<path class="st0" d="M517.6,139.9h-14.1c-0.6,0-1.1-0.4-1.1-1c0-0.1,0-0.2,0-0.3l8.1-44.8c0.2-0.6-0.2-1.2-0.7-1.4
		c-0.6-0.2-1.2,0.2-1.4,0.7l-19.8,46c-0.2,0.4-0.6,0.7-1.1,0.7h-17.4c-0.6,0-1.1-0.5-1.1-1.1l-3.5-46c0-0.6-0.4-1.1-1-1.2
		c-0.6,0-1.1,0.4-1.2,1.1l-8,46.2c-0.1,0.5-0.5,0.9-1.1,0.9h-14.1c-0.6,0-1.1-0.5-1.1-1.2c0-0.1,0-0.1,0-0.2l12.4-69.8
		c0.1-0.5,0.5-0.9,1.1-0.9h24.6c0.6,0,1.1,0.5,1.1,1.1l3.4,48.9c0.1,0.6,0.6,1.1,1.2,1c0.4,0,0.7-0.3,0.9-0.6l20-49.5
		c0.2-0.4,0.6-0.7,1.1-0.7h25.2c0.6,0,1.1,0.4,1.1,1c0,0.1,0,0.2,0,0.3L518.7,139C518.6,139.5,518.1,139.9,517.6,139.9"/>
	<path class="st0" d="M610.3,97.6c0,25.7-17,43.7-41.6,43.7c-21.3,0-33.1-13.6-33.1-31.2c0-25.8,17-43.7,41.6-43.7
		C598.5,66.4,610.3,80,610.3,97.6 M593,98.1c0-11.6-5.9-19.5-16.7-19.5c-15.9,0-23.3,17-23.3,31.2c0,11.5,5.8,19.5,16.7,19.5
		C585.5,129.3,593,112.3,593,98.1"/>
	<path class="st0" d="M631.5,139l-12.1-69.8c-0.1-0.6,0.2-1.1,0.8-1.3c0.1,0,0.2,0,0.3,0h15.5c0.6,0,1,0.4,1.1,1l7.2,54.8
		c-0.1,0.6,0.3,1.1,0.9,1.2c0.6,0.1,1.1-0.3,1.2-0.9l27.1-55.4c0.2-0.4,0.6-0.6,1-0.6h15c0.6,0,1.1,0.4,1.1,1c0,0.2,0,0.5-0.2,0.7
		l-37,69.8c-0.2,0.4-0.6,0.6-1,0.6h-19.8C632.1,139.9,631.6,139.5,631.5,139"/>
	<path class="st0" d="M710.3,97.4h31.1c0.6,0,1.1,0.4,1.1,1c0,0.1,0,0.2,0,0.3l-1.9,10.5c-0.1,0.5-0.5,0.9-1.1,0.9h-31.9
		c-0.5,0-1,0.4-1.1,0.9l-2.5,14.7c-0.1,0.6,0.2,1.1,0.8,1.3c0.1,0,0.2,0,0.3,0h34.4c0.6,0,1.1,0.4,1.1,1c0,0.1,0,0.2,0,0.3
		l-1.9,10.7c-0.1,0.5-0.5,0.9-1.1,0.9h-51.1c-0.6,0-1.1-0.4-1.1-1c0-0.1,0-0.2,0-0.3l12.3-69.8c0.1-0.5,0.5-0.9,1.1-0.9h50.1
		c0.6,0,1.1,0.4,1.1,1c0,0.1,0,0.2,0,0.3l-1.9,10.5c-0.1,0.5-0.5,0.9-1.1,0.9h-34.2c-0.5,0-1,0.4-1.1,0.9l-2.6,14.6
		c-0.1,0.6,0.2,1.1,0.8,1.3C710.1,97.4,710.2,97.4,710.3,97.4"/>
	<path class="st0" d="M219.6,139.9H173c-0.6,0-1.1-0.4-1.1-1c0-0.1,0-0.2,0-0.3l12.3-69.8c0.1-0.5,0.5-0.9,1.1-0.9h14
		c0.6,0,1.1,0.4,1.1,1c0,0.1,0,0.2,0,0.3l-9.8,55.6c-0.1,0.6,0.2,1.1,0.8,1.3c0.1,0,0.2,0,0.3,0h34c0.6,0,1.1,0.4,1.1,1
		c0,0.2,0,0.5-0.2,0.7l-6.1,11.6C220.4,139.7,220,139.9,219.6,139.9"/>
	<path class="st0" d="M353.1,139.9h-46.5c-0.6,0-1.1-0.4-1.1-1c0-0.1,0-0.2,0-0.3l12.3-69.8c0.1-0.5,0.5-0.9,1.1-0.9h14
		c0.6,0,1.1,0.4,1.1,1c0,0.1,0,0.2,0,0.3l-9.9,55.6c-0.1,0.6,0.2,1.1,0.8,1.3c0.1,0,0.2,0,0.3,0h34c0.6,0,1.1,0.4,1.1,1
		c0,0.2,0,0.5-0.2,0.7l-6.1,11.6C353.8,139.7,353.5,139.9,353.1,139.9"/>
	<path class="st0" d="M420.5,68.8c-0.1-0.5-0.5-0.9-1.1-0.9h-19.8c-0.4,0-0.8,0.2-1,0.6l-37,69.8c-0.3,0.5-0.2,1.2,0.3,1.5
		c0.2,0.1,0.4,0.2,0.7,0.2h15c0.4,0,0.8-0.2,1-0.6l2.3-4.7l14.6-29.4v-0.1l2.1-4.4l1.5-3l5.9-11.9c0.1-0.6,0.6-1,1.2-0.9
		c0.6,0.1,1,0.6,0.9,1.2l2.8,19.2c0.1,0.6-0.3,1.2-0.9,1.3c0,0-0.1,0-0.1,0h-8.8c-0.6,0-1.1,0.3-1.4,0.9l-4.8,9.7
		c-0.4,0.8-0.1,1.7,0.7,2.1c0.2,0.1,0.5,0.2,0.7,0.2h16c0.5,0,1,0.4,1.1,0.9l2.7,18.4c0.1,0.5,0.5,1,1.1,1h15.5c0.6,0,1.1-0.5,1.1-1
		c0-0.1,0-0.2,0-0.3L420.5,68.8z"/>
	<path class="st0" d="M286.9,68.8c-0.1-0.5-0.5-0.9-1.1-0.9H266c-0.4,0-0.8,0.2-1,0.6l-37,69.8c-0.3,0.5-0.1,1.2,0.5,1.5
		c0.2,0.1,0.3,0.1,0.5,0.1h15c0.4,0,0.8-0.2,1-0.6l1.1-2.1l15.9-32v-0.1l1.5-3.1l0.8-1.7l7.3-14.4c0.1-0.6,0.6-1,1.2-0.9
		c0.6,0.1,1,0.6,0.9,1.2l2.8,19.2c0.1,0.6-0.3,1.2-0.9,1.3c0,0-0.1,0-0.1,0h-8.8c-0.6,0-1.1,0.3-1.4,0.9l-4.8,9.7
		c-0.4,0.8-0.1,1.7,0.7,2.1c0.2,0.1,0.5,0.2,0.7,0.2h15.9c0.5,0,1,0.4,1.1,0.9l2.6,18.4c0.1,0.5,0.5,0.9,1.1,1H298
		c0.6,0,1.1-0.5,1.1-1c0-0.1,0-0.2,0-0.3L286.9,68.8z"/>
	<path class="st0" d="M160.2,28.9c-55.8,0-43.5,36.8-43.5,36.8c-7.5-2.4-102.5-33.8-116-38.2c-0.2-0.1-0.5,0-0.6,0.3
		c-0.1,0.2,0,0.3,0.1,0.4c1.4,1.6,4.2,4.7,8.6,9.6c0.3,0.4,0.8,0.7,1.2,0.8l1.4,0.5L90.1,65c0.4,0.2,0.8,0.5,1.1,0.9l4.3,7.3
		c0,0,0,0.1,0,0.1c0,0-0.1,0-0.1,0L18.5,48c-0.1,0-0.2,0-0.3,0.1c0,0.1,0,0.2,0,0.2c1.8,2,3.7,4.1,5.7,6.2c0.5,0.6,1.2,1,2,1.3
		l73,23.9c0.4,0.1,0.8,0.4,1.1,0.8l4.3,7.3c0,0,0,0.1,0,0.1c0,0-0.1,0-0.1,0L34.2,65.1c-0.1,0-0.2,0-0.2,0.1c0,0.1,0,0.1,0,0.2
		c2.2,2.3,4.4,4.6,6.6,6.9c0.3,0.3,0.6,0.5,1,0.6l65.8,21.6c0.6,0.2,1.1,0.6,1.4,1.1l4.2,7.1c0,0,0,0.1,0,0.1c0,0,0,0-0.1,0
		L51.6,82.7c-0.2,0-0.3,0-0.4,0.2c0,0.1,0,0.2,0.1,0.3c13.6,13.6,25.8,24.5,30.4,24.9l-43.9,98.7c-0.1,0.4,0,0.8,0.4,0.9
		c0.2,0.1,0.5,0.1,0.7-0.1c19.8-16.2,33.7-59.4,54.8-70.9c30.5-16.6,42.2-26.4,49.7-43c8.8-19.6,20.1-52.4,21.8-53.7
		c12-9.3,33.5-30.1,42.6-39c0.2-0.2,0.3-0.6,0-0.9c-0.2-0.2-0.5-0.3-0.8-0.1C194.4,8.2,162,28.9,160.2,28.9"/>
</g>
</svg>
