<?xml version="1.0" encoding="utf-8"?>
<!-- Generator: Adobe Illustrator 24.1.0, SVG Export Plug-In . SVG Version: 6.00 Build 0)  -->
<svg version="1.1" id="svg" xmlns="http://www.w3.org/2000/svg" xmlns:xlink="http://www.w3.org/1999/xlink" x="0px" y="0px"
	 viewBox="0 0 378.9 88" style="enable-background:new 0 0 378.9 88;" xml:space="preserve">
<style type="text/css">
	.st0{fill-rule:evenodd;clip-rule:evenodd;fill:#f8f9fa;}
</style>
<g id="svgg">
	<path id="path0" class="st0" d="M75.3,0.5c0,0.1-0.1,1.1,0,2.1l0,1.9l1.8,0c2.7,0.1,2.5,0.2,2.5-2.1c0-1.7,0-2-0.3-2.1
		C78.8,0.2,75.4,0.3,75.3,0.5 M79.8,12.2v1.4h1.4h1.4v-1.4v-1.4h-1.4h-1.4V12.2 M22.6,13.6c-0.3,0.6-0.5,1.1-0.5,1.1
		c0,0-0.3,0.8-0.7,1.6c-0.4,0.9-0.9,1.9-1.1,2.4c-0.2,0.5-0.6,1.3-0.8,1.8c-0.2,0.5-0.6,1.4-0.8,1.8c-0.2,0.5-0.6,1.3-0.8,1.8
		c-0.3,0.5-0.6,1.4-0.8,1.8c-0.2,0.5-0.6,1.3-0.8,1.8s-0.6,1.4-0.8,1.8c-0.2,0.5-0.6,1.3-0.8,1.8c-0.2,0.6-0.6,1.4-0.8,1.8
		c-0.2,0.5-0.6,1.4-1,2.1c-0.3,0.7-1.3,2.8-2.1,4.6c-1.8,4-2,4.6-2.6,5.8c-0.2,0.5-0.6,1.4-0.8,1.8c-0.2,0.5-0.6,1.3-0.8,1.8
		c-0.3,0.5-0.6,1.4-0.8,1.8c-0.5,1.2-1.2,2.6-2,4.3c-0.4,0.8-0.7,1.5-0.7,1.5c0,0-0.3,0.8-0.7,1.6c-1.4,3-1.8,3.8-1.8,4
		c0,0.3,13,0.1,13.2-0.2c0.1-0.3,0.3-0.5,2.2-4.9c1.1-2.6,1.5-3.3,2.2-5c0.3-0.6,0.6-1.4,0.8-1.8c0.2-0.5,0.6-1.3,0.8-1.8
		c1.3-2.9,1.3-2.8,2.6-5.8c0.3-0.8,0.8-1.9,1.1-2.4c0.2-0.5,0.6-1.4,0.8-1.8s0.6-1.3,0.8-1.8c0.3-0.5,0.6-1.4,0.8-1.8
		c0.2-0.5,0.6-1.3,0.8-1.8c1-2.2,1.6-3.6,2.8-6.1c0.9-1.9,0.7-2.1,2.4,1.8c0.2,0.5,0.6,1.3,0.8,1.8s0.6,1.4,0.8,1.8
		c0.2,0.5,0.6,1.4,0.9,2c0.3,0.6,0.7,1.6,0.9,2c0.2,0.5,0.4,0.9,0.5,0.9c0.1,0,0.2,0,2.5-5.2c1.1-2.4,2.3-5,2.6-5.7
		c1.7-3.8,1.6-3.1,0.9-4.8c-0.8-1.7-1.4-3.1-1.9-4.1c-0.6-1.4-1.2-2.6-1.7-3.7c-0.3-0.6-0.6-1.3-0.6-1.5l-0.1-0.4h-7.1h-7.1
		L22.6,13.6 M53,13.4c-0.5,1.1-6.6,14.5-7.4,16.4c-0.3,0.7-0.7,1.6-1,2.1c-0.2,0.5-0.6,1.3-0.8,1.8c-0.7,1.5-1.3,2.8-1.7,3.7
		c-0.2,0.5-0.6,1.3-0.8,1.8c-0.3,0.5-0.6,1.4-0.8,1.8c-0.2,0.5-0.6,1.3-0.8,1.8s-0.6,1.4-0.8,1.8c-0.2,0.5-0.6,1.3-0.8,1.8
		c-0.2,0.5-0.6,1.4-0.8,1.8c-0.2,0.5-0.7,1.5-1.1,2.4c-0.4,0.9-0.7,1.6-0.7,1.6c0,0-0.4,0.8-0.8,1.8c-0.5,1-0.8,1.8-0.8,1.8
		c0,0-0.3,0.8-0.7,1.6c-0.7,1.5-1,2.1-1.9,4.2c-0.2,0.5-0.4,0.9-0.4,1c0,0.1,2.9,0.1,6.5,0.1h6.6l0.6-1.2c0.3-0.7,0.7-1.6,0.9-2
		c0.2-0.5,0.6-1.3,0.8-1.8c0.3-0.6,0.6-1.4,0.8-1.8s0.5-1.2,0.8-1.7c0.2-0.5,0.7-1.5,1.1-2.4c0.7-1.5,0.9-2,1.8-4.1
		c0.3-0.5,0.6-1.4,0.8-1.8c0.2-0.5,0.6-1.3,0.8-1.8s0.6-1.4,0.8-1.8c0.2-0.5,0.6-1.3,0.8-1.8c0.9-2,1.2-2.5,1.8-4.1
		c0.7-1.5,0.9-2,1.8-4.1c0.3-0.6,0.6-1.4,0.8-1.8c2.4-5.4,2.1-5.1,3.2-2.7c0.4,1,1,2.2,1.3,2.8c0.5,1.1,1.4,3,2,4.4
		c0.2,0.5,0.6,1.3,0.8,1.8s0.6,1.4,0.8,1.8c0.2,0.5,0.6,1.3,0.8,1.8c0.2,0.5,0.6,1.4,0.8,1.8c0.2,0.5,0.6,1.4,1,2.1
		c0.3,0.7,1.3,2.8,2.2,4.8c0.9,1.9,1.7,3.8,1.9,4.2c0.2,0.4,1.2,2.7,2.3,5.1l2,4.4l6.6,0c3.6,0,6.6,0,6.6-0.1c0-0.1-0.1-0.4-0.3-0.8
		c-0.2-0.4-0.5-1-0.7-1.5s-0.6-1.4-1-2.1c-0.7-1.5-1.5-3.2-1.8-3.9c-0.1-0.3-0.6-1.4-1.2-2.5c-0.5-1.1-0.9-2-0.9-2s-0.4-1-1-2.2
		s-1-2.1-1-2.2S82.4,45,82,44.1c-0.4-0.9-0.9-1.9-1.1-2.4c-0.2-0.5-0.6-1.3-0.8-1.8s-0.6-1.4-0.8-1.8c-0.2-0.5-0.6-1.4-1-2.1
		c-0.9-1.8-1.5-3.1-1.9-4.1c-0.2-0.5-0.6-1.3-0.8-1.8s-0.6-1.4-0.8-1.8c-0.2-0.5-0.6-1.4-1-2.1c-0.7-1.5-1.5-3.2-1.8-3.9
		c-0.1-0.3-0.6-1.4-1.2-2.5c-0.5-1.1-0.9-2-0.9-2c0,0-0.4-1-1-2.1c-0.5-1.1-1.1-2.3-1.2-2.6l-0.2-0.5h-7.1h-7.1L53,13.4 M152.2,24.8
		c-5.2,0.5-10.4,3.3-13,6.9c-0.3,0.5-0.7,0.9-0.7,0.9c-0.2,0.2-0.5,0.8-1.3,2.4c-0.7,1.5-1,2.2-1.5,4.2c-0.7,2.4-0.6,8,0.1,10.6
		c0.7,2.4,0.6,2.2,1.3,3.8c2.1,4.6,8.5,9.8,12,9.8c0.2,0,0.4,0.1,0.5,0.1c0.2,0.2,0.6,0.2,3.3,0.5c5.5,0.6,10.5-1.2,14-4.9l1.3-1.4
		l-0.4-0.3c-0.8-0.7-1.1-0.9-2.3-1.8c-0.7-0.5-1.8-1.4-2.6-1.9l-1.3-1l-0.8,0.9c-4.5,5-12.8,3.5-15.9-2.8c-3.4-7.1-0.7-16,5.6-18.2
		c1.7-0.6,2.1-0.7,3.9-0.6c2.7,0.1,4,0.6,5.8,2c1.1,0.9,1,0.9,2,0.1c0.5-0.4,1-0.9,1.2-1c0.2-0.2,0.8-0.6,1.2-1
		c0.4-0.4,1.2-1,1.6-1.4c1-0.9,1-0.8,0.1-1.8c-1.4-1.4-3.1-2.6-4.8-3.2c-0.5-0.2-1-0.4-1.2-0.4C158.9,24.9,154.8,24.5,152.2,24.8
		 M220.5,24.8c-5.6,0.6-10.4,3.3-13.5,7.5c-1.4,2-2.6,4.6-3,6.7c-1.9,9,0.8,17.2,7.2,21.7c1.4,1,3.6,2,5.2,2.5c2.7,0.8,3.9,1,6.8,1
		c3,0,4.1-0.2,6.8-1c5.4-1.6,10-6,11.7-11.3c0.7-2,0.8-2.5,1-4.3c1.2-8.2-2-15.9-8.3-20c-0.6-0.4-1.2-0.7-1.2-0.7
		c0,0-0.5-0.2-1.1-0.5c-0.6-0.3-1.4-0.6-1.7-0.7c-0.4-0.1-0.8-0.3-1-0.3C228,24.9,223.1,24.5,220.5,24.8 M111,25.9
		c-0.1,0.2-0.4,0.9-0.7,1.6c-0.3,0.7-0.6,1.4-0.7,1.5c-0.1,0.1-0.1,0.3-0.1,0.4s-0.2,0.6-0.4,1.2c-0.2,0.5-0.5,1.2-0.7,1.5
		c-0.1,0.3-0.3,0.8-0.4,1c-0.1,0.2-0.2,0.6-0.3,0.8c-0.1,0.2-0.3,0.8-0.6,1.3c-0.2,0.5-0.4,1-0.4,1.1s-0.1,0.4-0.3,0.8
		c-0.2,0.4-0.7,1.6-1.1,2.6c-0.4,1.1-0.9,2-0.9,2.1c-0.1,0.1-0.1,0.3-0.1,0.4c0,0.1-0.2,0.7-0.5,1.3c-0.3,0.6-0.5,1.1-0.5,1.2
		c0,0.1-0.2,0.6-0.5,1.2c-0.3,0.6-0.5,1.1-0.5,1.2c0,0-0.2,0.5-0.4,1c-0.2,0.5-0.4,1-0.4,1c0,0-0.1,0.4-0.3,0.8
		c-0.2,0.4-0.6,1.4-1,2.4c-0.4,0.9-0.8,2-1,2.4c-0.2,0.4-0.3,0.7-0.3,0.8c0,0-0.2,0.5-0.4,1c-0.2,0.5-0.4,1-0.4,1c0,0-0.2,0.5-0.4,1
		s-0.4,1-0.4,1c0,0.1-0.3,0.7-0.6,1.4c-0.3,0.7-0.6,1.4-0.6,1.5c0,0.1-0.1,0.3-0.1,0.4c-0.1,0.1-0.2,0.3-0.3,0.5l-0.1,0.4h4.3h4.3
		l0.2-0.5c0.1-0.3,0.3-0.8,0.4-1c0.1-0.3,0.3-0.8,0.4-1.1c0.1-0.3,0.3-0.8,0.4-1.1s0.3-0.8,0.4-1.1c0.3-0.9,0.4-1.2,0.7-1.9
		c0.2-0.3,0.3-0.7,0.3-0.9c0-0.5,0.6-0.6,7.5-0.6c7,0,7.5,0,7.5,0.6c0,0.2,0.1,0.4,0.1,0.5c0.1,0.1,0.3,0.5,0.4,1
		c0.2,0.5,0.4,1,0.4,1.2c0.1,0.2,0.5,1.1,0.8,2.1c0.4,1,0.8,2,0.9,2.3l0.2,0.5h4.4c2.4,0,4.4,0,4.4-0.1c0-0.1-0.1-0.4-0.3-0.8
		c-0.2-0.4-0.6-1.4-1-2.4c-0.4-0.9-0.8-2-1-2.4c-0.2-0.4-0.3-0.7-0.3-0.8c0,0-0.2-0.5-0.4-1.1c-0.2-0.5-0.5-1.1-0.6-1.3
		s-0.3-0.8-0.6-1.3c-0.2-0.5-0.4-1.1-0.4-1.2c0-0.1-0.1-0.3-0.1-0.4c-0.1-0.1-0.4-0.8-0.7-1.5c-0.3-0.7-0.7-1.7-0.9-2.1
		c-0.2-0.4-0.4-1-0.6-1.3c-0.1-0.3-0.3-0.8-0.4-1c-0.1-0.2-0.2-0.6-0.3-0.8c-0.1-0.2-0.3-0.7-0.5-1.1c-0.2-0.4-0.6-1.5-1-2.4
		c-0.4-0.9-0.8-2-1-2.4c-0.2-0.4-0.3-0.7-0.3-0.8c0,0-0.3-0.7-0.6-1.4c-0.3-0.7-0.6-1.4-0.6-1.5c0-0.1-0.1-0.3-0.1-0.4
		c-0.1-0.1-0.5-1-0.9-2.1c-0.4-1.1-0.9-2.3-1.1-2.7c-0.3-0.7-0.4-0.9-0.8-1.9c-0.1-0.2-0.3-0.8-0.6-1.3c-0.2-0.5-0.5-1.1-0.5-1.3
		C117.7,25.5,111.2,25.4,111,25.9 M172.1,44.4l0,18.8l4,0l4,0v-7.6v-7.6l2.1,0l2.1,0l0.3,0.7c0.3,0.6,4.9,9.7,6.6,13l0.7,1.4l4.7,0
		c2.6,0,4.7,0,4.7,0c0,0-0.2-0.4-0.4-0.7c-0.2-0.4-0.4-0.7-0.4-0.7c0-0.1-0.6-1.2-1.3-2.2c-0.1-0.2-0.3-0.4-0.3-0.6
		c-0.1-0.1-0.4-0.6-0.7-1.1c-0.3-0.5-0.6-0.9-0.6-1c0-0.1-0.4-0.7-0.8-1.4c-0.5-0.7-0.8-1.4-0.8-1.4c0,0-0.3-0.5-0.6-1
		c-0.3-0.5-0.7-1.2-1-1.6c-0.2-0.4-0.9-1.5-1.4-2.4c-1-1.7-1-1.8-0.1-2c2.8-0.6,6.3-3.9,6.3-5.8c0-0.1,0.1-0.3,0.2-0.4
		c0.1-0.1,0.3-1,0.4-2.1c0.6-4-0.5-7.7-2.9-10c-0.7-0.6-3-2-3.3-2c-0.1,0-0.3-0.1-0.5-0.1c-1.7-0.9-3.8-1-12.9-1h-8.3L172.1,44.4
		 M244.7,25.8c0.1,0.1,0.3,0.5,0.4,0.9c0.1,0.4,0.3,0.9,0.5,1.2c0.5,1.1,0.7,1.6,0.9,2.2c0.1,0.3,0.3,0.8,0.4,1.1s0.3,0.8,0.4,1.1
		c0.1,0.3,0.3,0.8,0.4,1.1s0.3,0.8,0.4,1.1c0.1,0.3,0.3,0.8,0.4,1.1c0.1,0.3,0.6,1.6,1.2,3c0.5,1.4,1,2.7,1.2,3
		c0.2,0.4,0.4,0.9,0.9,2.3c0.1,0.2,0.2,0.6,0.4,0.9c0.1,0.3,0.3,0.7,0.3,0.8s0.1,0.3,0.2,0.5c0.2,0.4,0.6,1.3,0.8,2
		c0.1,0.3,0.3,0.7,0.4,0.9c0.1,0.2,0.6,1.6,1.2,3.2c0.6,1.6,1.2,3,1.2,3.2c0.1,0.2,0.2,0.6,0.4,0.9c0.1,0.3,0.3,0.8,0.4,1.1
		c0.2,0.4,0.4,1.1,0.9,2.3c0.1,0.2,0.2,0.6,0.4,0.9c0.1,0.3,0.3,0.7,0.3,0.8s0.1,0.3,0.2,0.5c0.1,0.2,0.3,0.5,0.4,0.8l0.2,0.5l3.2,0
		l3.2,0l0.5-1.2c0.3-0.7,0.6-1.4,0.7-1.7s0.2-0.6,0.2-0.6s0.1-0.4,0.3-0.8c0.2-0.4,0.4-1,0.6-1.5c0.2-0.4,0.4-1.1,0.6-1.5
		c0.2-0.4,0.3-0.8,0.3-0.8s0.1-0.4,0.3-0.7s0.3-0.8,0.4-0.9c0.1-0.2,0.4-0.9,0.7-1.7c0.3-0.7,0.6-1.5,0.7-1.7
		c0.1-0.2,0.3-0.6,0.4-0.9c0.1-0.3,0.3-0.7,0.3-0.7s0.1-0.4,0.3-0.8c0.2-0.4,0.4-1,0.6-1.5c0.2-0.4,0.4-1,0.5-1.3
		c0.1-0.3,0.2-0.6,0.2-0.6s0.1-0.4,0.3-0.8c0.2-0.4,0.4-1,0.6-1.5c0.2-0.4,0.4-1.1,0.6-1.5c0.2-0.4,0.3-0.8,0.3-0.8s0.1-0.3,0.2-0.6
		c0.1-0.3,0.5-1.3,0.9-2.3c0.7-1.7,0.8-2.1,1.2-2.9c0.1-0.2,0.4-1,0.7-1.7c0.3-0.7,0.6-1.5,0.7-1.7c0.1-0.2,0.3-0.6,0.4-0.9
		c0.1-0.3,0.3-0.7,0.3-0.7s0.1-0.4,0.3-0.8c0.6-1.3,0.7-1.7,0.9-2.2l0.1-0.5l-4.2,0l-4.2,0l-0.6,1.5c-0.3,0.8-0.6,1.7-0.7,1.8
		c-0.1,0.2-0.2,0.6-0.3,0.9c-0.1,0.3-0.3,0.8-0.4,1.1s-0.4,1.1-0.7,1.8c-0.4,1.1-0.7,2-1.1,2.9c-0.1,0.2-0.5,1.4-1,2.7
		c-0.5,1.3-0.9,2.5-1,2.6s-0.2,0.4-0.2,0.5s-0.1,0.4-0.2,0.7c-0.1,0.3-0.4,1.1-0.7,1.8c-0.2,0.7-0.5,1.4-0.6,1.6s-0.3,0.7-0.4,1.1
		c-0.2,0.4-0.3,0.9-0.4,1.1c-0.1,0.2-0.3,0.8-0.5,1.4c-0.6,1.8-0.7,1.7-1.6-0.8c-0.2-0.7-0.5-1.4-0.6-1.5c-0.1-0.2-0.2-0.4-0.2-0.5
		s-0.1-0.4-0.2-0.7c-0.1-0.3-0.4-1.1-0.7-1.8c-0.2-0.7-0.5-1.4-0.6-1.6c-0.1-0.2-0.3-0.9-0.6-1.6c-0.4-1.1-0.7-2.1-1.1-2.9
		c-0.1-0.2-0.3-0.7-0.4-1.2c-0.2-0.5-0.3-1-0.4-1.2c-0.1-0.2-0.3-0.9-0.6-1.6c-0.2-0.7-0.6-1.5-0.7-1.8c-0.1-0.3-0.2-0.6-0.2-0.7
		s-0.1-0.3-0.2-0.5c-0.1-0.2-0.4-0.9-0.6-1.5c-0.2-0.7-0.5-1.4-0.6-1.6c-0.1-0.2-0.3-0.7-0.4-1.2l-0.3-0.9h-4.6
		C245.5,25.6,244.6,25.7,244.7,25.8 M284.3,44.4l0,18.8l3.9,0l3.9,0V44.5V25.6h-3.9h-3.9L284.3,44.4 M298.4,44.5v18.8h12.9h12.9
		v-3.8v-3.8h-8.9h-8.9v-4v-4h8h8v-3.7v-3.7l-8,0l-8,0v-3.7v-3.7l8.5,0l8.5,0v-3.7v-3.7h-12.5h-12.5V44.5 M326.8,26.4
		c0.1,0.4,0.2,0.8,0.3,0.9c0.1,0.1,0.1,0.3,0.1,0.4s0.1,0.6,0.2,1c0.1,0.4,0.4,1.2,0.5,1.7c0.2,0.5,0.4,1.5,0.6,2
		c0.2,0.5,0.4,1.5,0.6,2.1c0.2,0.6,0.4,1.2,0.4,1.4c0.1,0.3,0.3,1,0.9,3c0.1,0.4,0.2,0.9,0.3,1.1c0.1,0.2,0.3,0.9,0.4,1.4
		c0.2,0.5,0.4,1.3,0.5,1.7c0.1,0.4,0.2,0.8,0.2,1c0,0.1,0.1,0.4,0.2,0.5c0.1,0.2,0.2,0.6,0.3,1c0.3,1.2,0.7,2.7,0.9,3.1
		c0.1,0.2,0.3,0.9,0.4,1.4s0.3,1.2,0.4,1.4s0.3,0.9,0.4,1.5c0.2,0.6,0.3,1.2,0.4,1.4c0.1,0.2,0.3,0.8,0.4,1.4s0.3,1.2,0.4,1.4
		c0.1,0.2,0.3,0.8,0.4,1.3c0.5,1.9,0.6,2.3,0.9,3c0.1,0.4,0.2,0.8,0.2,1c0,0.6,0.3,0.7,3.7,0.7c3,0,3.3,0,3.4-0.3
		c0.1-0.2,0.2-0.4,0.2-0.6c0.1-0.2,0.3-0.8,0.4-1.3c0.2-0.6,0.3-1.2,0.4-1.3c0.1-0.2,0.2-0.7,0.4-1.2c0.8-2.8,1.1-3.8,1.3-4
		c0.1-0.2,0.2-0.4,0.2-0.5c0-0.1,0.2-0.9,0.5-1.7c0.3-0.8,0.6-2.1,0.9-2.8c0.2-0.7,0.5-1.8,0.7-2.4c0.2-0.6,0.6-1.8,0.8-2.7
		c0.3-0.8,0.5-1.7,0.6-1.9c0.1-0.2,0.4-1.2,0.7-2.2c0.8-2.8,0.9-3.1,1.1-3.1c0.1,0,0.2,0.1,0.3,0.2c0.1,0.2,0.2,0.5,0.2,0.6
		c0.1,0.2,0.2,0.6,0.3,0.9c0.4,1.2,1.3,4.1,1.5,5c0.2,0.5,0.4,1.4,0.6,1.9s0.3,1.2,0.4,1.3c0.1,0.2,0.3,0.8,0.4,1.3s0.3,1.2,0.4,1.3
		c0.1,0.2,0.3,0.8,0.4,1.3c0.2,0.5,0.3,1.2,0.4,1.3c0.1,0.2,0.3,0.8,0.4,1.3c0.2,0.6,0.4,1.4,0.6,1.9c0.2,0.5,0.5,1.7,0.8,2.7
		c0.3,1,0.7,2.3,1,3.1s0.4,1.4,0.5,1.5c0,0.2,0.9,0.2,3.6,0.2c4,0,3.5,0.2,4.1-1.8c0.2-0.6,0.3-1.3,0.4-1.5c0.1-0.2,0.3-0.9,0.4-1.5
		c0.2-0.6,0.3-1.2,0.4-1.4s0.3-0.8,0.4-1.4s0.3-1.3,0.4-1.5c0.1-0.4,0.4-1.5,0.8-3c0.2-0.7,0.6-2.2,0.8-2.8c0.1-0.2,0.2-0.7,0.3-1.1
		c0.4-1.4,0.7-2.7,0.9-3.1c0.1-0.2,0.3-0.9,0.4-1.4s0.3-1.2,0.4-1.4c0.1-0.2,0.3-0.9,0.4-1.5c0.2-0.6,0.3-1.3,0.4-1.5
		s0.3-0.9,0.4-1.5c0.2-0.6,0.3-1.2,0.4-1.4c0.1-0.2,0.3-0.8,0.4-1.4c0.2-0.6,0.3-1.3,0.4-1.5c0.1-0.2,0.3-0.9,0.4-1.5
		c0.2-0.6,0.3-1.2,0.4-1.4c0.2-0.4,0.8-2.8,0.9-3.5l0.1-0.5h-4c-3.8,0-4,0-4,0.3c0,0.2-0.2,0.9-0.4,1.6c-0.2,0.7-0.4,1.6-0.5,2
		c-0.2,1-0.6,2.6-0.8,3.3c-0.1,0.4-0.3,1.2-0.4,1.8c-0.1,0.6-0.3,1.3-0.4,1.7c-0.2,0.7-0.6,2.5-0.8,3.3c-0.3,1.1-0.9,3.4-1,4
		c-0.1,0.3-0.3,1.1-0.4,1.7s-0.3,1.3-0.4,1.7c-0.1,0.3-0.3,1.2-0.5,2c-0.4,1.8-0.6,2-1,0.7c-0.8-2.6-1.1-3.6-1.5-4.7
		c-0.2-0.7-0.4-1.4-0.4-1.5c0-0.1-0.1-0.3-0.1-0.4c-0.1-0.1-0.3-0.6-0.4-1.2c-0.2-0.6-0.4-1.2-0.4-1.4c-0.1-0.2-0.3-0.8-0.4-1.3
		c-0.3-1-1-3.3-1.2-4.1c-0.1-0.2-0.3-0.9-0.4-1.4c-0.2-0.5-0.4-1.2-0.4-1.3c-0.1-0.2-0.3-0.8-0.4-1.3c-0.2-0.5-0.4-1.4-0.6-1.9
		c-0.2-0.5-0.4-1.4-0.6-1.9c-0.2-0.5-0.3-1.1-0.3-1.2c0-0.2-0.9-0.2-3.8-0.2h-3.7l-0.2,0.5c-0.1,0.3-0.5,1.6-0.9,2.8
		c-0.4,1.2-0.8,2.4-0.8,2.6c-0.1,0.2-0.3,1-0.6,1.8s-0.5,1.7-0.6,1.8c-0.1,0.2-0.4,1.1-0.7,2.1c-0.9,3.1-1.7,5.4-1.8,5.8
		c-0.1,0.2-0.3,0.8-0.4,1.3s-0.3,1.2-0.4,1.3c-0.1,0.2-0.3,1-0.6,1.8c-0.9,2.9-0.9,2.9-1.7-0.2c-0.1-0.6-0.3-1.4-0.4-1.8
		c-0.1-0.5-0.7-2.6-1-4c-0.2-0.7-0.6-2.7-0.8-3.5c-0.1-0.3-0.3-1.1-0.4-1.7c-0.4-1.7-0.9-3.9-1.1-4.5c-0.1-0.3-0.3-1.1-0.4-1.8
		c-0.3-1.4-0.6-2.3-0.7-3c-0.1-0.3-0.2-0.7-0.3-1l-0.1-0.5h-4.3h-4.3L326.8,26.4 M226,32.4c2.7,0.7,4.1,1.5,5.6,3.2
		c1.2,1.3,1.2,1.3,1.8,2.5c0.8,1.6,1.1,2.7,1.4,4.7c0.4,3.3-0.5,7-2.3,9.5c-1,1.4-3.7,3.5-4.4,3.5c-0.1,0-0.3,0.1-0.4,0.1
		c-0.8,0.7-5.7,1-7.7,0.4c-1.2-0.3-2.8-1.1-2.9-1.3c0-0.1-0.2-0.1-0.3-0.1c-1.1,0-4.2-4.4-4.7-6.8c-0.6-2.7-0.5-6.8,0.3-8.7
		c0.8-2,1.6-3.1,2.6-4.1c1.6-1.6,3-2.4,5.6-3.1C221.5,32.1,225,32.1,226,32.4 M188.7,32.8c2.5,0.7,3.4,2.2,3.1,4.9
		c-0.3,2.8-1.9,3.6-7.9,3.6l-3.8,0l0-4.4l0-4.4l3.8,0C187.2,32.5,187.8,32.5,188.7,32.8 M114.6,37.3c0.1,0.4,0.3,0.8,0.3,0.9
		c0.1,0.1,0.2,0.5,0.4,1c0.2,0.5,0.4,1.1,0.5,1.3c0.1,0.3,0.3,0.8,0.4,1.1s0.3,0.8,0.4,1.1c0.1,0.3,0.3,0.8,0.4,1.1
		c0.1,0.3,0.3,0.8,0.4,1.1c0.1,0.3,0.3,0.8,0.4,1.1c0.2,0.6,0.3,0.7,0.6,1.7c0.3,0.8,0.3,0.8-4.4,0.8c-2.8,0-4.4-0.1-4.5-0.2
		c-0.1-0.1,0.4-1.6,1-3.1c0.1-0.3,0.3-0.8,0.4-1.1c0.1-0.3,0.3-0.8,0.4-1.1c0.1-0.3,0.3-0.8,0.4-1.1c0.1-0.3,0.3-0.7,0.3-0.9
		c0.1-0.2,0.3-0.7,0.4-1.1c0.2-0.4,0.3-0.9,0.4-1.1c0.1-0.2,0.2-0.6,0.3-0.8c0.1-0.3,0.3-0.7,0.3-1C114,36.4,114.3,36.5,114.6,37.3
		 M30.6,41.1v2.6h2.5h2.5v-2.6v-2.6h-2.5h-2.5V41.1"/>
	<path id="path2" class="st0" d="M75.2,0.4c0,0.1-0.1,1.2,0,2.3l0,2.1l2.1,0l2.1,0l-2.1-0.1l-2.1-0.1V2.5L75.2,0.4l2.3,0h2.2
		l0.1,2.1l0.1,2.1l0-2.1l0-2.1l-2.2,0C75.7,0.1,75.2,0.2,75.2,0.4 M81.3,10.8l1.5,0.1l-0.1,1.5c0,0.8,0,1.5,0.1,1.5
		c0.1,0,0.1-0.7,0.1-1.5l0-1.5L81.3,10.8l-1.5-0.1L81.3,10.8 M23,12.4c-0.2,0.2-0.3,0.4-0.3,0.5c0,0.1,0.1,0,0.3-0.2l0.3-0.4h6.9
		c5.3,0,6.9,0,7.1,0.2c0.2,0.2,0.2,0.2,0-0.1C36.9,12,23.5,12,23,12.4 M60.6,12.3c5.9,0,7,0.1,7,0.3c0,0.1,0.1,0.3,0.2,0.3
		c0.1,0.1,0.1,0,0-0.3l-0.1-0.4L60.6,12.3l-7,0L60.6,12.3 M40.3,19.1c0,0.1,0.1,0.4,0.2,0.6c0.1,0.2,0.2,0.3,0.2,0.2
		c0-0.1-0.1-0.4-0.2-0.6S40.3,19,40.3,19.1 M152.9,24.6c0.2,0,0.5,0,0.7,0c0.2,0,0-0.1-0.4-0.1C152.8,24.5,152.7,24.6,152.9,24.6
		 M156,24.6c0.2,0,0.4,0,0.6,0c0.2,0,0-0.1-0.3-0.1C155.9,24.5,155.8,24.5,156,24.6 M221.2,24.6c0.2,0,0.5,0,0.7,0
		c0.2,0,0-0.1-0.4-0.1C221.1,24.5,221,24.6,221.2,24.6 M224.6,24.6c0.2,0,0.5,0,0.8,0c0.2,0,0-0.1-0.4-0.1
		C224.5,24.5,224.3,24.6,224.6,24.6 M151.3,24.8c0.2,0,0.4,0,0.6,0c0.2,0,0-0.1-0.3-0.1S151.1,24.7,151.3,24.8 M219.7,24.8
		c0.2,0,0.5,0,0.7,0c0.2,0,0-0.1-0.4-0.1C219.6,24.7,219.5,24.7,219.7,24.8 M226.2,24.8c0.2,0,0.5,0,0.7,0c0.2,0,0-0.1-0.4-0.1
		C226.1,24.7,226,24.7,226.2,24.8 M149.2,25.1c-0.2,0.1-0.2,0.1-0.1,0.1c0.1,0,0.4-0.1,0.6-0.1c0.2-0.1,0.2-0.1,0.1-0.1
		C149.6,25,149.4,25.1,149.2,25.1 M217.5,25.1c-0.2,0.1-0.2,0.1-0.1,0.1c0.1,0,0.4-0.1,0.6-0.1c0.2-0.1,0.2-0.1,0.1-0.1
		C218,25,217.7,25.1,217.5,25.1 M228.5,25.1c0.2,0.1,0.4,0.1,0.6,0.1c0.2,0,0.1-0.1-0.1-0.1c-0.2-0.1-0.4-0.1-0.6-0.1
		C228.3,25,228.3,25,228.5,25.1 M160.6,25.4c0.1,0.1,0.4,0.2,0.7,0.3c0.3,0.1,0.3,0.1,0.2,0c-0.1-0.1-0.4-0.2-0.7-0.3
		C160.5,25.3,160.4,25.3,160.6,25.4 M187.7,25.6c0.3,0,0.8,0,1.2,0c0.3,0,0.1-0.1-0.5-0.1C187.7,25.5,187.4,25.6,187.7,25.6
		 M272,26.1c-0.1,0.3-0.2,0.6-0.2,0.7c0,0,0.2-0.2,0.3-0.6C272.5,25.3,272.3,25.3,272,26.1 M292.2,44.4v18.9h-4
		c-2.2,0-4,0.1-3.9,0.1c0.1,0.2,7.8,0.2,8-0.1c0.2-0.2,0.3-37.6,0.1-37.7C292.2,25.5,292.2,34,292.2,44.4 M298.3,44.5l0,18.9h13h13
		v-3.8v-3.8l-8.9,0l-8.9,0l0-3.9l0-3.9l0,3.9l0,3.9l8.9,0l8.9,0v3.7v3.7h-12.9h-12.9L298.3,44.5l0-18.9L298.3,44.5 M323.4,29.3
		l0.1,3.8l0-3.7c0-2,0-3.7-0.1-3.8C323.4,25.5,323.4,27.2,323.4,29.3 M213.9,26.4c-0.2,0.1-0.3,0.2-0.2,0.2c0.1,0,0.4-0.1,0.6-0.2
		c0.2-0.1,0.3-0.2,0.2-0.2C214.4,26.2,214.2,26.3,213.9,26.4 M335.8,27.6c0,0.2,0.1,0.5,0.1,0.7c0.2,0.4,0.2,0,0-0.6
		C335.8,27.3,335.8,27.3,335.8,27.6 M370,27.6c-0.1,0.1-0.1,0.4-0.1,0.5s0.1,0.1,0.2-0.2C370.3,27.4,370.2,27.1,370,27.6
		 M165.8,28.6c0.6,0.6,1.2,1.1,1.2,1.1c0.1-0.1-1-1.2-1.7-1.8C165,27.6,165.2,27.9,165.8,28.6 M279.8,28.3c-0.1,0.3-0.1,0.5-0.1,0.5
		c0.1,0,0.4-0.9,0.3-0.9C280,27.8,279.9,28,279.8,28.3 M197.3,29c0.4,0.4,0.7,0.7,0.7,0.7c0,0-0.2-0.3-0.6-0.7
		c-0.4-0.4-0.7-0.7-0.7-0.7C196.7,28.3,197,28.6,197.3,29 M141.3,29.3l-0.6,0.6L141.3,29.3c0.6-0.5,0.8-0.6,0.6-0.6
		C141.8,28.6,141.6,28.9,141.3,29.3 M208.8,30l-1.3,1.4L208.8,30c0.8-0.7,1.4-1.3,1.4-1.3C210.3,28.6,210.1,28.7,208.8,30 M336.1,29
		c0,0.1,0.1,0.4,0.1,0.6c0.1,0.2,0.1,0.2,0.1,0.1c0-0.1-0.1-0.4-0.1-0.6C336.2,28.8,336.1,28.8,336.1,29 M237.6,30.1
		c0.6,0.6,1.1,1.1,1.2,1.1s-0.4-0.5-1-1.1c-0.6-0.6-1.1-1.1-1.2-1.1C236.6,29,237,29.5,237.6,30.1 M138.5,32.2
		c-0.5,0.6-0.8,1.1-0.5,0.9c0.3-0.3,1.1-1.4,1-1.4C139,31.6,138.8,31.9,138.5,32.2 M199.4,32c0.1,0.2,0.2,0.5,0.3,0.7
		c0.1,0.2,0.1,0.1,0-0.2c-0.1-0.2-0.2-0.5-0.3-0.7C199.3,31.6,199.3,31.7,199.4,32 M206.9,32.1c-0.2,0.3-0.3,0.5-0.3,0.5
		c0,0,0.2-0.2,0.4-0.5c0.2-0.3,0.3-0.5,0.3-0.5C207.3,31.6,207.1,31.9,206.9,32.1 M256.2,32.3c0.1,0.2,0.2,0.5,0.3,0.7
		c0.1,0.2,0.1,0.1,0-0.2c-0.1-0.2-0.2-0.5-0.3-0.7C256.1,32,256.1,32,256.2,32.3 M153.6,32.3c0.3,0,0.8,0,1.1,0
		c0.3,0,0.1-0.1-0.5-0.1S153.3,32.2,153.6,32.3 M222.7,32.3c0.3,0,0.8,0,1.1,0c0.3,0,0.1-0.1-0.5-0.1
		C222.7,32.2,222.4,32.2,222.7,32.3 M337,32.5c0,0.1,0.1,0.4,0.1,0.6c0.1,0.2,0.1,0.2,0.1,0.1c0-0.1-0.1-0.4-0.1-0.6
		C337,32.3,337,32.3,337,32.5 M156.4,32.5c0,0,0.3,0.1,0.6,0.2c0.4,0.1,0.4,0.1,0.2-0.1C157,32.5,156.3,32.4,156.4,32.5 M180.2,32.7
		c0,0.1-0.1,2.1,0,4.4l0,4.2l3,0l3,0l-3-0.1l-3-0.1v-4.2L180.2,32.7l3.7-0.1l3.6,0l-3.6,0C181.1,32.5,180.2,32.5,180.2,32.7
		 M219.8,32.6c-0.2,0.1-0.1,0.1,0.2,0.1c0.6-0.1,0.7-0.2,0.3-0.2C220.2,32.5,219.9,32.6,219.8,32.6 M306.4,36.7v3.6l8,0l8,0v3.8
		c0,2.1,0.1,3.7,0.1,3.7c0.3-0.2,0.1-7.5-0.1-7.6c-0.1-0.1-3.7-0.1-8-0.1h-7.7l0-3.5c0-1.9,0-3.5-0.1-3.5
		C306.5,33.1,306.4,34.8,306.4,36.7 M160.4,34.6c0.6,0.6,0.7,0.7,0.9,0.5c0.2-0.2,0.2-0.2,0-0.1c-0.1,0.1-0.5-0.1-0.9-0.5l-0.7-0.6
		L160.4,34.6 M229.6,34c0,0,0.2,0.2,0.5,0.5c0.3,0.2,0.5,0.3,0.3,0.1C230.2,34.3,229.6,33.9,229.6,34 M146.8,35.2l-0.7,0.7
		L146.8,35.2c0.4-0.3,0.8-0.6,0.8-0.7C147.6,34.4,147.4,34.5,146.8,35.2 M77.8,34.7c0,0.1,0.1,0.4,0.2,0.6s0.2,0.3,0.2,0.2
		S78.1,35.2,78,35S77.8,34.6,77.8,34.7 M215.2,35.3l-0.7,0.7L215.2,35.3c0.4-0.3,0.8-0.6,0.8-0.7C215.9,34.6,215.8,34.7,215.2,35.3
		 M230.8,34.9c0,0,0.2,0.3,0.5,0.5l0.5,0.5l-0.5-0.5C230.9,34.8,230.8,34.7,230.8,34.9 M200.3,37c0,0.7,0,1,0.1,0.6
		c0-0.3,0-0.9,0-1.2C200.3,36,200.3,36.3,200.3,37 M191.8,37c0,0.5,0,0.7,0.1,0.5c0-0.3,0-0.7,0-0.9C191.8,36.3,191.8,36.5,191.8,37
		 M232.3,36.6c0.2,0.3,0.4,0.5,0.5,0.5c0.1,0-0.3-0.6-0.6-0.8C232,36.1,232,36.3,232.3,36.6 M35.4,37.6c0,0.2,0.4,0.6,0.6,0.5
		c0.2-0.2,0.1-0.4-0.1-0.3c-0.1,0.1-0.3,0-0.3-0.1C35.5,37.5,35.4,37.5,35.4,37.6 M249.2,37.8c0.1,0.2,0.2,0.4,0.3,0.5
		c0.1,0.1,0.1-0.1,0-0.4C249.2,37.4,249,37.3,249.2,37.8 M135.6,38.3c0,0.2-0.1,0.4-0.1,0.6c-0.1,0.3-0.1,0.3,0.1,0
		C135.7,38.8,135.7,38.5,135.6,38.3C135.6,38.1,135.6,38.1,135.6,38.3 M30.5,41l0,2.7h2.6h2.6l0-2.7l0-2.7h-2.7h-2.7L30.5,41
		 M41.3,38.7c-0.3,0.6-0.2,0.7,0.1,0.2c0.1-0.3,0.2-0.5,0.2-0.5C41.5,38.3,41.4,38.5,41.3,38.7 M35.6,41.1v2.6h-2.5h-2.5v-2.6v-2.6
		h2.5h2.5V41.1 M338.6,39.3c0,0.1,0.1,0.4,0.1,0.6c0.1,0.2,0.1,0.2,0.1,0.1c0-0.1-0.1-0.4-0.1-0.6C338.7,39.2,338.6,39.1,338.6,39.3
		 M242.6,39.5c0,0.4,0.3,1.1,0.3,0.8c0-0.2-0.1-0.5-0.1-0.7C242.7,39.4,242.6,39.3,242.6,39.5 M135.2,40.2c-0.1,0.2-0.1,0.5-0.1,0.7
		c0,0.2,0.1,0,0.2-0.3C135.4,39.9,135.4,39.5,135.2,40.2 M339,41.1c0.1,0.6,0.2,0.7,0.2,0.3c0-0.2-0.1-0.4-0.2-0.6
		C339,40.6,338.9,40.7,339,41.1 M199.5,41.5c-0.1,0.3-0.1,0.5-0.1,0.5c0.1,0,0.4-0.9,0.3-0.9C199.7,41,199.6,41.2,199.5,41.5
		 M135,42.5c0,0.3,0,0.5,0.1,0.3c0-0.2,0-0.4,0-0.6C135,42,135,42.2,135,42.5 M143.5,42.6c0,0.4,0,0.6,0.1,0.4c0-0.2,0-0.5,0-0.8
		C143.5,42.1,143.5,42.2,143.5,42.6 M211.8,42.8c0,0.4,0,0.6,0.1,0.4c0-0.2,0-0.5,0-0.8C211.8,42.2,211.8,42.4,211.8,42.8
		 M243.2,44.4c0,1.3,0,1.8,0.1,1.1c0-0.7,0-1.7,0-2.3C243.2,42.6,243.2,43.1,243.2,44.4 M265.8,42.7c-0.1,0.3-0.2,0.6-0.1,0.6
		c0,0,0.1-0.2,0.3-0.5c0.1-0.3,0.2-0.6,0.1-0.6C266,42.2,265.9,42.4,265.8,42.7 M203.3,44.4c0,1.2,0,1.7,0.1,1c0-0.6,0-1.6,0-2.2
		C203.4,42.7,203.3,43.2,203.3,44.4 M234.6,43.1c0,0.3,0,0.5,0.1,0.3c0-0.2,0-0.4,0-0.6C234.7,42.7,234.6,42.8,234.6,43.1
		 M273.6,43.6c-0.1,0.3-0.1,0.5-0.1,0.5c0.1,0,0.4-0.9,0.3-0.9C273.8,43.2,273.7,43.4,273.6,43.6 M143.3,44.5c0,0.3,0,0.5,0.1,0.3
		c0-0.2,0-0.4,0-0.6C143.3,44,143.3,44.2,143.3,44.5 M197,45.1c-0.6,0.6-0.7,0.7-0.3,0.4c0.6-0.5,1.6-1.4,1.4-1.4
		C198,44.2,197.6,44.6,197,45.1 M234.6,45.8c0,0.3,0,0.5,0.1,0.3c0-0.2,0-0.4,0-0.6C234.7,45.4,234.6,45.5,234.6,45.8 M211.8,46.1
		c0,0.4,0,0.6,0.1,0.4c0-0.2,0-0.5,0-0.8C211.8,45.6,211.8,45.7,211.8,46.1 M143.5,46.2c0,0.4,0,0.5,0.1,0.3c0-0.2,0-0.5,0-0.7
		C143.5,45.7,143.5,45.9,143.5,46.2 M135,46.4c0,0.4,0,0.5,0.1,0.3c0-0.2,0-0.5,0-0.7C135,45.9,135,46,135,46.4 M234.5,47
		c0,0.3,0,0.5,0.1,0.3c0-0.2,0-0.4,0-0.6C234.5,46.5,234.5,46.7,234.5,47 M365,47.7c-0.1,0.2-0.1,0.5,0,0.5c0,0,0.1-0.1,0.2-0.4
		c0.1-0.2,0.1-0.5,0-0.5C365.2,47.3,365.1,47.5,365,47.7 M109.7,47.9c-0.2,0.4,0.1,0.4,4.6,0.4l4.3,0l-4.5,0c-3.9,0-4.4-0.1-4.4-0.3
		c0.1-0.1,0.1-0.2,0-0.2C109.8,47.6,109.8,47.8,109.7,47.9 M203.5,47.9c0,0.2,0.1,0.6,0.1,0.8c0.1,0.4,0.1,0.5,0.1,0.1
		c0-0.2-0.1-0.6-0.1-0.8C203.5,47.6,203.5,47.6,203.5,47.9 M180.2,48.3c-0.1,0.1-0.1,3.5-0.1,7.6v7.5l-4,0l-4,0.1l4.1,0l4.1,0l0-7.5
		L180.2,48.3l2,0l2-0.1l-1.9,0C181.2,48.2,180.3,48.2,180.2,48.3 M263.3,49.3c-0.1,0.3-0.2,0.6-0.1,0.6c0,0,0.1-0.2,0.3-0.5
		c0.1-0.3,0.2-0.6,0.1-0.6C263.5,48.8,263.4,49,263.3,49.3 M233.4,50.4c-0.2,0.3-0.2,0.6-0.2,0.6c0.1,0,0.6-1,0.5-1.1
		C233.7,49.8,233.5,50.1,233.4,50.4 M364.1,50c0.1,0.2,0.5,0.4,0.5,0.2c0-0.1-0.1-0.2-0.3-0.3C364.2,49.8,364.1,49.9,364.1,50
		 M195.5,53c0.1,0.3,0.3,0.5,0.3,0.5c0,0,0-0.2-0.2-0.5c-0.1-0.3-0.3-0.5-0.3-0.5C195.3,52.5,195.4,52.7,195.5,53 M160.9,53.2
		l-0.4,0.5L160.9,53.2c0.5-0.4,0.6-0.4,0.9-0.2c0.3,0.2,0.3,0.2,0.1-0.1C161.6,52.5,161.4,52.6,160.9,53.2 M230.1,54.4
		c-0.9,0.7-1,0.8-0.6,0.6c0.4-0.2,1.6-1.2,1.4-1.2C230.9,53.8,230.5,54.1,230.1,54.4 M147.8,54.6c0.2,0.2,0.5,0.5,0.8,0.6
		c0.7,0.4,0.5,0.2-0.4-0.5C147.8,54.4,147.6,54.4,147.8,54.6 M107,55.4c0,0.1,3.2,0.1,7.2,0.1c4,0,7.3-0.1,7.2-0.1
		c0-0.1-3.3-0.1-7.2-0.1C110.3,55.3,107.1,55.4,107,55.4 M151.7,56.5c0.3,0.1,1.2,0.2,1.1,0.1c0,0-0.4-0.1-0.7-0.2
		C151.5,56.3,151.4,56.4,151.7,56.5 M155.3,56.5c-0.5,0.1-0.5,0.1-0.1,0.1c0.2,0,0.6-0.1,0.8-0.1C156.4,56.3,156,56.3,155.3,56.5
		 M166.4,56.4c0,0,0.3,0.3,0.7,0.6c0.4,0.3,0.7,0.5,0.7,0.4c0,0-0.3-0.3-0.7-0.6S166.4,56.3,166.4,56.4 M140.5,59c0.5,0.6,1,1,1.1,1
		c0,0-0.4-0.4-0.9-1c-0.5-0.6-1-1-1.1-1C139.6,58,140,58.4,140.5,59 M208.8,58.8c0.7,0.7,0.8,0.9,0.8,0.7
		C209.6,59.6,209.2,59.2,208.8,58.8l-0.7-0.8L208.8,58.8 M166.5,59.8l-0.5,0.5L166.5,59.8c0.6-0.4,0.7-0.5,0.5-0.5
		C167,59.3,166.8,59.6,166.5,59.8 M45,60.1c-0.3,0.6-0.2,0.7,0.1,0.2c0.1-0.3,0.2-0.5,0.2-0.5C45.2,59.7,45.1,59.8,45,60.1
		 M143.6,61.4c0,0,0.2,0.2,0.5,0.3c0.3,0.1,0.5,0.2,0.5,0.2c0,0-0.2-0.2-0.5-0.3S143.6,61.3,143.6,61.4 M0,62.7
		c-0.2,0.6,0.2,0.6,6.6,0.6l6.3,0l-6.4-0.1c-6-0.1-6.4-0.1-6.4-0.4C0.3,62.4,0.2,62.4,0,62.7 M77.1,62.6c0,0.7,0.3,0.7,7,0.7l6.4,0
		l-6.4,0l-6.4,0l-0.3-0.4C77.2,62.6,77.1,62.5,77.1,62.6 M344.5,62.9l-0.1,0.4l-3.5,0c-2,0-3.5,0-3.5,0.1c0,0.1,1.6,0.1,3.6,0.1h3.5
		l0.2-0.4c0.1-0.2,0.1-0.5,0.1-0.5S344.6,62.6,344.5,62.9 M43.6,62.9c-0.2,0.2-1.3,0.2-6.7,0.2c-3.6,0-6.4,0-6.4,0.1
		c0.2,0.3,12.8,0.1,13.2-0.1c0.2-0.1,0.3-0.3,0.2-0.3S43.7,62.8,43.6,62.9 M133.5,63c0.1,0.4-8.8,0.5-9,0.2c0-0.1-0.1-0.1,0,0
		c0.1,0.4,9.3,0.4,9.3,0c0-0.2-0.1-0.4-0.2-0.4C133.5,62.7,133.5,62.8,133.5,63 M265.8,63c-0.1,0.3-0.2,0.4-3.4,0.3
		c-1.8,0-3.3,0-3.2,0.1c0.2,0.3,6.5,0.1,6.7-0.2c0.1-0.2,0.1-0.4,0.1-0.4C266,62.7,265.9,62.8,265.8,63 M201.4,63.1
		c0,0.1-1.6,0.2-4.8,0.1c-2.7,0-4.8,0-4.7,0.1c0.2,0.3,9.7,0.1,9.7-0.1c0-0.1,0-0.2-0.1-0.2C201.5,63,201.4,63.1,201.4,63.1
		 M99.5,63.3L95,63.4l4.4,0c2.8,0,4.5,0,4.6-0.1c0.1-0.1,0.1-0.2,0.1-0.1C104,63.2,102,63.3,99.5,63.3 M362.5,63.4c1,0,2.6,0,3.7,0
		c1,0,0.2-0.1-1.8-0.1S361.5,63.4,362.5,63.4 M227.3,64c-0.4,0.2,0,0.2,0.6,0c0.3-0.1,0.4-0.1,0.1-0.1
		C227.8,63.8,227.5,63.9,227.3,64 M220.5,64.3c0.2,0,0.4,0,0.6,0c0.2,0,0-0.1-0.3-0.1C220.4,64.2,220.3,64.2,220.5,64.3 M225.5,64.3
		c0.2,0,0.4,0,0.6,0c0.2,0,0-0.1-0.3-0.1C225.4,64.2,225.3,64.2,225.5,64.3 M153.9,64.4c0.5,0,1.3,0,1.8,0c0.5,0,0.1-0.1-0.9-0.1
		C153.8,64.4,153.4,64.4,153.9,64.4 M222.3,64.4c0.5,0,1.4,0,1.9,0c0.5,0,0.1-0.1-1-0.1C222.2,64.4,221.8,64.4,222.3,64.4"/>
	<path id="path3" class="st0" d="M82.6,12.2l0,1.5l-1.5,0.1l-1.5,0.1l1.5,0c1.7,0,1.7,0.1,1.6-1.7l-0.1-1.3L82.6,12.2 M26.7,12.4
		c2,0,5.1,0,7,0c1.9,0,0.3,0-3.6,0S24.8,12.4,26.7,12.4 M57.1,12.4c2,0,5.1,0,7,0c1.9,0,0.3,0-3.6,0S55.1,12.4,57.1,12.4
		 M154.6,24.6c0.2,0,0.5,0,0.7,0c0.2,0,0-0.1-0.4-0.1S154.3,24.6,154.6,24.6 M222.9,24.6c0.2,0,0.5,0,0.8,0c0.2,0,0-0.1-0.4-0.1
		C222.8,24.5,222.7,24.6,222.9,24.6 M152.6,24.8c0.2,0,0.4,0,0.6,0c0.2,0,0-0.1-0.3-0.1C152.6,24.7,152.5,24.7,152.6,24.8 M221,24.8
		c0.2,0,0.4,0,0.6,0c0.2,0,0-0.1-0.3-0.1C220.9,24.7,220.8,24.7,221,24.8 M292.2,44.4c0,10.4,0,14.6,0,9.4c0-5.2,0-13.7,0-18.8
		S292.2,34,292.2,44.4 M310.7,33.1c2.3,0,6.1,0,8.4,0c2.3,0,0.4,0-4.2,0S308.4,33.1,310.7,33.1 M160.5,34.6c0.3,0.3,0.6,0.5,0.6,0.5
		C161.2,35.1,160.9,34.8,160.5,34.6l-0.5-0.6L160.5,34.6 M215,35.3l-0.5,0.5L215,35.3c0.6-0.4,0.7-0.5,0.5-0.5
		C215.5,34.8,215.3,35.1,215,35.3 M310.5,40.4c2.2,0,5.7,0,7.9,0s0.4,0-4,0C310.1,40.4,308.3,40.4,310.5,40.4 M135.1,41.8
		c0,0.3,0,0.5,0.1,0.3c0-0.2,0-0.4,0-0.6C135.2,41.4,135.1,41.5,135.1,41.8 M135,44.5c0,0.7,0,1,0.1,0.6c0-0.3,0-0.9,0-1.2
		C135,43.5,135,43.8,135,44.5 M234.8,44.4c0,0.6,0,0.9,0.1,0.5c0-0.3,0-0.9,0-1.2C234.8,43.5,234.8,43.7,234.8,44.4 M211.6,44.5
		c0,0.4,0,0.6,0.1,0.4c0-0.2,0-0.5,0-0.8C211.7,43.9,211.6,44.1,211.6,44.5 M197.2,44.8l-0.5,0.5L197.2,44.8
		c0.6-0.4,0.7-0.5,0.5-0.5C197.7,44.3,197.4,44.6,197.2,44.8 M135.1,47.1c0,0.3,0,0.5,0.1,0.3c0-0.2,0-0.4,0-0.6
		C135.2,46.7,135.1,46.8,135.1,47.1 M310.4,47.9c2.2,0,5.8,0,8,0c2.2,0,0.3,0-4.1,0S308.2,47.9,310.4,47.9 M109.7,48.4
		c0.1,0.1,2.1,0.1,4.5,0.1l4.4,0l-4.5-0.1C111.7,48.3,109.7,48.3,109.7,48.4 M110.7,55.3c1.9,0,5.1,0,7.1,0c1.9,0,0.4,0-3.5,0
		C110.4,55.2,108.8,55.2,110.7,55.3 M153.6,56.8c0.2,0,0.5,0,0.7,0s0-0.1-0.4-0.1C153.5,56.7,153.3,56.7,153.6,56.8 M222.9,56.8
		c0.2,0,0.5,0,0.8,0c0.2,0,0-0.1-0.4-0.1C222.8,56.7,222.7,56.7,222.9,56.8 M237.5,58.8l-0.5,0.5L237.5,58.8
		c0.6-0.4,0.7-0.5,0.5-0.5C238,58.3,237.8,58.6,237.5,58.8 M166.4,59.7c-0.4,0.4-0.7,0.8-0.7,0.8c0,0,0.4-0.3,0.8-0.8
		c0.4-0.4,0.7-0.8,0.7-0.8S166.8,59.3,166.4,59.7 M0.2,63c0,0.1,3,0.1,6.6,0.1c3.6,0,6.5-0.1,6.6-0.1c0-0.1-2.9-0.1-6.6-0.1
		S0.2,62.9,0.2,63 M33.7,63.1c1.8,0,4.7,0,6.5,0c1.8,0,0.4,0-3.2,0S31.9,63.1,33.7,63.1 M80.8,63.1c1.8,0,4.8,0,6.6,0
		c1.8,0,0.3,0-3.3,0S79,63.1,80.8,63.1 M313,70.9c-8.8,2.2-9.3,13.4-0.7,16.4c3,1.1,7.3,0.3,9.5-1.6l0.7-0.6l-0.9-0.6
		c-1-0.7-1.1-0.8-1.8-0.1c-3.5,3.1-9.8,1.2-11-3.4c-1.6-6,5.7-10.8,10.6-7.1c0.7,0.6,0.6,0.6,1.6-0.1c1-0.7,1-0.9-0.2-1.7
		C319,70.8,315.5,70.3,313,70.9 M333.8,70.9c-0.6,0.2-1.1,0.3-1.2,0.4c-0.1,0.1-0.2,0.1-0.4,0.1c-0.4,0-2.5,1.5-3.2,2.3
		c-2.3,2.6-2.6,6.8-0.7,9.8c3.7,5.9,14,5.4,17-0.7C348.7,75.9,341.8,68.8,333.8,70.9 M229.4,71.1c-0.1,0.1-0.1,0.5-0.1,1V73l3,0l3,0
		l0,7.1l0,7.1h1.2h1.2l0-7.1l0-7.1l3,0l3,0l0-1l-0.1-1l-7,0C232.6,71,229.4,71,229.4,71.1 M250.8,79.1v8.2l6.1,0l6.1,0l0.1-0.9
		l0-0.9l-5,0l-5,0v-2.7v-2.7l4.4,0l4.4,0l-0.1-1l0-1l-4.3-0.1l-4.3-0.1v-2.4v-2.4l4.6,0c4.9,0,4.8,0,4.8-1c0-1.1,0.4-1.1-6-1.1h-5.8
		V79.1 M270.9,71.1c-0.1,0.1-0.1,3.7-0.1,8.2v8.1h5.4h5.4v-0.9v-0.9l-4.2,0l-4.2,0l0-7.2l0-7.2H272C271.5,71,270.9,71,270.9,71.1
		 M288.6,79.1v8.2h6.2h6.2v-0.9v-0.9l-5,0l-5,0v-2.7v-2.7l4.4,0l4.4,0l-0.1-1l0-1l-4.3-0.1l-4.3-0.1v-2.4v-2.4l4.7,0l4.7,0l-0.1-1
		l0-1l-5.9,0l-5.9,0V79.1 M351.4,71.1c-0.1,0.1-0.1,3.7-0.1,8.2v8.1h1.2h1.2l0-6.7l0-6.7l0.6,1.2c0.6,1.2,1.2,2.6,2,4.2
		c0.2,0.5,0.7,1.4,1,2.2s0.8,1.7,1,2.2c0.2,0.5,0.7,1.5,1,2.2l0.6,1.4h0.8c0.9,0,0.8,0.2,2-2.6c0.2-0.6,0.7-1.5,1-2.1
		c0.3-0.6,0.7-1.5,0.9-1.9c0.2-0.5,0.8-1.7,1.3-2.8c0.5-1.1,1.1-2.4,1.3-2.9c0.2-0.5,0.5-0.9,0.5-0.9c0.1,0,0.1,3,0.1,6.6v6.6h1.2
		h1.2v-8.2V71h-1.8h-1.8l-0.9,2c-0.5,1.1-1.1,2.4-1.4,3s-0.8,1.6-1.1,2.4c-0.4,0.8-1,2.2-1.5,3.2c-1,2.2-1,2.2-1.7,0.7
		c-0.6-1.3-1.7-3.6-3.3-7c-1.5-3.2-1.9-3.9-2-4C354.6,70.9,351.5,70.9,351.4,71.1 M338.2,72.7c3.9,0.9,6.3,4.4,5.3,8.1
		c-2,7.6-13.9,6.2-13.9-1.6C329.6,74.9,333.8,71.7,338.2,72.7"/>
	<path id="path4" class="st0" d="M112.7,25.6c0.9,0,2.4,0,3.3,0c0.9,0,0.1-0.1-1.7-0.1C112.5,25.5,111.8,25.6,112.7,25.6 M176,25.6
		c2.1,0,5.5,0,7.6,0c2.1,0,0.4,0-3.8,0C175.6,25.5,173.9,25.6,176,25.6 M247,25.6c1.3,0,3.3,0,4.5,0c1.2,0,0.2-0.1-2.3-0.1
		S245.7,25.6,247,25.6 M274.5,25.6c1.2,0,3,0,4.2,0c1.1,0,0.2-0.1-2.1-0.1C274.2,25.5,273.3,25.6,274.5,25.6 M286.3,25.6
		c1.1,0,2.8,0,3.9,0s0.2-0.1-2-0.1C286.1,25.5,285.2,25.6,286.3,25.6 M304.6,25.6c3.5,0,9.1,0,12.5,0c3.4,0,0.6,0-6.3,0
		S301.2,25.6,304.6,25.6 M328.8,25.6c1.2,0,3.1,0,4.2,0c1.2,0,0.2-0.1-2.1-0.1C328.6,25.5,327.6,25.6,328.8,25.6 M351,25.6
		c1,0,2.6,0,3.7,0c1,0,0.2-0.1-1.8-0.1S350,25.6,351,25.6 M372.8,25.6c1.1,0,2.8,0,3.9,0s0.2-0.1-2-0.1
		C372.6,25.5,371.7,25.6,372.8,25.6 M284.2,44.4c0,10.4,0,14.6,0,9.4c0-5.2,0-13.7,0-18.8S284.2,34,284.2,44.4 M243.6,71.9l0.1,0.9
		l0.1-0.8c0-0.4,0-0.9-0.1-0.9C243.6,71,243.5,71.4,243.6,71.9 M270.7,71.2c0,0.1-0.1,3.8,0,8.2l0,8l0.1-8.2c0-4.5,0.1-8.2,0-8.2
		S270.7,71.1,270.7,71.2 M250.7,79.2l0,8.2l6.1,0c3.3,0,6.1,0,6.2-0.1c0.1-0.1-2.6-0.1-6-0.1l-6.2,0L250.7,79.2l0-8.2L250.7,79.2
		 M370.5,79.2l0,8.1l-1.1,0.1l-1.1,0.1l1.1,0c1.4,0,1.3,0.9,1.2-8.4l0-8L370.5,79.2 M300.5,72c0,0.4,0,0.6,0.1,0.4
		c0-0.2,0-0.5,0-0.8C300.5,71.4,300.5,71.6,300.5,72 M315.2,72.6c0.2,0,0.5,0,0.8,0c0.2,0,0-0.1-0.4-0.1
		C315.2,72.5,315,72.6,315.2,72.6 M336.3,72.6c0.3,0,0.6,0,0.8,0c0.2,0,0-0.1-0.5-0.1C336.2,72.5,336.1,72.6,336.3,72.6 M262.4,72.8
		c0,0.1-1.2,0.2-4.6,0.2l-4.6,0l4.6,0c4.3,0,5.2,0,4.8-0.4C262.5,72.6,262.4,72.7,262.4,72.8 M231,73.1c0.8,0,2.1,0,2.8,0
		c0.8,0,0.1-0.1-1.5-0.1S230.2,73.1,231,73.1 M237.7,73.2c0,0.1-0.1,3.4,0,7.2l0,7l0-7.1L237.7,73.2l3-0.1l2.9,0l-2.9,0
		C238.5,73,237.7,73,237.7,73.2 M291,73.2c0,0.1-0.1,1.2,0,2.5l0.1,2.2l0-2.4L291,73.2l4.6-0.1l4.5,0l-4.5,0
		C292,73,291.1,73,291,73.2 M308.6,79.3c0,0.6,0,0.8,0.1,0.5s0-0.8,0-1.1S308.6,78.7,308.6,79.3 M343.6,79.2c0,0.6,0,0.8,0.1,0.5
		c0-0.3,0-0.8,0-1C343.7,78.4,343.6,78.7,343.6,79.2 M327,79.2c0,0.4,0,0.5,0.1,0.3c0-0.2,0-0.5,0-0.7C327,78.7,327,78.9,327,79.2
		 M255.3,80.1c1.2,0,3.1,0,4.3,0c1.2,0,0.3-0.1-2.1-0.1C255.1,80,254.1,80.1,255.3,80.1 M291,80.2c0,0.1-0.1,1.3,0,2.7l0,2.5l4.9,0
		l4.9,0l-4.8,0l-4.8,0v-2.6L291,80.2l4.4-0.1l4.3,0l-4.3,0C292,80,291.1,80,291,80.2 M319.8,84.2l-0.5,0.5l0.5-0.4
		c0.3-0.2,0.6-0.5,0.8-0.5c0.2-0.1,0.2-0.1,0-0.1C320.4,83.6,320.1,83.9,319.8,84.2 M343.8,85.1l-0.6,0.6L343.8,85.1
		c0.6-0.5,0.8-0.6,0.6-0.6C344.3,84.5,344.1,84.8,343.8,85.1 M253.1,85.1c0.1,0.2,0.8,0.3,5,0.3l4.9,0l-4.8,0
		C254.6,85.3,253.3,85.2,253.1,85.1C253.1,84.9,253.1,85,253.1,85.1 M273.2,85.4c0.1,0.1,2,0.1,4.2,0.1l4.1,0l-4.2-0.1
		C275,85.3,273.2,85.3,273.2,85.4 M281.6,86.4c0,0.6,0,0.8,0.1,0.5c0-0.3,0-0.8,0-1C281.7,85.6,281.6,85.8,281.6,86.4 M314.6,85.8
		c0.2,0,0.4,0,0.6,0s0-0.1-0.3-0.1C314.6,85.7,314.5,85.7,314.6,85.8 M335.6,85.8c0.2,0,0.4,0,0.6,0s0-0.1-0.3-0.1
		C335.6,85.7,335.5,85.7,335.6,85.8 M337.1,85.8c0.2,0,0.4,0,0.6,0s0-0.1-0.3-0.1C337.1,85.7,337,85.7,337.1,85.8 M235.9,87.4
		c0.3,0,0.8,0,1.1,0c0.3,0,0.1-0.1-0.5-0.1C235.8,87.4,235.6,87.4,235.9,87.4 M273.6,87.4c1.5,0,3.9,0,5.3,0c1.4,0,0.2-0.1-2.7-0.1
		C273.2,87.4,272.1,87.4,273.6,87.4 M291.6,87.4c1.7,0,4.5,0,6.2,0s0.3-0.1-3.1-0.1C291.3,87.4,289.9,87.4,291.6,87.4 M351.9,87.4
		c0.3,0,0.8,0,1.2,0c0.3,0,0.1-0.1-0.5-0.1C351.9,87.4,351.6,87.4,351.9,87.4 M360.6,87.4c0.2,0,0.5,0,0.8,0c0.2,0,0-0.1-0.4-0.1
		C360.5,87.4,360.3,87.4,360.6,87.4"/>
	<path id="path5" class="st0" d="M75.2,0.1c0,0.1,0.6,0.1,1.4,0.1c2.7-0.1,3-0.1,0.8-0.2C76.2,0,75.2,0,75.2,0.1 M75,2.5l0,2.1
		l-3.7,0l-3.7,0l-0.1,3.7c0,2,0,3.7,0,3.7c0.1,0,0.1-1.7,0.1-3.7V4.8h3.8h3.8v3.7v3.7l-3.7,0l-3.7,0.1l3.7,0l3.7,0l0-3.7l0-3.7
		l2.1,0l2.1,0l-2.2-0.1l-2.2-0.1l-0.1-2.2L75,0.4L75,2.5 M79.6,12.2c0,2-0.1,1.9,1.7,1.9c1.8,0,1.8-0.1,1.8-1.8
		c0-0.8-0.1-1.5-0.1-1.6c-0.1,0-0.1,0.6-0.1,1.5l0.1,1.6h-1.6h-1.6L79.6,12.2l0-1.7L79.6,12.2 M153.7,24.4c0.6,0,1.5,0,2,0
		c0.5,0,0.1-0.1-1-0.1C153.6,24.4,153.1,24.4,153.7,24.4 M222.1,24.4c0.6,0,1.6,0,2.2,0c0.6,0,0.1-0.1-1.1-0.1
		C222,24.4,221.5,24.4,222.1,24.4 M150.2,24.8c-0.4,0.2,0,0.2,0.6,0c0.3-0.1,0.4-0.1,0.1-0.1C150.7,24.7,150.4,24.7,150.2,24.8
		 M158.1,24.7c0,0,0.3,0.1,0.6,0.2c0.4,0.1,0.4,0.1,0.2-0.1C158.7,24.7,157.9,24.6,158.1,24.7 M218.6,24.8c-0.2,0.1-0.1,0.1,0.2,0.1
		c0.6-0.1,0.7-0.2,0.3-0.2C219,24.6,218.7,24.7,218.6,24.8 M227.1,24.7c0,0,0.3,0.1,0.6,0.2c0.4,0.1,0.4,0.1,0.2-0.1
		C227.7,24.7,226.9,24.6,227.1,24.7 M110.9,25.4c0,0.1,1.5,0.1,3.4,0.1c3.1,0,3.5,0,3.7,0.2c0.1,0.2,0.2,0.2,0.2,0.1
		c0-0.5-0.4-0.6-3.8-0.6C112.5,25.3,110.9,25.4,110.9,25.4 M172,25.5c0,0.1-0.1,8.7,0,19.1l0,18.9l4,0c2.2,0,4,0,4.1-0.1
		c0.1-0.1-1.7-0.1-3.9-0.1l-4.1,0v-19L172,25.5l8-0.1l8,0l-8,0C173.8,25.3,172.1,25.4,172,25.5 M244.4,25.7c0,0.2,0.1,0.5,0.2,0.6
		c0.1,0.2,0.1,0.1,0.1-0.3l-0.1-0.5l4.7,0c2.6,0,4.6,0,4.6-0.1c0-0.1-2.2-0.1-4.7-0.1h-4.7L244.4,25.7 M272.1,25.5
		c-0.1,0.1-0.2,0.3-0.2,0.4c0,0.1,0.1,0,0.2-0.1c0.2-0.3,0.6-0.3,4.5-0.3h4.3l-0.1,0.4c-0.1,0.3,0,0.3,0.1,0.2
		c0.1-0.1,0.1-0.3,0.1-0.4C280.9,25.2,272.5,25.2,272.1,25.5 M284,25.4c-0.2,0.2-0.1,37.8,0.1,38c0.4,0.3,8.1,0.2,8.2-0.1
		c0.1-0.2,0-0.2-0.2,0c-0.2,0.2-1.2,0.2-4.2,0.2l-3.9,0l0-19L284,25.4l4.2,0.1c2.3,0,4.1,0,4.1-0.1C292.2,25.3,284.2,25.3,284,25.4
		 M302.7,25.4c11.7,0.1,20.9,0.1,20.8,0c0-0.1-5.8-0.1-12.7-0.1C303.9,25.4,300.2,25.4,302.7,25.4 M326.4,25.5c0,0.1,0,0.4,0.1,0.5
		c0.1,0.3,0.1,0.3,0.1-0.1l0-0.4l4.3,0c3.9,0,4.4,0,4.5,0.2c0.2,0.2,0.2,0.2,0.2,0c0-0.4-0.3-0.5-4.8-0.5
		C327.5,25.3,326.4,25.4,326.4,25.5 M349,25.4c0,0.1,1.1,0.1,2.4,0.1c4.7-0.1,5.2-0.1,1.4-0.2C350.8,25.3,349.1,25.4,349,25.4
		 M370.5,25.4c-0.1,0.1-0.1,0.2-0.1,0.3c0,0.1,0.1,0.1,0.1,0c0.1-0.2,1-0.2,4.2-0.2c2.3,0,4.1,0,4.1-0.1
		C378.9,25.3,370.7,25.3,370.5,25.4 M189.4,25.5c0,0,0.4,0.1,0.7,0.2c0.5,0.1,0.6,0.1,0.3,0C190.2,25.5,189.3,25.4,189.4,25.5
		 M191.7,26c0.2,0.1,0.5,0.1,0.7,0.1c0.3,0,0.3,0-0.1-0.1C191.7,25.8,191.3,25.8,191.7,26 M370.1,26.8c0,0.2-0.1,0.4-0.1,0.6
		c-0.1,0.3-0.1,0.3,0.1,0C370.2,27.3,370.2,27,370.1,26.8C370.1,26.6,370.1,26.6,370.1,26.8 M195.8,27.5c0,0,0.2,0.2,0.5,0.5
		c0.3,0.2,0.5,0.3,0.3,0.1C196.4,27.8,195.8,27.4,195.8,27.5 M140.8,29.5c-0.4,0.4-0.9,0.9-1.2,1.2c-0.3,0.3,0,0,0.7-0.6
		c0.7-0.6,1.2-1.2,1.2-1.2C141.6,28.8,141.5,28.8,140.8,29.5 M208.5,30.2l-1,1L208.5,30.2c1-0.9,1.2-1,1-1
		C209.5,29.1,209.1,29.6,208.5,30.2 M237.6,29.8c0.7,0.7,0.8,0.9,0.8,0.7C238.4,30.6,238.1,30.2,237.6,29.8l-0.7-0.8L237.6,29.8
		 M167.2,29.9c0.1,0.1,0,0.4-0.1,0.5c-0.2,0.3-0.2,0.3,0.1,0.1c0.3-0.3,0.4-0.6,0.1-0.8C167.2,29.7,167.1,29.7,167.2,29.9
		 M198.4,30.1c0.2,0.3,0.4,0.5,0.5,0.5c0.1,0-0.3-0.6-0.6-0.8C198.1,29.6,198.2,29.8,198.4,30.1 M369.3,30.2c0,0.2-0.1,0.4-0.1,0.6
		c-0.1,0.3-0.1,0.3,0.1,0C369.4,30.6,369.4,30.3,369.3,30.2C369.3,29.9,369.3,29.9,369.3,30.2 M255.7,30.6c0.1,0.2,0.2,0.5,0.3,0.7
		c0.1,0.2,0.1,0.1,0-0.2c-0.1-0.2-0.2-0.5-0.3-0.7C255.6,30.3,255.6,30.4,255.7,30.6 M239.3,31.8c0.7,0.9,0.9,1.2,0.7,0.8
		c-0.1-0.2-0.4-0.6-0.7-0.9l-0.5-0.6L239.3,31.8 M152.1,32.5c-0.3,0.1-0.4,0.1-0.1,0.1c0.2,0,0.4-0.1,0.6-0.1
		C152.9,32.3,152.7,32.3,152.1,32.5 M155.6,32.5c0.1,0.1,0.4,0.2,0.6,0.2c0.4,0,0.3-0.1-0.3-0.2C155.5,32.3,155.4,32.3,155.6,32.5
		 M220.9,32.5c-0.3,0.1-0.4,0.1-0.1,0.1c0.2,0,0.5-0.1,0.7-0.1C221.9,32.3,221.5,32.3,220.9,32.5 M225,32.5c0.2,0.1,0.5,0.1,0.7,0.1
		c0.3,0,0.3,0-0.1-0.1C225,32.3,224.6,32.3,225,32.5 M206.2,33l-0.3,0.5l0.3-0.4c0.3-0.4,0.4-0.7,0.3-0.7
		C206.5,32.5,206.4,32.7,206.2,33 M315.2,33.1c-4.6,0-8.4,0.1-8.4,0.2c-0.1,0.1,3.6,0.1,8.2,0.1c5.2,0,8.4-0.1,8.5-0.2
		c0.1-0.1,0.1-0.1,0.1-0.1C323.5,33,319.8,33.1,315.2,33.1 M163.2,33.6l-0.4,0.4l0.5-0.3c0.2-0.2,0.5-0.4,0.5-0.4
		C163.8,33.1,163.7,33.1,163.2,33.6 M368.4,33.8c-0.1,0.7,0,0.8,0.1,0.1c0.1-0.3,0.1-0.6,0-0.6C368.5,33.3,368.4,33.5,368.4,33.8
		 M190,33.6c0.8,0.8,1.2,1,0.8,0.6c-0.2-0.2-0.5-0.5-0.7-0.6C190,33.5,189.9,33.5,190,33.6 M200.2,34.9c0.1,0.5,0.1,0.9,0.2,0.9
		c0.1,0.1,0-1.1-0.1-1.4C200.2,34.2,200.1,34.4,200.2,34.9 M215.5,35.2c-0.6,0.6-0.7,0.7-0.2,0.3c0.5-0.4,1-0.9,1.3-1
		c0.2-0.2,0.3-0.3,0.2-0.3C216.7,34.1,216.1,34.6,215.5,35.2 M359.6,35c0.1,0.3,0.2,0.6,0.3,0.7c0.2,0.2-0.1-0.9-0.3-1.1
		C359.5,34.5,359.5,34.7,359.6,35 M337.7,35.1c0.2,0.9,0.4,1.4,0.3,0.6c-0.1-0.4-0.2-0.8-0.2-0.9C337.7,34.7,337.6,34.8,337.7,35.1
		 M231.2,35.5c0.4,0.4,0.7,0.7,0.7,0.7c0,0-0.2-0.3-0.6-0.7c-0.4-0.4-0.7-0.7-0.7-0.7C230.6,34.8,230.8,35.1,231.2,35.5 M257.5,35.5
		c0.1,0.3,0.2,0.5,0.2,0.4c0.1-0.1-0.2-0.9-0.3-0.9C257.3,35,257.4,35.2,257.5,35.5 M191.6,37c0,0.6,0,0.8,0.1,0.5s0-0.8,0-1.1
		S191.6,36.4,191.6,37 M213.9,37c-0.2,0.3-0.3,0.5-0.3,0.5c0,0,0.2-0.2,0.4-0.5s0.3-0.5,0.3-0.5C214.3,36.5,214.1,36.7,213.9,37
		 M367.5,37.2c-0.1,0.7,0,0.8,0.1,0.1c0.1-0.3,0.1-0.6,0-0.6C367.7,36.7,367.6,36.9,367.5,37.2 M352.7,37.9c0.1,0.2,0.2,0.4,0.2,0.3
		c0.1-0.1-0.2-0.8-0.3-0.8C352.5,37.5,352.5,37.7,352.7,37.9 M35.4,37.9c0,0.1-0.8,0.2-2.5,0.2l-2.5,0l0,2.8c0,1.5,0,2.8,0.1,2.8
		c0.1,0,0.1-1.2,0.1-2.8l0-2.8h2.7c2,0,2.8-0.1,2.9-0.2c0.1-0.1,0.1-0.2,0-0.1s-0.2,0-0.4-0.1C35.5,37.8,35.4,37.8,35.4,37.9
		 M200.3,38.5c0,0.2-0.1,0.6-0.1,0.8l-0.1,0.4l0.2-0.4C200.4,39.1,200.4,38.7,200.3,38.5l0-0.4L200.3,38.5 M338.5,38.6
		c0.1,0.6,0.2,0.7,0.2,0.3c0-0.2-0.1-0.4-0.2-0.6C338.5,38.1,338.4,38.2,338.5,38.6 M35.8,41.1c0,1.5,0,2.6,0,2.6
		c0.1-0.1,0.1-1.3,0.1-2.7l0-2.6L35.8,41.1 M203.7,39c-0.1,0.1-0.1,0.4,0,0.5c0,0.2,0.1,0.1,0.2-0.2C203.9,38.8,203.8,38.6,203.7,39
		 M135.3,39.2c0,0.2-0.1,0.5-0.1,0.8l-0.1,0.4l0.2-0.4C135.4,39.8,135.4,39.4,135.3,39.2C135.3,38.9,135.3,38.9,135.3,39.2
		 M314.5,40.1c4.4,0,8,0.1,8,0.1c0,0,0,1.7,0,3.8l0,3.8l-8,0c-4.4,0-8,0.1-8,0.2c0,0.1,16,0,16.1-0.1c0.3-0.2,0-7.7-0.3-7.9
		c-0.2-0.1-3-0.2-8.1-0.1l-7.8,0L314.5,40.1 M112.5,41c-0.1,0.3-0.1,0.5-0.1,0.5c0.1,0,0.4-0.9,0.3-0.9
		C112.7,40.5,112.6,40.7,112.5,41 M243,41.3c0.1,0.4,0.1,0.8,0.2,0.8c0.1,0.1,0-0.9-0.1-1.2C243,40.7,243,40.8,243,41.3 M266.3,41.1
		c-0.1,0.2-0.1,0.5-0.1,0.5c0,0,0.1-0.2,0.2-0.4C266.6,40.5,266.5,40.5,266.3,41.1 M187.6,40.9c0.2,0,0.5,0,0.7,0
		c0.2,0,0-0.1-0.4-0.1S187.3,40.9,187.6,40.9 M143.7,41.5c-0.1,0.7,0,0.8,0.1,0.1c0.1-0.3,0.1-0.6,0-0.6
		C143.8,41,143.8,41.2,143.7,41.5 M185.7,41.1c0.3,0,0.8,0,1,0c0.2,0,0-0.1-0.5-0.1C185.6,41,185.4,41.1,185.7,41.1 M330.9,41.4
		c0.1,0.3,0.2,0.6,0.3,0.8c0.1,0.2,0.1,0.1,0-0.2c-0.1-0.3-0.2-0.6-0.3-0.8C330.8,41,330.8,41.1,330.9,41.4 M203.3,41.7
		c0,0.4,0,0.5,0.1,0.3c0-0.2,0-0.5,0-0.7C203.3,41.2,203.3,41.4,203.3,41.7 M134.9,41.8c-0.1,0.7-0.1,5,0,5.3
		c0.1,0.2,0.1-1.1,0.1-2.8s0-3.1,0-3.1C135,41.3,134.9,41.5,134.9,41.8 M234.5,42.9c0,0.4,0,0.5,0.1,0.3c0-0.2,0-0.5,0-0.7
		C234.5,42.4,234.5,42.5,234.5,42.9 M203.1,44.3c0,1.1,0.1,2.3,0.1,2.7c0.1,0.4,0.1-0.3,0.1-1.8C203.2,42.2,203.1,41.7,203.1,44.3
		 M111.6,43.2c-0.1,0.3-0.2,0.6-0.1,0.6c0,0,0.1-0.2,0.3-0.5c0.1-0.3,0.2-0.6,0.1-0.6C111.8,42.7,111.7,42.9,111.6,43.2 M103.1,43.7
		c-0.1,0.2-0.1,0.5-0.1,0.5c0,0,0.1-0.2,0.2-0.4C103.4,43.2,103.3,43.1,103.1,43.7 M143.5,44.5c0,0.7,0,1,0.1,0.6c0-0.3,0-0.9,0-1.2
		C143.5,43.5,143.5,43.8,143.5,44.5 M251.4,43.7c0.1,0.2,0.2,0.4,0.3,0.5c0.1,0.1,0.1-0.1,0-0.4C251.4,43.2,251.2,43.1,251.4,43.7
		 M211.8,44.5c0,0.6,0,0.8,0.1,0.5s0-0.8,0-1.1S211.8,43.9,211.8,44.5 M373.7,43.7c-0.1,0.1-0.1,0.4-0.1,0.5s0.1,0.1,0.2-0.2
		C373.9,43.5,373.9,43.3,373.7,43.7 M52.3,44.1c-0.3,0.6-0.2,0.7,0.1,0.2c0.1-0.3,0.2-0.5,0.2-0.5C52.5,43.7,52.4,43.8,52.3,44.1
		 M234.5,45c-0.1,0.8-0.1,1.4,0,1.5c0.1,0.1,0.3-2.4,0.2-2.6C234.7,43.7,234.6,44.2,234.5,45 M110.8,45.4c-0.1,0.2-0.1,0.5-0.1,0.5
		c0,0,0.1-0.2,0.2-0.4C111.1,44.9,111,44.8,110.8,45.4 M340.2,45.4c0.1,0.6,0.2,0.7,0.2,0.3c0-0.2-0.1-0.4-0.2-0.6
		C340.1,45,340.1,45,340.2,45.4 M365.2,46.6c-0.1,0.1-0.1,0.4-0.1,0.5s0.1,0.1,0.2-0.2C365.4,46.4,365.4,46.1,365.2,46.6
		 M243.1,47.1c0,0.3-0.1,0.7-0.1,0.8c-0.1,0.3-0.1,0.3,0.1,0C243.2,47.8,243.3,47.4,243.1,47.1l0-0.5L243.1,47.1 M340.6,47.1
		c0,0.1,0.1,0.4,0.1,0.6c0.1,0.2,0.1,0.2,0.1,0.1c0-0.1-0.1-0.4-0.1-0.6C340.7,47,340.6,47,340.6,47.1 M193,47.3
		c-0.5,0.1-0.7,0.4-0.2,0.3c0.2,0,0.5-0.1,0.5-0.2c0.1-0.1,0.1-0.1,0-0.1C193.4,47.2,193.2,47.2,193,47.3 M212.1,47.5
		c0,0.2,0.1,0.5,0.2,0.7c0.1,0.2,0.1,0.1,0.1-0.3C212.2,47.1,212.1,47,212.1,47.5 M234.2,47.6c-0.1,0.1-0.1,0.4-0.1,0.5
		c0,0.2,0.1,0.1,0.2-0.2C234.4,47.4,234.4,47.1,234.2,47.6 M341,48.8c0.1,0.2,0.2,0.4,0.3,0.5c0.1,0.1,0.1-0.1,0-0.4
		C341,48.4,340.8,48.3,341,48.8 M271.5,49.3c-0.1,0.3-0.1,0.5-0.1,0.5c0.1,0,0.4-0.9,0.3-0.9C271.7,48.8,271.6,49,271.5,49.3
		 M203.6,49.4c0,0.2,0.1,0.4,0.2,0.6c0.1,0.2,0.1,0.1,0.1-0.2C203.7,49.1,203.6,49,203.6,49.4 M372,49.6c-0.1,0.1-0.1,0.4-0.1,0.5
		s0.1,0.1,0.2-0.2C372.3,49.4,372.2,49.1,372,49.6 M146.9,53.7c0.3,0.3,0.6,0.6,0.6,0.6c0,0-0.2-0.3-0.5-0.6
		c-0.3-0.3-0.6-0.6-0.6-0.6S146.6,53.4,146.9,53.7 M162.4,53.2c0,0,0.3,0.3,0.7,0.6s0.7,0.5,0.7,0.4s-0.3-0.3-0.7-0.6
		C162.7,53.3,162.4,53.1,162.4,53.2 M129.8,53.8c0.1,0.3,0.2,0.5,0.2,0.4c0.1-0.1-0.2-0.9-0.3-0.9C129.6,53.3,129.7,53.5,129.8,53.8
		 M216.5,54.6c0.2,0.1,0.5,0.3,0.7,0.4l0.3,0.2l-0.3-0.3c-0.2-0.1-0.5-0.3-0.7-0.4l-0.3-0.2L216.5,54.6 M158.1,55.5
		c-0.3,0.2-0.6,0.4-0.6,0.4c0,0,0.3-0.1,0.7-0.3s0.7-0.4,0.7-0.4C158.8,55.1,158.8,55.1,158.1,55.5 M324.3,59.5v3.9h-13
		c-7.2,0-13,0.1-12.9,0.1c0.1,0.2,25.8,0.2,26-0.1c0.2-0.2,0.3-7.6,0.1-7.7C324.4,55.7,324.3,57.4,324.3,59.5 M226.2,56.1
		c-0.2,0.1-0.2,0.1-0.1,0.1c0.1,0,0.4-0.1,0.6-0.1c0.2-0.1,0.2-0.1,0.1-0.1C226.6,56,226.4,56.1,226.2,56.1 M153.2,56.6
		c0.3,0,0.8,0,1.2,0c0.3,0,0.1-0.1-0.5-0.1C153.2,56.5,152.9,56.6,153.2,56.6 M222.6,56.6c0.4,0,1,0,1.4,0c0.4,0,0.1-0.1-0.7-0.1
		C222.5,56.5,222.2,56.6,222.6,56.6 M139.4,57.9c0,0.1,0.5,0.6,1,1.2l1,1l-1-1.1C140,58.4,139.5,57.9,139.4,57.9
		C139.4,57.8,139.4,57.8,139.4,57.9 M208.6,58.9c0.3,0.3,0.6,0.6,0.6,0.6s-0.2-0.3-0.5-0.6c-0.3-0.3-0.6-0.6-0.6-0.6
		C208.1,58.3,208.3,58.6,208.6,58.9 M105.4,59.7c-0.1,0.3-0.2,0.6-0.1,0.6c0,0,0.1-0.2,0.3-0.5c0.1-0.3,0.2-0.6,0.1-0.6
		C105.7,59.2,105.5,59.4,105.4,59.7 M257.5,59.5c0.1,0.2,0.2,0.4,0.3,0.5c0.1,0.1,0.1-0.1,0-0.4C257.5,59.1,257.3,58.9,257.5,59.5
		 M142.3,60.6c0.6,0.4,0.9,0.5,0.5,0.2c-0.2-0.2-0.5-0.3-0.6-0.3C142.1,60.5,142.1,60.6,142.3,60.6 M104.6,61.8
		c-0.1,0.3-0.2,0.6-0.1,0.6c0,0,0.1-0.2,0.3-0.5c0.1-0.3,0.2-0.6,0.1-0.6C104.8,61.3,104.7,61.5,104.6,61.8 M258.4,61.7
		c0.1,0.2,0.2,0.4,0.3,0.5c0.1,0.1,0.1-0.1,0-0.4C258.4,61.2,258.2,61.1,258.4,61.7 M201.4,62.8c0.3,0.7,0.4,0.7-4.6,0.7
		c-4.4,0-4.8,0-5-0.3c-0.1-0.2-0.2-0.2-0.2-0.1c0,0.5,0.5,0.6,5.3,0.5C202,63.6,202.2,63.5,201.4,62.8
		C201.2,62.4,201.2,62.4,201.4,62.8 M337.1,63c0,0.6,0.3,0.7,3.8,0.7c1.9,0,3.5-0.1,3.5-0.1c0-0.1-1.5-0.1-3.5-0.1l-3.6,0l-0.2-0.4
		C337.2,62.9,337.1,62.8,337.1,63 M95,63.2c0,0.3,8.6,0.6,9,0.3c0.1-0.1-1.9-0.1-4.4-0.1C95.4,63.5,95.1,63.5,95,63.2
		C95,62.9,95,63,95,63.2 M259.2,63.5c0,0.1,1.5,0.1,3.3,0.1c1.8,0,3.3-0.1,3.3-0.1c0-0.1-1.4-0.1-3.3-0.1
		C260.6,63.4,259.2,63.4,259.2,63.5 M364.3,63.5l-3.7,0.1l3.7,0c2.3,0,3.7,0,3.8-0.1c0.1-0.1,0-0.2,0-0.1
		C368.1,63.4,366.4,63.4,364.3,63.5 M127,63.6c1.3,0,3.3,0,4.6,0c1.3,0,0.2-0.1-2.3-0.1C126.7,63.5,125.7,63.6,127,63.6 M228.6,63.8
		c-0.3,0.1-0.4,0.1-0.1,0.1c0.2,0,0.4-0.1,0.6-0.1C229.4,63.6,229.2,63.6,228.6,63.8 M151.1,64.3c0.2,0,0.4,0,0.6,0s0-0.1-0.3-0.1
		C151.1,64.2,151,64.2,151.1,64.3 M219.5,64.3c0.2,0,0.4,0,0.6,0c0.2,0,0-0.1-0.3-0.1C219.4,64.2,219.3,64.2,219.5,64.3 M226.5,64.3
		c0.2,0,0.4,0,0.6,0c0.2,0,0-0.1-0.3-0.1C226.4,64.2,226.3,64.2,226.5,64.3 M152.3,64.4c0.2,0,0.4,0,0.6,0c0.2,0,0-0.1-0.3-0.1
		S152.1,64.4,152.3,64.4 M220.6,64.4c0.2,0,0.4,0,0.6,0s0-0.1-0.3-0.1C220.6,64.3,220.5,64.4,220.6,64.4 M225.3,64.4
		c0.2,0,0.4,0,0.6,0c0.2,0,0-0.1-0.3-0.1S225.1,64.4,225.3,64.4 M250.5,71c0,0.1-0.1,3.8,0,8.3l0,8.1l0.1-8.3c0-4.6,0.1-8.3,0-8.3
		C250.6,70.8,250.5,70.9,250.5,71 M235,80.1c0,8.1-0.2,7.5,1.5,7.5l1.2,0l-1.2-0.1l-1.2-0.1l-0.1-7.2l-0.1-7.2L235,80.1 M237.8,80.3
		c0,3.9,0,5.5,0,3.5c0-1.9,0-5.1,0-7.1C237.9,74.8,237.8,76.4,237.8,80.3 M353.8,80.8l0,6.6l0-6.3c0-5,0.1-6.3,0.3-6.2
		c0.1,0.1,0.1,0,0-0.2c-0.1-0.2-0.3-0.4-0.3-0.4S353.8,77.2,353.8,80.8 M299.9,79.1c0,0.6,0,1,0.1,0.9c0.1-0.1,0.1-0.5,0.1-1
		l-0.1-0.9L299.9,79.1 M326.8,79.1c0,0.6,0,0.8,0.1,0.5c0-0.3,0-0.8,0-1.1C326.8,78.3,326.8,78.5,326.8,79.1 M253.4,85.2
		c0.1,0.1,2.3,0.1,4.9,0.1l4.7,0l-4.9-0.1C255.5,85.1,253.3,85.1,253.4,85.2 M273.4,85.2c0.1,0.1,1.9,0.1,4.1,0.1l4,0l-4.1-0.1
		C275.1,85.1,273.3,85.1,273.4,85.2 M293.5,85.3c1.4,0,3.6,0,4.9,0c1.4,0,0.2-0.1-2.5-0.1C293.2,85.2,292.1,85.2,293.5,85.3
		 M281.8,86.4c0,0.6,0,0.8,0.1,0.5c0-0.3,0-0.8,0-1C281.8,85.6,281.8,85.8,281.8,86.4 M288.6,87.5c0.1,0.1,2.9,0.1,6.2,0.1l6.1,0
		l-6.2-0.1C291.2,87.4,288.5,87.4,288.6,87.5 M351.2,87.5c0.1,0.1,0.7,0.1,1.3,0.1l1.1-0.1l-1.3-0.1
		C351.7,87.4,351.2,87.4,351.2,87.5 M368.1,87.5c0.1,0.1,0.7,0.1,1.3,0.1l1.1-0.1l-1.3-0.1C368.5,87.4,368,87.4,368.1,87.5
		 M253.8,87.6c1.7,0,4.5,0,6.2,0c1.7,0,0.3,0-3.1,0S252.1,87.6,253.8,87.6 M273.5,87.6c1.5,0,4,0,5.5,0c1.5,0,0.2-0.1-2.8-0.1
		S271.9,87.6,273.5,87.6 M360.6,87.6c0.2,0,0.5,0,0.8,0c0.2,0,0-0.1-0.4-0.1C360.5,87.5,360.3,87.6,360.6,87.6"/>
	<path id="path6" class="st0" d="M67.6,8.6l0,3.8l3.8,0l3.8,0V8.6V4.8h-3.7h-3.7L67.6,8.6"/>
	<path id="path7" class="st0" d="M314.5,70.6c0.2,0,0.4,0,0.6,0c0.2,0,0-0.1-0.3-0.1C314.4,70.5,314.3,70.5,314.5,70.6 M316.3,70.6
		c0.2,0,0.4,0,0.6,0c0.2,0,0-0.1-0.3-0.1S316.1,70.5,316.3,70.6 M335.5,70.6c0.2,0,0.4,0,0.6,0c0.2,0,0-0.1-0.3-0.1
		C335.4,70.5,335.3,70.5,335.5,70.6 M337.2,70.6c0.2,0,0.5,0,0.7,0c0.2,0,0-0.1-0.4-0.1C337.1,70.5,337,70.6,337.2,70.6 M232.9,70.9
		c1.9,0,5.1,0,7.1,0c1.9,0,0.4,0-3.5,0C232.5,70.9,230.9,70.9,232.9,70.9 M250.7,70.9c0,0.1,2.6,0.1,5.9,0.1s5.9-0.1,5.9-0.1
		c0-0.1-2.7-0.1-5.9-0.1S250.7,70.9,250.7,70.9 M271.4,70.9c0.3,0,0.8,0,1.2,0c0.3,0,0.1-0.1-0.5-0.1
		C271.4,70.9,271.1,70.9,271.4,70.9 M291.5,70.9c1.6,0,4.3,0,5.9,0c1.6,0,0.3-0.1-3-0.1S289.8,70.9,291.5,70.9 M352.2,70.9
		c0.5,0,1.3,0,1.8,0c0.5,0,0.1-0.1-0.9-0.1C352.1,70.9,351.7,70.9,352.2,70.9 M366.7,71.1C366.5,71.4,366.5,71.4,366.7,71.1
		c0.3-0.1,0.8-0.1,2.1-0.1c1,0,1.7,0,1.7-0.1C370.3,70.6,367,70.8,366.7,71.1 M229.2,72c0,0.7,0.1,1,0.3,1.1c0.2,0,0.2,0,0.1-0.1
		C229.4,72.9,229.3,72.5,229.2,72l0-1L229.2,72 M273.2,78.1c0,3.9,0,5.5,0,3.5c0-1.9,0-5.1,0-7.1C273.2,72.7,273.2,74.2,273.2,78.1
		 M288.5,79.2c0,4.5,0,6.3,0,4s0-5.9,0-8.2C288.5,72.9,288.5,74.7,288.5,79.2 M235.1,80.2c0,3.9,0,7.2,0.1,7.2
		c0.1,0.1,0.1-5.5,0-11.8C235.2,74.2,235.2,76.3,235.1,80.2 M253.2,75.5l0,2.4l4.3,0l4.3,0l-4.3,0l-4.3,0L253.2,75.5l0-2.4
		L253.2,75.5 M310.5,74.7l-0.5,0.5L310.5,74.7c0.6-0.4,0.7-0.5,0.5-0.5C311,74.1,310.8,74.4,310.5,74.7 M341.3,74.2
		c0,0,0.2,0.3,0.5,0.5l0.5,0.5l-0.5-0.5C341.4,74.2,341.3,74.1,341.3,74.2 M367.9,80.7c0,3.6,0.1,6.6,0.2,6.7
		c0.1,0.1,0.1-2.8,0.1-6.4c0-3.6-0.1-6.6-0.2-6.7C367.9,74.2,367.9,77.1,367.9,80.7 M293.1,77.9c1.2,0,3.1,0,4.3,0
		c1.2,0,0.3-0.1-2.1-0.1S292,77.9,293.1,77.9 M299.8,79.1c0,0.6,0,1,0.1,0.9c0.1-0.1,0.1-0.5,0.1-1l-0.1-0.9L299.8,79.1 M329.6,79.1
		c0,0.4,0,0.6,0.1,0.4c0-0.2,0-0.5,0-0.8C329.7,78.6,329.6,78.7,329.6,79.1 M306,79.3c0,0.3,0,0.5,0.1,0.3c0-0.2,0-0.4,0-0.6
		C306,78.9,306,79,306,79.3 M253.2,82.6c0,1.4,0,1.9,0.1,1.2c0-0.7,0-1.8,0-2.5C253.2,80.6,253.2,81.2,253.2,82.6 M331.1,83.4
		c0,0,0.2,0.3,0.5,0.5l0.5,0.5l-0.5-0.5C331.2,83.3,331.1,83.2,331.1,83.4 M300.8,86.4c0,0.6,0.1,1,0.1,1c0.1,0,0.1-0.5,0.1-1
		c0-0.5-0.1-0.9-0.1-1C300.9,85.4,300.8,85.8,300.8,86.4 M315.1,87.9c0.3,0,0.7,0,0.9,0c0.3,0,0-0.1-0.5-0.1S314.9,87.9,315.1,87.9
		 M336.1,87.9c0.3,0,0.7,0,0.9,0c0.3,0,0-0.1-0.5-0.1S335.9,87.9,336.1,87.9"/>
	<path id="path8" class="st0" d="M262.5,72c0,0.6,0.1,1.1,0.1,1.1c0.1,0,0.1-0.5,0.1-1.1c0-0.5-0.1-1-0.1-1.1
		C262.6,70.9,262.5,71.3,262.5,72 M351.2,79.2c0,4.5,0,6.3,0,4s0-5.9,0-8.2C351.2,72.9,351.2,74.7,351.2,79.2 M315.2,72.8
		c0.2,0,0.5,0,0.8,0c0.2,0,0-0.1-0.4-0.1C315.2,72.7,315,72.7,315.2,72.8 M336.3,72.8c0.3,0,0.6,0,0.8,0c0.2,0,0-0.1-0.5-0.1
		C336.2,72.7,336.1,72.7,336.3,72.8 M262,79c0,0.5,0,0.7,0.1,0.5s0-0.7,0-0.9S262,78.5,262,79"/>
</g>
</svg>
