<?xml version="1.0" encoding="utf-8"?>
<!-- Generator: Adobe Illustrator 24.1.0, SVG Export Plug-In . SVG Version: 6.00 Build 0)  -->
<svg version="1.1" id="svg" xmlns="http://www.w3.org/2000/svg" xmlns:xlink="http://www.w3.org/1999/xlink" x="0px" y="0px"
	 viewBox="0 0 400 195.5" style="enable-background:new 0 0 400 195.5;" xml:space="preserve">
<style type="text/css">
	.st0{fill-rule:evenodd;clip-rule:evenodd;fill:#f8f9fa;}
</style>
<g id="svgg">
	<path id="path0" class="st0" d="M105.6,1.4C99.9,3.4,95.2,6.7,90.4,12c-19.1,21.2-5.2,41,18.1,25.9C131.7,23,129.4-7.1,105.6,1.4
		 M162.8,9.1c-15,5.8-27.4,25.9-22.8,37c5.8,14,32.7,4.6,42.2-14.8C190.8,13.5,180.9,2.2,162.8,9.1 M47.2,34.9
		c-14.8,6.7-24.2,26.5-16,33.6c10.6,9.1,35.5-8.6,35.6-25.2C66.9,33.9,57.8,30,47.2,34.9 M300.5,47.6c-6.5,0.5-7.7,3.3-1.3,3.3
		c10.1,0,10.3,0.7,3.9,17.2c-6.2,16-5.6,15-8.2,13.2C277.5,69,238.4,95.8,238.4,120c0,21.3,27.5,25,43.9,5.8l4-4.6l-0.6,5.2
		c-1.7,14.5,15.5,16.3,27.3,2.9l3.9-4.5l1.6,3.3c6.5,13.6,27,13.5,41.7-0.1l4.6-4.2l-0.4,5.4c-0.9,11.4,16,12.6,25.8,1.9
		c5.1-5.5,9.9-13.7,8.6-14.5c-2-1.3-2.4-1-7.1,5.6c-7.9,11.1-14.7,14.8-15.4,8.4c-0.5-4.1,5.4-20.6,12.9-35.9
		c3.8-7.7,6.8-14.2,6.8-14.4c0-2.1-13.1-0.1-14.2,2.1l-1.1,2.5l-2.6-2.4c-13.4-12.7-46.1,3.4-58.5,28.6c-9.4,19.3-21.4,29-22.2,18
		c-0.2-3.2,2.7-12.5,13.2-42.5c7.4-21.1,13.5-38.7,13.5-39C324.2,46.9,310.3,46.9,300.5,47.6 M81.2,78.8c-9.9,2.4-25.8,21-18,21
		c0.7,0,2.1-1.7,3.2-3.7c3.5-6.5,11-13.5,14.2-13.1c5.8,0.7,4,9.9-7.2,38L67,136.7l6.1,0l6.1,0l7.9-15.2
		c13.8-26.7,24.2-38.6,33.5-38.6c6.1,0,4.6,6.3-8.4,35.8c-4.2,9.5-7.6,17.4-7.6,17.7s2.8,0.4,6.3,0.4h6.3l5.3-11.4
		c12-26,27.2-43.2,37.2-42.2c4.8,0.5,4.2,5-2.8,19.4c-12,24.8-12.5,32.6-2.5,35.3c6.7,1.8,17.9-3.1,23.1-10.1l2.1-2.8l2.1,4.2
		c5,9.9,21,12.2,35.2,5c6-3,16.5-12,15.7-13.4c-1.2-2-3.9-0.7-9.8,4.7c-16.6,15.4-33.3,12.3-28.1-5.2l1.5-5l7.3-2.3
		c31.2-9.8,44.5-21.3,35.3-30.5c-12.8-12.8-48.7,6.4-56.5,30.1c-2.4,7.2-16,21.2-20.7,21.2c-4.6,0-4.2-2.6,2.9-17.6
		c10.3-21.7,11.9-28.5,7.8-33.6c-6.2-7.8-19.5-4.7-31.8,7.5c-3.5,3.5-6,5.4-5.6,4.3c7.4-20-18.7-21.6-34.6-2.1
		c-2.3,2.8-4.5,5.5-5,6.1c-0.5,0.5-0.5-2.2-0.2-6.1c0.8-8.3-0.3-10.9-5.1-13C86.5,77.7,85.8,77.6,81.2,78.8 M228.5,81.8
		c2,0,3.1,4.1,1.9,7.5c-2.2,6.6-18.5,18.3-29.3,21l-2.8,0.7l4.6-8.9c6.6-12.8,17.8-22.7,23.4-20.8C227,81.6,228,81.8,228.5,81.8
		 M292,84.4c6.9,7.7-9,41.3-22.8,48.3c-13.4,6.9-21.3-1.5-15.7-16.7C262.7,91.1,283.1,74.4,292,84.4 M373.9,83.1
		c7.9,6.3-8.1,38.9-23.8,48.3c-12.3,7.4-22.5,2-19-10.1C338.3,97.1,363.3,74.8,373.9,83.1 M19.6,89.2c-11.9,4.4-21.5,17.9-19.2,27
		c3.2,12.7,25.3,5.3,32.6-10.8C38.3,93.7,31.1,84.9,19.6,89.2 M23.4,142.3c-16.7,8.8-18.1,31.1-1.6,26.3
		c16.5-4.8,23.9-28.1,8.8-27.9C28.3,140.7,25.1,141.4,23.4,142.3 M52.8,170.9c-8.4,4.4-13.8,16.6-9.3,21.1
		c6.8,6.8,23.4-4.7,23.4-16.2C66.8,168.6,61,166.5,52.8,170.9 M98.9,177.2c-6.8,3.3-11.3,13-7.7,16.6c2.3,2.3,6.6,2.1,10.6-0.6
		C113.8,185.1,111.3,171.1,98.9,177.2"/>
</g>
</svg>
