<?xml version="1.0" encoding="utf-8"?>
<!-- Generator: Adobe Illustrator 24.1.0, SVG Export Plug-In . SVG Version: 6.00 Build 0)  -->
<svg version="1.1"
	 id="svg2985" inkscape:version="0.48.5 r10040" sodipodi:docname="NBA_Secondary_Logo.jpg.svg" xmlns:cc="http://creativecommons.org/ns#" xmlns:dc="http://purl.org/dc/elements/1.1/" xmlns:inkscape="http://www.inkscape.org/namespaces/inkscape" xmlns:rdf="http://www.w3.org/1999/02/22-rdf-syntax-ns#" xmlns:sodipodi="http://sodipodi.sourceforge.net/DTD/sodipodi-0.dtd" xmlns:svg="http://www.w3.org/2000/svg"
	 xmlns="http://www.w3.org/2000/svg" xmlns:xlink="http://www.w3.org/1999/xlink" x="0px" y="0px" viewBox="0 0 1053.1 614.3"
	 style="enable-background:new 0 0 1053.1 614.3;" xml:space="preserve">
<style type="text/css">
	.st0{fill:#FFFFFF;}
	.st1{fill-rule:evenodd;clip-rule:evenodd;fill:#FFFFFF;}
</style>
<sodipodi:namedview  bordercolor="#666666" borderopacity="1" fit-margin-bottom="0" fit-margin-left="0" fit-margin-right="0" fit-margin-top="0" gridtolerance="10" guidetolerance="10" id="namedview3007" inkscape:current-layer="svg2985" inkscape:cx="-408.08834" inkscape:cy="-292.41457" inkscape:object-paths="false" inkscape:pageopacity="0" inkscape:pageshadow="2" inkscape:window-height="706" inkscape:window-maximized="1" inkscape:window-width="1366" inkscape:window-x="-8" inkscape:window-y="-8" inkscape:zoom="0.28579418" objecttolerance="10" pagecolor="#ffffff" showgrid="false">
	</sodipodi:namedview>
<g id="g3063" transform="matrix(1.9496062,0,0,1.9496062,-581.90308,554.96308)">
	<g id="g3122" transform="translate(0,-378.68855)">
		<path class="st0" d="M404.9,94h-74c-18,0-32.4,14.5-32.4,32.4v250.2c0,18,14.5,32.4,32.4,32.4h74c18,0,32.4-14.5,32.4-32.4V126.5
			C437.3,108.5,422.9,94,404.9,94z M378.5,143.5c2-0.3,4.6-4.6,6.8-9.2c1.7,0.1,2.2-1.6,2.8-2.5c1.8-2.9,3.7-5.4,1.2-7.2
			c5.6-10.2,2-17.1-1-17.3c-1.3-2.5-3.5-4.2-7.3-5.5h23.8c13.8,0,24.9,11.2,24.9,25v120.6c-0.7-1.8-1.6-3.5-2.9-5.2
			c0-3.3-3.6-3.3-4.6-4.5c-0.9-1.1,0.9-1.7-5.3-3.1c-1.2-0.7-2.1-9.8-2.1-9.8c-0.9-5.8-3-9.9-6.1-16.1c-1.5-3.1-2.3-13-4-18.1
			c0.9-23.2-6.4-29.9-12.4-33.7c-2.3-1.5-3.5-2.5-5.7-3.9l-0.1-1.1h0c-1.8-1.7-5.3-3.4-8.2-4.7C377.5,146.2,377.9,144.2,378.5,143.5
			z M330.5,401.4c-13.5-0.3-24.4-11.4-24.4-24.9V126.7c0-13.7,10.9-24.7,24.4-25h42.6c-8.1,3.1-9.2,6.6-9.5,17.9
			c-1.4,0.2-4.2-1.2-3.2,5.7c0,0,0.5,4.6,2.3,3.8c-1.4,9.9-0.3,12.4-6.9,13.1c-1.4,0.2-3.1,0.3-5.3,0.4l-0.7,0.9
			c-9,0.9-13.5,0.3-19.3,8c-2.2,2.9-4.6,7.1-7.6,13c0,0-2.7,6.6-3.5,9.4c-2.6,5.4-8.9,17.5-10.8,25.2c-0.6,2.6-1.8,3.5-0.1,7.3
			c2.5,5.5-1.6,6.9,12.5,6.5v3.2c0,0-3.8,3.2-4.6,5.2c-0.8,2-2.9,11.7-2.8,16.3c0.3,12,10,22.1,12.9,34.1l6.5,0.9
			c3.6,8.2,19.1,30.2,22.7,33.7c0.1,0.1,0.1,0.1,0.2,0.2c0.8,2.1,4.8,4.7,7.2,7.3c1.4,1.4,8,8.5,16.7,15.2c3.2,2.5,6.6,4.9,10.3,7
			c-0.1-0.1,2.1,4.4,3.2,8.1c-4.5,3.6,4.2,10.2,6.9,21.1c0.2,1.5-2.5,2.9,1.5,6.5c-0.3,16.5-5.3,25.1,3.1,29.7H330.5z M429.7,376.5
			c0,12.5-9,22.8-21,24.6l-0.3,0.1c10.9-6.6,4.2-19.2,2.1-26.6l0.4-1.3c0.6-1-0.6-3.4-0.6-3.4c-1.4-1.1-1.7-7.3-2.4-10.1
			c-1.2-4.6,2.1-12.7,2.1-15.4c0-2.7-2.1-6.5-5.8-11.3c-0.9-1.1-3.7-24.5-6.1-30.4c-3.4-8.2-4.4-6.9-8.5-16.6
			c-3.1-6.9-0.7-17-7.7-40.4l1.6-1.5c0,0-5.6-20.4-7.4-26c-1.8-5.6-5.1-5.9-5.1-5.9l0.2-2.9c0.3-0.9,6.8-17.9,7.4-18.4
			c0.1-0.4,9.4-6.8,9.6-5.8c0.8,4.2,4.4,25.3,6,28.7c1.6,3.4,7,13.8,9.5,20.2c-9.7,2.4-17,11.2-17,21.6c0,12.3,9.9,22.3,22.2,22.3
			c9.4,0,17.5-5.8,20.8-14.1L429.7,376.5z"/>
		<g id="g3102" transform="matrix(5.917629,0,0,6.6180124,-1431.5389,-2152.8646)">
			<path id="rect3035" inkscape:connector-curvature="0" sodipodi:nodetypes="ccccccccccc" class="st1" d="M322.1,340.7v45.2h5.5
				c0-11.7,0.3-23.3-0.5-34.9l6.3,34.9h7.8v-45.2h-5.4c-0.1,12,0.4,23.8,1.3,35.5l-6.6-35.5H322.1z"/>
			<path id="rect3043" inkscape:connector-curvature="0" class="st1" d="M369.5,340.6l-5.4,45.3h6.7l0.9-9.2h4.4l0.9,9.2h6.7
				l-5.2-45.3H369.5z M373.9,353.4l1.7,18h-3.4L373.9,353.4z"/>
			<path id="path3059" inkscape:connector-curvature="0" class="st0" d="M345.5,340.7v45.2h9.8c1.6,0,7.1-1.3,7.1-7.5v-9
				c0-1,0-3.9-2.9-5.7c1.8,0,2.9-3.2,2.9-6v-9.7c0-3.8-2.6-7.3-7.9-7.2H345.5z M351.5,346.4h3c1.4,0,1.8,1.3,1.8,2.4v10.5
				c0,1.8-0.7,1.9-2,1.9h-2.8V346.4z M351.5,366.2h3c1.4,0,1.8,1.3,1.8,2.4v9.4c0,1.2-0.7,2.2-2,2.2l-2.8,0V366.2L351.5,366.2z"/>
		</g>
	</g>
</g>
</svg>
