<?xml version="1.0" encoding="utf-8"?>
<!-- Generator: Adobe Illustrator 24.1.0, SVG Export Plug-In . SVG Version: 6.00 Build 0)  -->
<svg version="1.1" id="Layer_1" xmlns="http://www.w3.org/2000/svg" xmlns:xlink="http://www.w3.org/1999/xlink" x="0px" y="0px"
	 viewBox="0 0 490.7 277" style="enable-background:new 0 0 490.7 277;" xml:space="preserve">
<style type="text/css">
	.st0{fill:#f8f9fa;}
</style>
<g>
	<path class="st0" d="M381.2,187.4c-47.2,4.8-93.3,13-137.9,24.6c-33,8.6-64.3,18.7-93.3,30.2c90.1-12.2,204.4-13.5,340.8,14.9
		v-39.3c-34.7-13-71.2-23.2-109.4-30.4L381.2,187.4z"/>
	<path class="st0" d="M149.8,242.3c0,0,0.1,0,0.1-0.1C149.9,242.3,149.9,242.3,149.8,242.3L149.8,242.3z"/>
	<path class="st0" d="M346.8,181.8h0.1c-41.9-5.9-85.5-8.5-130.8-7.7C122.1,175.8,43.1,192,0,203h0v74c29.8-10,66.8-20.4,110.8-28.5
		h0.1c38.8-18.1,82.8-33.7,129.9-45.9C275.4,193.7,310.7,186.8,346.8,181.8z"/>
	<path class="st0" d="M397.8,185.9L397.8,185.9c32.2,6.9,63.2,15.9,92.9,26.9v-30.4C459.4,182.1,428.4,183.3,397.8,185.9z"/>
	<path class="st0" d="M429,67.5c-14,0-22,10-22,22.1c0,11.7,8.4,21.4,21.8,21.4h0.1c13.6,0,21.9-9.4,21.9-21.9
		C450.9,77.9,443.1,67.5,429,67.5z"/>
	<path class="st0" d="M0,0v190.1h0c43.6-9,122.3-22.1,216-23.4c51.4-0.7,100.8,2.1,147.9,8.4l0.2,0c41.4-4,83.6-5.9,126.5-5.7V0H0z
		 M303.7,119.8c-8,0-16.3-1.9-20.5-4.2l5.2-8.3c4.3,1.8,10.3,3.3,16.4,3.3c8.3,0,13.1-3.2,13.1-8c0-4.4-3.5-7-13.1-9.5
		c-12.5-3.2-20.4-8.3-20.4-17.5c0-9.9,10.1-17.2,25.6-17.2c8,0,13.8,1.3,17.9,3l-5.1,8.3c-3-1.1-7.5-2.2-13.2-2.2
		c-8.5,0-12,3.7-12,7.1c0,4.5,4.4,6.7,14.2,9.4c12.9,3.6,19.3,8.6,19.3,17.8C331.1,111.1,323,119.8,303.7,119.8z M387,68.5h-30.3v16
		h23.8l-2.3,9.2h-21.4v25.1h-13V59.4H387V68.5z M428.5,119.8L428.5,119.8c-21.1,0-35.1-12.8-35.1-29.9c0-18.2,15-31.2,36-31.2
		c21.6,0,35.3,12.8,35.3,30C464.7,107.6,449.3,119.8,428.5,119.8z"/>
</g>
</svg>
