<?xml version="1.0" encoding="utf-8"?>
<!-- Generator: Adobe Illustrator 24.1.0, SVG Export Plug-In . SVG Version: 6.00 Build 0)  -->
<svg version="1.1" id="svg" xmlns="http://www.w3.org/2000/svg" xmlns:xlink="http://www.w3.org/1999/xlink" x="0px" y="0px"
	 viewBox="0 0 270.8 274.8" style="enable-background:new 0 0 270.8 274.8;" xml:space="preserve">
<style type="text/css">
	.st0{fill-rule:evenodd;clip-rule:evenodd;fill:#F8F9FA;}
</style>
<g id="svgg">
	<path id="path0" class="st0" d="M125.7,0.1c-0.7,0.1-3,0.4-5.2,0.6C96.6,3.5,75.2,11.4,64,21.5c-1.4,1.3-4.5,3.5-6.9,5
		c-20.9,13-36,33.5-47.5,64.4c-1.1,3-2.7,7-3.5,9c-10.1,24.5-7.5,61.6,6.3,90.8c1.2,2.6,2.5,6,2.9,7.4c5,21.3,34.5,52.9,54.5,58.4
		c1.7,0.5,5.3,1.9,7.9,3.1c30.5,14.4,62,18.8,87.4,12.1c2.2-0.6,6.4-1.6,9.4-2.3c28.4-6.6,49.8-21,69.4-46.9
		c4.5-5.9,9.9-15.4,9.9-17.3c0-0.4,0.6-1.5,1.4-2.5c13.6-17.8,18.1-44.4,14.2-82.9c-3.4-33.3-13.7-56.7-30.9-70.5
		c-2.1-1.7-3.7-3.5-5.2-5.7c-14.1-21.2-51.9-41.2-79.5-42c-3.3-0.1-7.4-0.5-9-0.8C142,0.3,128.6-0.3,125.7,0.1 M163,9.7
		c15.5,2.5,32.7,10.3,48.1,21.7c8.5,6.3,17.8,16.3,17.1,18.2c-0.3,0.9-0.3,0.9-3-1.3c-8.6-7-25.1-13.6-38.6-15.6l-3.8-0.5l-2.7-2.6
		c-6.7-6.4-17.1-14-25.5-18.4l-5.1-2.7l4.8,0.2C156.9,9,160.8,9.3,163,9.7 M144,14.2c9.3,3.5,21.2,11.3,29.9,19.5l2.8,2.6l-2.6,7.1
		c-1.4,3.9-3.8,10.3-5.2,14.2c-1.4,3.9-3.3,9.1-4.3,11.5l-1.7,4.4l-4.3,0.5c-8.8,1-26.1,5-42.5,9.7c-4.8,1.4-9.1,2.6-9.5,2.7
		c-0.4,0.1-1.8-0.7-3.8-2.3c-5.6-4.6-18.4-13.9-24.7-18.1c-3.4-2.3-6.6-4.4-7.1-4.7c-1-0.7-0.5-3.4,1.9-10.7
		c3.6-11,7.6-18.3,13.4-24.5c4.1-4.4,24.2-10.7,40.5-12.7C132.2,12.9,141.4,13.3,144,14.2 M74.6,27.9C69.1,36.5,65,46.3,63,55.6
		c-0.5,2.3-0.9,4.1-1,4.2c0,0-1.2,0.6-2.6,1.3C49.2,66.2,32,84.4,24.9,97.7c0,0-2.1-0.5-4.7-1.2l-4.7-1.3l0.9-2.3
		c3.4-9.1,10-22.8,14.7-30.3c9.8-15.9,29.7-33.1,40.3-34.8c1.9-0.3,3.6-0.6,3.7-0.6S74.9,27.4,74.6,27.9 M238,58.5
		c13.5,13.7,20.8,31.6,23.9,58.6c0.4,3.2,0.7,6.5,0.9,7.3c0.1,1.1-0.5,0.1-2.6-3.8c-4-7.3-7.5-12.8-10.8-16.9
		c-1.1-1.4-1.4-2.3-1.8-5c-1.9-13.7-6.7-27.7-14.2-40.9c-0.8-1.5-0.9-1.8-0.4-2.4C233.8,54.5,234.3,54.7,238,58.5 M168.6,84.6
		c14.9,12.5,29,29.1,35.4,41.5c2.1,4-5.4,30.1-13.4,46.8l-2.7,5.7l-3.2,1.2c-13.2,5.1-33.6,10.3-48.3,12.4l-4.7,0.7l-2.8-2.4
		c-13-11-37.6-36.8-37.6-39.4c0-2.1,7.3-30.3,10.1-38.7c2.7-8.2,7.3-19.2,8.1-19.2c0.1,0,3.6-1,7.8-2.3c11.2-3.4,26.3-7.1,33.6-8.3
		c8.2-1.3,8.5-1.4,11.3-1.4l2.3-0.1L168.6,84.6 M17.9,103.3l4.4,1.3l-0.2,2.8c-0.9,11,3.8,31.5,10.5,45.5l2,4.2l-1.2,3
		c-3.3,8.2-4.9,17.2-5.2,29.6c-0.3,9.5,0,9-3.7,7c-3.9-2.1-12-22.7-15.2-38.6c-3.6-18.3-2.3-41.9,3.1-54.8
		C13,101.7,12.5,101.7,17.9,103.3 M249.5,118.6c7.3,11.6,11,21.7,11,30.1c0,15.2-6.6,36.4-15.8,50.5c-4.1,6.3-17.4,13.4-29.2,15.5
		l-1.5,0.3l-2.6-5.2c-2.8-5.6-9.5-16.5-14.3-23.3l-2.9-4.1l3.1-6.3c6.1-12.3,12.1-31.6,14-45.3c0.6-4.4-0.5-3.5,12.7-9.9
		c6.2-3,13.2-6.5,15.6-7.9l4.4-2.5l1.5,2.1C246.3,113.7,248.1,116.5,249.5,118.6 M88.6,159.6c8.1,9.8,27,29.1,34,34.9
		c2.7,2.2,2.8,2.4,2.6,3.8c-0.5,3.3-8.8,41.1-9.2,41.6c-2,2.4-30.5,2.8-39.9,0.6c-7.3-1.7-30.3-22.6-38.1-34.5l-2.2-3.4l-0.5-5.1
		c-0.9-9.7,1.5-26.4,5.1-36l0.8-2.2l9.3-0.3c9.7-0.3,23.2-1.2,29.9-2.1c2.2-0.3,4.3-0.6,4.6-0.6C85.5,156.2,87,157.6,88.6,159.6
		 M241.3,214.1c-16.3,24.2-38.2,40.4-64.1,47.5l-3,0.8v-2.7V257l2.3-1.1c13.3-6.1,30.4-20.7,36.5-31.1l1.6-2.7l3.4-0.8
		c7.6-1.7,15.8-5,22.2-9c1.8-1.1,3.4-2.1,3.4-2.1C243.8,210.3,242.7,212,241.3,214.1 M131.5,252.8c9.1,3.3,18,5,28.2,5.3l7,0.2v2.8
		v2.8l-1.6,0.4c-25.7,6.9-54.8,2.9-86-11.8c-3.1-1.5-3.2-1.6-3.2-3v-1.5l1.6,0.3c9.2,1.6,33.4,0.6,40.7-1.5c0.2-0.1,2.5,0.9,5,2.2
		C125.7,250.4,129.5,252,131.5,252.8"/>
</g>
</svg>
