<?xml version="1.0" encoding="utf-8"?>
<!-- Generator: Adobe Illustrator 24.1.0, SVG Export Plug-In . SVG Version: 6.00 Build 0)  -->
<svg version="1.1" id="Layer_1" xmlns="http://www.w3.org/2000/svg" xmlns:xlink="http://www.w3.org/1999/xlink" x="0px" y="0px"
	 viewBox="0 0 360 79.2" style="enable-background:new 0 0 360 79.2;" xml:space="preserve">
<style type="text/css">
	.st0{fill:#FDBB30;}
	.st1{fill:#FCBA2F;}
	.st2{fill:#FFFFFF;}
	.st3{fill:none;}
</style>
<g id="art">
	<g>
		<g>
			<path class="st0" d="M65.4,25.5c0,0-1.2-1.1-2.6,0.3c-1.3,1.3-0.3,2.6-0.3,2.6l11.1,11.1l-11.1,11c0,0-1.1,1.2,0.3,2.6
				c1.3,1.3,2.6,0.3,2.6,0.3l14-14L65.4,25.5z"/>
			<path class="st0" d="M5.8,39.4l11.1-11c0,0,1.1-1.2-0.3-2.6c-1.3-1.3-2.6-0.3-2.6-0.3l-14,14l0,0l0,0l14,14c0,0,1.2,1.1,2.6-0.3
				c1.3-1.3,0.3-2.6,0.3-2.6L5.8,39.4z"/>
		</g>
		<g>
			<path class="st0" d="M53.3,62.5c-1.3-1.3-2.6-0.3-2.6-0.3l-11,11.1l-11.1-11c0,0-1.2-1.1-2.6,0.3c-1.3,1.3-0.3,2.6-0.3,2.6l14,14
				l0,0l0,0l14-14C53.6,65.2,54.7,63.9,53.3,62.5z"/>
			<path class="st0" d="M53.6,13.7l-14-14l0,0l0,0l-14,14c0,0-1.1,1.2,0.3,2.6c1.3,1.3,2.6,0.3,2.6,0.3L39.6,5.5l11.1,11.1
				c0,0,1.2,1.1,2.6-0.3C54.7,15,53.6,13.7,53.6,13.7z"/>
		</g>
	</g>
	<g>
		<path class="st1" d="M63.3,44.1c1.3-1.4,1-2.8,1-2.8H41.6V64c0,0,1.4,0.3,2.8-1s1.3-2.9,1.3-2.9V48.3L57.4,60c0,0,1.2,1.1,2.6-0.3
			c1.3-1.3,0.3-2.6,0.3-2.6L48.5,45.4h11.9C60.4,45.4,62,45.5,63.3,44.1z"/>
		<path class="st1" d="M37.8,41.3H15.1c0,0-0.3,1.4,1,2.8c1.3,1.4,2.9,1.3,2.9,1.3h11.9L19.1,57.1c0,0-1.1,1.2,0.3,2.6
			C20.7,61,22,60,22,60l11.7-11.7v11.9c0,0-0.1,1.6,1.3,2.9c1.4,1.3,2.8,0.9,2.8,0.9L37.8,41.3z"/>
		<path class="st1" d="M35,15.8c-1.4,1.3-1.3,2.9-1.3,2.9v11.9L22,18.9c0,0-1.2-1.1-2.6,0.3c-1.3,1.3-0.3,2.6-0.3,2.6l11.7,11.7
			H18.9c0,0-1.6-0.1-2.9,1.3c-1.3,1.4-1,2.8-1,2.8h22.7V14.9C37.8,14.9,36.4,14.6,35,15.8z"/>
		<path class="st1" d="M63.3,34.8c-1.3-1.4-2.9-1.3-2.9-1.3H48.6l11.7-11.7c0,0,1.1-1.2-0.3-2.6c-1.3-1.3-2.6-0.3-2.6-0.3L45.7,30.6
			V18.7c0,0,0.1-1.6-1.3-2.9c-1.4-1.3-2.8-1-2.8-1v22.7h22.7C64.3,37.6,64.6,36.2,63.3,34.8z"/>
	</g>
	<path class="st2" d="M96.5,30.9c-5.6,0-8.9-3.5-8.9-9.2V7.4h3.1v13.9c0,4,1.8,6.7,5.8,6.7c3.9,0,5.9-2.4,5.9-6.6v-14h3.1v14.2
		C105.5,27.4,102.1,30.9,96.5,30.9z"/>
	<path class="st2" d="M130.4,30.4l-12.7-18v18h-2.9v-23h2.8l12.3,17.2V7.4h2.9v23.1h-2.4V30.4z"/>
	<path class="st2" d="M142.9,30.4v-23h3.1v23.1h-3.1V30.4z"/>
	<path class="st2" d="M165.3,30.5h-2.8l-8.9-22.7l3.1-0.7l7.2,19.2l7.1-19h3.3L165.3,30.5z"/>
	<path class="st2" d="M181.3,30.4v-23h12.4v2.9h-9.3V17h7.2l0.5,2.9h-7.7v7.8h9.6v2.9h-12.7V30.4z"/>
	<path class="st2" d="M218.5,30l-3.2,0.7l-7.1-10h-2.3v9.7h-3.1v-23h6.3c4.7,0,7.7,2.3,7.7,6.6c0,3.5-2,5.5-5,6.4L218.5,30z
		 M208.9,10.1h-3v8h2.7c3,0,5-1.4,5-4C213.5,11.6,211.9,10.1,208.9,10.1z"/>
	<path class="st2" d="M231.2,30.7c-2.5,0-4.7-0.6-6.5-1.5l0.5-3.2c1.6,1,3.7,2,6,2c2.4,0,4.1-1.3,4.1-3.5c0-2.1-0.9-3-4.4-4.5
		c-4.3-2-6-3.4-6-6.7c0-3.7,2.8-6.1,7-6.1c2.2,0,3.9,0.5,5.2,1.3l-0.5,3.1c-1.3-1-3-1.7-4.8-1.7c-2.6,0-3.8,1.4-3.8,3.1
		c0,1.8,0.9,2.6,4.4,4.2c4.5,2,6,3.6,6,7.1C238.5,28.2,235.5,30.7,231.2,30.7z"/>
	<path class="st2" d="M247.3,30.4v-23h3.1v23.1h-3.1V30.4z"/>
	<path class="st2" d="M268.5,10.2v20.2h-3.1V10.2H258V7.3h17.6l0.5,2.9H268.5z"/>
	<path class="st2" d="M292.3,21.3v9.2h-3.1v-9.2L281,7.8l3.1-0.7l6.6,11.3l6.5-11h3.5L292.3,21.3z"/>
	<path class="st2" d="M329,30.9c-6.5,0-10.6-4.8-10.6-11.9c0-7.2,4.2-12,10.7-12s10.6,4.8,10.6,11.9S335.6,30.9,329,30.9z
		 M329.1,9.8c-4.6,0-7.4,3.5-7.4,9.1c0,5.5,2.8,9.1,7.4,9.1s7.4-3.5,7.4-9.1S333.6,9.8,329.1,9.8z"/>
	<path class="st2" d="M351.1,10.2v7.1h7l0.5,2.9h-7.4v10.3h-3.1V7.4h12v2.9L351.1,10.2L351.1,10.2z"/>
	<path class="st2" d="M93.2,71.8c-2.5,0-4.7-0.6-6.5-1.5l0.5-3.2c1.6,1,3.7,2,6.1,2c2.4,0,4.1-1.3,4.1-3.5c0-2.1-0.9-3-4.4-4.5
		c-4.3-2-6-3.4-6-6.7c0-3.7,2.8-6.1,7-6.1c2.2,0,3.9,0.5,5.2,1.3l-0.5,3.1c-1.3-1-3-1.7-4.8-1.7c-2.6,0-3.8,1.4-3.8,3.1
		c0,1.8,0.9,2.6,4.4,4.2c4.5,2,6,3.6,6,7.1C100.5,69.3,97.6,71.8,93.2,71.8z"/>
	<path class="st2" d="M123.5,71.8l-2.7-7.2h-9.5l-2.6,6.9h-3.2l9-23.2h3.1l8.9,22.7L123.5,71.8z M116,52.1l-3.7,9.7h7.4L116,52.1z"
		/>
	<path class="st2" d="M148.5,71.5l-12.7-18v18h-2.9v-23h2.8l12.2,17.3V48.5h2.9v23.1L148.5,71.5L148.5,71.5z"/>
	<path class="st2" d="M172.8,51.3v7.1h7l0.5,2.9h-7.4v10.3h-3.1V48.5h12v2.9h-9V51.3z"/>
	<path class="st2" d="M204.7,71.1l-3.2,0.7l-7.1-10H192v9.7h-3.1v-23h6.3c4.7,0,7.7,2.3,7.7,6.6c0,3.5-2,5.5-5,6.4L204.7,71.1z
		 M195.1,51.2h-3v7.9h2.7c3,0,5-1.4,5-4C199.8,52.7,198.2,51.2,195.1,51.2z"/>
	<path class="st2" d="M226.4,71.8l-2.7-7.2h-9.5l-2.6,6.9h-3.2l9-23.2h3.1l8.9,22.7L226.4,71.8z M218.9,52.1l-3.7,9.7h7.4
		L218.9,52.1z"/>
	<path class="st2" d="M251,71.5l-12.7-18v18h-2.9v-23h2.8l12.2,17.3V48.5h2.9v23.1L251,71.5L251,71.5z"/>
	<path class="st2" d="M271.4,72c-6.5,0-10.7-4.8-10.7-11.9c0-7.2,4.2-12,10.7-12c2.7,0,4.8,0.7,6.6,1.9l-0.5,3.2
		c-1.7-1.3-3.6-2.2-6.1-2.2c-4.7,0-7.5,3.5-7.5,9.1c0,5.5,2.8,9.1,7.5,9.1c2.5,0,4.6-1,6.5-2.3l0.5,3C276.7,71,274.1,72,271.4,72z"
		/>
	<path class="st2" d="M286.4,71.5v-23h3.1v23.1L286.4,71.5L286.4,71.5z"/>
	<path class="st2" d="M303.9,71.8c-2.5,0-4.7-0.6-6.5-1.5l0.5-3.2c1.6,1,3.7,2,6.1,2s4.1-1.3,4.1-3.5c0-2.1-0.9-3-4.4-4.5
		c-4.3-2-6-3.4-6-6.7c0-3.7,2.8-6.1,7-6.1c2.2,0,3.9,0.5,5.2,1.3l-0.5,3.1c-1.3-1-3-1.7-4.8-1.7c-2.6,0-3.8,1.4-3.8,3.1
		c0,1.8,0.9,2.6,4.4,4.2c4.5,2,6,3.6,6,7.1C311.2,69.3,308.2,71.8,303.9,71.8z"/>
	<path class="st2" d="M327.3,72c-6.5,0-10.7-4.8-10.7-11.9c0-7.2,4.2-12,10.7-12c2.7,0,4.8,0.7,6.6,1.9l-0.5,3.2
		c-1.7-1.3-3.6-2.2-6.1-2.2c-4.7,0-7.5,3.5-7.5,9.1c0,5.5,2.8,9.1,7.5,9.1c2.5,0,4.6-1,6.5-2.3l0.5,3C332.5,71,329.9,72,327.3,72z"
		/>
	<path class="st2" d="M349.3,72c-6.5,0-10.6-4.8-10.6-11.9c0-7.2,4.2-12,10.7-12S360,52.9,360,60S355.8,72,349.3,72z M349.3,50.9
		c-4.6,0-7.4,3.5-7.4,9.1c0,5.5,2.8,9.1,7.4,9.1s7.4-3.5,7.4-9.1S353.9,50.9,349.3,50.9z"/>
</g>
<g id="clear_space">
	<rect x="-23.1" y="-15.9" class="st3" width="406.1" height="110.8"/>
</g>
</svg>
