<?xml version="1.0" encoding="utf-8"?>
<!-- Generator: Adobe Illustrator 24.1.0, SVG Export Plug-In . SVG Version: 6.00 Build 0)  -->
<svg version="1.1" xmlns="http://www.w3.org/2000/svg" xmlns:xlink="http://www.w3.org/1999/xlink" x="0px" y="0px"
	 viewBox="0 0 406.2 110.7" style="enable-background:new 0 0 406.2 110.7;" xml:space="preserve">
<style type="text/css">
	.st0{fill:#FDBB30;}
	.st1{fill:#FCBA2F;}
	.st2{fill:#FFFFFF;}
	.st3{fill:none;}
</style>
<g id="art">
	<g>
		<g>
			<path class="st0" d="M88.5,41.4c0,0-1.2-1.1-2.6,0.3c-1.3,1.3-0.3,2.6-0.3,2.6l11.1,11.1L85.6,66.4c0,0-1.1,1.2,0.3,2.6
				c1.3,1.3,2.6,0.3,2.6,0.3l14-14L88.5,41.4z"/>
			<path class="st0" d="M28.9,55.3L40,44.3c0,0,1.1-1.2-0.3-2.6c-1.3-1.3-2.6-0.3-2.6-0.3l-14,14l0,0l0,0l14,14c0,0,1.2,1.1,2.6-0.3
				c1.3-1.3,0.3-2.6,0.3-2.6L28.9,55.3z"/>
		</g>
		<g>
			<path class="st0" d="M76.4,78.4c-1.3-1.3-2.6-0.3-2.6-0.3L62.8,89.2L51.7,78.2c0,0-1.2-1.1-2.6,0.3c-1.3,1.3-0.3,2.6-0.3,2.6
				l14,14l0,0l0,0l14-14C76.7,81.1,77.8,79.8,76.4,78.4z"/>
			<path class="st0" d="M76.7,29.6l-14-14l0,0l0,0l-14,14c0,0-1.1,1.2,0.3,2.6c1.3,1.3,2.6,0.3,2.6,0.3l11.1-11.1l11.1,11.1
				c0,0,1.2,1.1,2.6-0.3C77.8,30.9,76.7,29.6,76.7,29.6z"/>
		</g>
	</g>
	<g>
		<path class="st1" d="M86.4,60c1.3-1.4,1-2.8,1-2.8H64.7l0,22.7c0,0,1.4,0.3,2.8-1c1.4-1.3,1.3-2.9,1.3-2.9V64.2l11.7,11.7
			c0,0,1.2,1.1,2.6-0.3c1.3-1.3,0.3-2.6,0.3-2.6L71.6,61.3h11.9C83.5,61.3,85.1,61.4,86.4,60z"/>
		<path class="st1" d="M60.9,57.2H38.2c0,0-0.3,1.4,1,2.8c1.3,1.4,2.9,1.3,2.9,1.3h11.9L42.2,73c0,0-1.1,1.2,0.3,2.6
			c1.3,1.3,2.6,0.3,2.6,0.3l11.7-11.7v11.9c0,0-0.1,1.6,1.3,2.9c1.4,1.3,2.8,0.9,2.8,0.9L60.9,57.2z"/>
		<path class="st1" d="M58.1,31.7c-1.4,1.3-1.3,2.9-1.3,2.9v11.9L45.1,34.8c0,0-1.2-1.1-2.6,0.3c-1.3,1.3-0.3,2.6-0.3,2.6l11.7,11.7
			l-11.9,0c0,0-1.6-0.1-2.9,1.3c-1.3,1.4-1,2.8-1,2.8h22.7l0-22.7C60.9,30.8,59.5,30.5,58.1,31.7z"/>
		<path class="st1" d="M86.4,50.7c-1.3-1.4-2.9-1.3-2.9-1.3H71.7l11.7-11.7c0,0,1.1-1.2-0.3-2.6c-1.3-1.3-2.6-0.3-2.6-0.3L68.8,46.5
			l0-11.9c0,0,0.1-1.6-1.3-2.9c-1.4-1.3-2.8-1-2.8-1v22.7l22.7,0C87.4,53.5,87.7,52.1,86.4,50.7z"/>
	</g>
	<path class="st2" d="M119.6,46.8c-5.6,0-8.9-3.5-8.9-9.2V23.3h3.1v13.9c0,4,1.8,6.7,5.8,6.7c3.9,0,5.9-2.4,5.9-6.6v-14h3.1v14.2
		C128.6,43.3,125.2,46.8,119.6,46.8z"/>
	<path class="st2" d="M153.5,46.3l-12.7-18v18h-2.9V23.3h2.8L153,40.5V23.3h2.9v23.1H153.5z"/>
	<path class="st2" d="M166,46.3V23.3h3.1v23.1H166z"/>
	<path class="st2" d="M188.4,46.4h-2.8l-8.9-22.7l3.1-0.7l7.2,19.2l7.1-19h3.3L188.4,46.4z"/>
	<path class="st2" d="M204.4,46.3V23.3h12.4v2.9h-9.3v6.7h7.2l0.5,2.9h-7.7v7.8h9.6v2.9H204.4z"/>
	<path class="st2" d="M241.6,45.9l-3.2,0.7l-7.1-10H229v9.7h-3.1V23.3h6.3c4.7,0,7.7,2.3,7.7,6.6c0,3.5-2,5.5-5,6.4L241.6,45.9z
		 M232,26h-3V34h2.7c3,0,5-1.4,5-4C236.6,27.5,235,26,232,26z"/>
	<path class="st2" d="M254.3,46.6c-2.5,0-4.7-0.6-6.5-1.5l0.5-3.2c1.6,1,3.7,2,6,2c2.4,0,4.1-1.3,4.1-3.5c0-2.1-0.9-3-4.4-4.5
		c-4.3-2-6-3.4-6-6.7c0-3.7,2.8-6.1,7-6.1c2.2,0,3.9,0.5,5.2,1.3l-0.5,3.1c-1.3-1-3-1.7-4.8-1.7c-2.6,0-3.8,1.4-3.8,3.1
		c0,1.8,0.9,2.6,4.4,4.2c4.5,2,6,3.6,6,7.1C261.6,44.1,258.6,46.6,254.3,46.6z"/>
	<path class="st2" d="M270.4,46.3V23.3h3.1v23.1H270.4z"/>
	<path class="st2" d="M291.6,26.1v20.2h-3.1V26.1h-7.4v-2.9h17.6l0.5,2.9H291.6z"/>
	<path class="st2" d="M315.4,37.2v9.2h-3.1v-9.2l-8.2-13.5l3.1-0.7l6.6,11.3l6.5-11h3.5L315.4,37.2z"/>
	<path class="st2" d="M352.1,46.8c-6.5,0-10.6-4.8-10.6-11.9c0-7.2,4.2-12,10.7-12c6.5,0,10.6,4.8,10.6,11.9S358.7,46.8,352.1,46.8z
		 M352.2,25.7c-4.6,0-7.4,3.5-7.4,9.1c0,5.5,2.8,9.1,7.4,9.1c4.6,0,7.4-3.5,7.4-9.1C359.6,29.2,356.7,25.7,352.2,25.7z"/>
	<path class="st2" d="M374.2,26.1v7.1h7l0.5,2.9h-7.4v10.3h-3.1V23.3h12v2.9H374.2z"/>
	<path class="st2" d="M116.3,87.7c-2.5,0-4.7-0.6-6.5-1.5l0.5-3.2c1.6,1,3.7,2,6.1,2c2.4,0,4.1-1.3,4.1-3.5c0-2.1-0.9-3-4.4-4.5
		c-4.3-2-6-3.4-6-6.7c0-3.7,2.8-6.1,7-6.1c2.2,0,3.9,0.5,5.2,1.3l-0.5,3.1c-1.3-1-3-1.7-4.8-1.7c-2.6,0-3.8,1.4-3.8,3.1
		c0,1.8,0.9,2.6,4.4,4.2c4.5,2,6,3.6,6,7.1C123.6,85.2,120.7,87.7,116.3,87.7z"/>
	<path class="st2" d="M146.6,87.7l-2.7-7.2h-9.5l-2.6,6.9h-3.2l9-23.2h3.1l8.9,22.7L146.6,87.7z M139.1,68l-3.7,9.7h7.4L139.1,68z"
		/>
	<path class="st2" d="M171.6,87.4l-12.7-18v18h-2.9V64.4h2.8l12.2,17.3V64.4h2.9v23.1H171.6z"/>
	<path class="st2" d="M195.9,67.2v7.1h7l0.5,2.9h-7.4v10.3h-3.1V64.4h12v2.9H195.9z"/>
	<path class="st2" d="M227.8,87l-3.2,0.7l-7.1-10h-2.4v9.7h-3.1V64.4h6.3c4.7,0,7.7,2.3,7.7,6.6c0,3.5-2,5.5-5,6.4L227.8,87z
		 M218.2,67.1h-3v7.9h2.7c3,0,5-1.4,5-4C222.9,68.6,221.3,67.1,218.2,67.1z"/>
	<path class="st2" d="M249.5,87.7l-2.7-7.2h-9.5l-2.6,6.9h-3.2l9-23.2h3.1l8.9,22.7L249.5,87.7z M242,68l-3.7,9.7h7.4L242,68z"/>
	<path class="st2" d="M274.1,87.4l-12.7-18v18h-2.9V64.4h2.8l12.2,17.3V64.4h2.9v23.1H274.1z"/>
	<path class="st2" d="M294.5,87.9c-6.5,0-10.7-4.8-10.7-11.9c0-7.2,4.2-12,10.7-12c2.7,0,4.8,0.7,6.6,1.9l-0.5,3.2
		c-1.7-1.3-3.6-2.2-6.1-2.2c-4.7,0-7.5,3.5-7.5,9.1c0,5.5,2.8,9.1,7.5,9.1c2.5,0,4.6-1,6.5-2.3l0.5,3
		C299.8,86.9,297.2,87.9,294.5,87.9z"/>
	<path class="st2" d="M309.5,87.4V64.4h3.1v23.1H309.5z"/>
	<path class="st2" d="M327,87.7c-2.5,0-4.7-0.6-6.5-1.5L321,83c1.6,1,3.7,2,6.1,2c2.4,0,4.1-1.3,4.1-3.5c0-2.1-0.9-3-4.4-4.5
		c-4.3-2-6-3.4-6-6.7c0-3.7,2.8-6.1,7-6.1c2.2,0,3.9,0.5,5.2,1.3l-0.5,3.1c-1.3-1-3-1.7-4.8-1.7c-2.6,0-3.8,1.4-3.8,3.1
		c0,1.8,0.9,2.6,4.4,4.2c4.5,2,6,3.6,6,7.1C334.3,85.2,331.3,87.7,327,87.7z"/>
	<path class="st2" d="M350.4,87.9c-6.5,0-10.7-4.8-10.7-11.9c0-7.2,4.2-12,10.7-12c2.7,0,4.8,0.7,6.6,1.9l-0.5,3.2
		c-1.7-1.3-3.6-2.2-6.1-2.2c-4.7,0-7.5,3.5-7.5,9.1c0,5.5,2.8,9.1,7.5,9.1c2.5,0,4.6-1,6.5-2.3l0.5,3
		C355.6,86.9,353,87.9,350.4,87.9z"/>
	<path class="st2" d="M372.4,87.9c-6.5,0-10.6-4.8-10.6-11.9c0-7.2,4.2-12,10.7-12c6.5,0,10.6,4.8,10.6,11.9
		C383.1,83,378.9,87.9,372.4,87.9z M372.4,66.8c-4.6,0-7.4,3.5-7.4,9.1c0,5.5,2.8,9.1,7.4,9.1c4.6,0,7.4-3.5,7.4-9.1
		C379.8,70.3,377,66.8,372.4,66.8z"/>
</g>
<g id="clear_space">
	<rect class="st3" width="406.1" height="110.8"/>
</g>
</svg>
