<?xml version="1.0" encoding="utf-8"?>
<!-- Generator: Adobe Illustrator 24.1.0, SVG Export Plug-In . SVG Version: 6.00 Build 0)  -->
<svg version="1.1" id="logo" xmlns="http://www.w3.org/2000/svg" xmlns:xlink="http://www.w3.org/1999/xlink" x="0px" y="0px"
	 viewBox="0 0 1015.1 180.8" style="enable-background:new 0 0 1015.1 180.8;" xml:space="preserve">
<style type="text/css">
	.st0{fill:#FFFFFF;}
</style>
<g>
	<path class="st0" d="M228.2,23.5h-15L159,157.3h15.6l45.9-115.2l45.4,114.5l0.2,0.7h16.3L228.7,24.7L228.2,23.5z M157.9,23.5
		l-45.9,115.2L66.6,24.1l-0.3-0.6H50.1L103.8,156l0.5,1.3h15l54.1-133.7H157.9z M318.1,23.5h-14.9v133.7h80.2v-13.2h-65.3V23.5z
		 M404,23.5h14.9v133.7H404V23.5z M840.5,23.5h14.9v133.7h-14.9V23.5z M899.7,144.1V23.5h-14.9v133.7H965v-13.2H899.7z M767.3,23.5
		h-15l-54.2,133.7h15.6l45.9-115.2L804.8,156l0.5,1.3h16.3L767.5,24.1L767.3,23.5z M668.5,38.4h7.6V23.5h-7.6
		c-7.4,0-33.1,1.6-55,22.9c-14.4,14-24.1,25.6-31.2,34.1c-10.3,12.3-14.7,17.3-20.2,17.3c-5.5,0-9.9-5-20.2-17.3
		c-7.1-8.5-16.8-20.1-31.2-34.1c-21.8-21.3-47.6-22.9-55-22.9h-7.6v133.7h15.2V38.9c8.5,1.2,23.5,5.2,36.7,18
		c13.8,13.5,22.9,24.3,30.1,33c11.9,14.2,19,22.8,32,22.8c12.9,0,20.1-8.6,32-22.8c7.3-8.7,16.3-19.5,30.1-33
		C641.9,39.6,662.6,38.4,668.5,38.4z M664.2,144h-37.1v11.3l0.1,2h52.2v-50.8h-15.2V144z"/>
</g>
</svg>
