<?xml version="1.0" encoding="utf-8"?>
<!-- Generator: Adobe Illustrator 24.1.0, SVG Export Plug-In . SVG Version: 6.00 Build 0)  -->
<svg version="1.1" id="logo" xmlns="http://www.w3.org/2000/svg" xmlns:xlink="http://www.w3.org/1999/xlink" x="0px" y="0px"
	 viewBox="0 0 914.9 133.8" style="enable-background:new 0 0 914.9 133.8;" xml:space="preserve">
<style type="text/css">
	.st0{fill:#FFFFFF;}
</style>
<g>
	<path class="st0" d="M178.1,0h-15l-54.2,133.8h15.6l45.9-115.2l45.4,114.5l0.2,0.7h16.3L178.6,1.2L178.1,0z M107.8,0L61.9,115.2
		L16.5,0.6L16.2,0H0l53.7,132.5l0.5,1.3h15L123.3,0.1h-15.5V0z M268,0h-14.9v133.7h80.2v-13.2H268L268,0L268,0z M353.9,0h14.9v133.7
		h-14.9V0z M790.4,0h14.9v133.7h-14.9V0z M849.6,120.6V0h-14.9v133.7h80.2v-13.2h-65.3V120.6z M717.2,0h-15L648,133.7h15.6
		l45.9-115.2l45.2,114l0.5,1.3h16.3L717.4,0.6L717.2,0z M618.4,14.9h7.6V0h-7.6c-7.4,0-33.1,1.6-55,22.9
		c-14.4,14-24.1,25.6-31.2,34.1c-10.3,12.3-14.7,17.3-20.2,17.3c-5.5,0-9.9-5-20.2-17.3c-7.1-8.5-16.8-20.1-31.2-34.1
		C438.8,1.6,413,0,405.6,0H398v133.7h15.2V15.4c8.5,1.2,23.5,5.2,36.7,18c13.8,13.5,22.9,24.3,30.1,33c11.9,14.2,19,22.8,32,22.8
		c12.9,0,20.1-8.6,32-22.8c7.3-8.7,16.3-19.5,30.1-33C591.8,16.1,612.5,14.9,618.4,14.9z M614.1,120.5H577v11.3l0.1,2h52.2V83h-15.2
		V120.5z"/>
</g>
</svg>
