<svg id="logo" viewBox="0 0 1356.7 214" width="100%" height="100%">
  <g>
    <path d="M266 9.3h-22.1l-79.6 196.6h23l67.4-169.3 66.8 168.3.3 1h24L266.7 11.1zM162.7 9.3L95.3 178.6 28.5 10.2l-.4-.9H4.2l79 194.7.8 1.9h22.1L185.6 9.3zM398.2 9.3h-21.9v196.6h117.9v-19.4h-96zM524.4 9.3h21.9v196.6h-21.9zM1166.1 9.3h21.9v196.6h-21.9zM1253.1 186.5V9.3h-21.9v196.6h117.9v-19.4zM1058.5 9.3h-22.1l-79.6 196.6h22.9l67.5-169.3 66.4 167.4.7 1.9h24l-79.5-195.7zM913.3 31.1h11.2V9.3h-11.2c-10.9 0-48.7 2.4-80.8 33.7-21.1 20.6-35.4 37.6-45.8 50.1-15.2 18.1-21.6 25.5-29.7 25.5-8.1 0-14.6-7.4-29.7-25.5-10.4-12.5-24.7-29.6-45.8-50.1-32.1-31.3-70-33.7-80.9-33.7h-11.1v196.6h22.3v-174c12.5 1.8 34.6 7.6 54 26.5 20.3 19.8 33.6 35.7 44.3 48.5 17.5 20.9 28 33.5 47 33.5s29.5-12.6 47-33.5c10.7-12.8 24-28.7 44.3-48.5 25.8-25.4 56.2-27.3 64.9-27.3zM906.9 186.4h-54.5V203l.1 2.9h76.7v-74.7h-22.3z">
    </path>
  </g>
</svg>
