 <svg  version="1.0" xmlns="http://www.w3.org/2000/svg"  width="300.000000pt" height="114.000000pt" viewBox="0 0 300.000000 114.000000"  preserveAspectRatio="xMidYMid meet">  <g transform="translate(0.000000,114.000000) scale(0.050000,-0.050000)" fill="#ffffff" stroke="none"> <path d="M4173 2186 c-352 -216 -1069 -460 -2013 -686 -681 -164 -1158 -367 -1495 -639 -109 -88 -137 -101 -216 -101 -80 0 -90 -5 -80 -37 6 -20 -3 -72 -21 -115 l-33 -78 -58 115 c-57 114 -58 115 -147 115 -97 0 -105 -9 -63 -71 73 -106 150 -272 140 -299 -39 -102 20 -85 95 28 71 106 127 169 86 97 -7 -14 26 13 74 58 429 407 864 610 1708 796 810 180 1379 344 1636 474 138 70 164 61 83 -25 -215 -227 -648 -426 -1016 -468 -291 -33 76 -61 417 -32 140 12 290 28 335 35 107 17 86 -21 -42 -76 -166 -71 -406 -118 -668 -131 -140 -7 -255 -18 -255 -25 0 -19 167 -59 337 -80 370 -45 36 -122 -507 -116 -345 4 -570 -39 -570 -109 0 -11 15 -14 35 -6 111 45 220 55 645 57 l470 3 119 56 c182 85 249 161 136 153 -166 -11 -180 7 -25 31 302 47 534 161 632 309 69 105 59 112 -94 62 -70 -23 -176 -47 -237 -53 l-111 -10 174 92 c272 145 531 411 629 643 44 106 28 112 -100 33z"/> <path d="M1720 1117 c-265 -36 -571 -135 -755 -243 -99 -58 -82 -56 138 19 295 100 768 179 719 119 -62 -74 -490 -186 -619 -162 -53 10 -53 10 5 -17 l57 -27 -47 -33 c-26 -18 -57 -33 -70 -33 -12 0 -21 -27 -20 -60 1 -41 10 -57 29 -50 14 5 30 10 35 10 4 0 8 17 8 38 0 24 19 42 51 50 27 7 66 29 86 49 25 25 82 42 173 51 236 24 477 138 560 265 l31 47 -126 -2 c-69 -2 -183 -11 -255 -21z"/> <path d="M2572 725 c27 -55 34 -487 9 -512 -44 -44 -16 -53 167 -53 153 0 190 6 200 32 28 72 15 82 -90 72 l-101 -9 6 252 7 253 -107 0 c-95 0 -105 -4 -91 -35z"/> <path d="M3985 737 c-62 -62 -2 -151 86 -129 44 11 51 23 45 78 -7 70 -82 100 -131 51z"/> <path d="M4964 736 c-50 -50 -13 -136 58 -136 50 0 84 53 70 110 -14 55 -85 69 -128 26z"/> <path d="M4700 650 c-11 -28 -42 -61 -70 -73 -56 -26 -66 -67 -19 -84 24 -10 30 -42 27 -146 -4 -152 21 -187 135 -187 88 0 132 69 57 88 -46 12 -50 22 -50 135 0 119 1 121 50 109 43 -11 50 -6 50 38 0 40 -10 50 -50 50 -42 0 -50 9 -50 60 0 75 -53 82 -80 10z"/> <path d="M527 555 c-30 -48 -7 -343 28 -370 42 -32 149 -32 184 0 21 20 28 20 35 0 5 -14 44 -25 90 -25 65 0 78 6 68 32 -7 17 -12 112 -12 210 l0 178 -89 0 -88 0 18 -65 c38 -132 12 -275 -50 -275 -39 0 -51 46 -51 202 l0 138 -59 0 c-32 0 -66 -11 -74 -25z"/> <path d="M1065 556 c-105 -51 -82 -162 44 -218 177 -78 105 -156 -79 -85 -27 10 -32 3 -27 -35 8 -57 207 -79 297 -33 120 62 81 214 -62 246 -69 15 -94 47 -56 71 25 15 58 11 135 -18 18 -7 24 5 20 38 -8 55 -185 77 -272 34z"/> <path d="M1478 522 c-146 -147 -42 -362 175 -362 132 1 156 11 176 75 13 42 10 44 -39 25 -111 -42 -230 5 -230 92 0 27 19 29 128 18 148 -16 166 -2 124 98 -54 129 -229 158 -334 54z m210 -54 c8 -21 -7 -28 -59 -28 -74 0 -90 26 -35 57 40 22 79 11 94 -29z"/> <path d="M1896 412 c5 -104 0 -182 -14 -209 -22 -41 -20 -43 74 -43 l98 0 -9 146 c-11 161 21 227 85 174 35 -29 42 -221 9 -281 -19 -36 -13 -39 91 -39 66 0 107 8 101 19 -7 10 -16 88 -20 172 -12 212 -27 226 -249 226 l-175 0 9 -165z"/> <path d="M3067 545 c-171 -139 -78 -385 147 -385 196 0 286 218 150 365 -63 67 -225 78 -297 20z m189 -69 c38 -38 31 -215 -9 -230 -47 -18 -94 19 -115 92 -33 115 52 210 124 138z"/> <path d="M3509 531 c-63 -63 -62 -120 3 -185 37 -37 45 -56 27 -67 -50 -30 -3 -79 76 -79 121 0 181 -105 77 -131 -78 -20 -122 -3 -120 47 1 50 -66 62 -108 20 -76 -76 14 -136 204 -136 285 0 326 221 48 259 -98 13 -102 15 -46 29 33 9 76 20 96 25 59 17 101 97 75 146 -14 26 -15 41 -2 41 11 0 29 18 41 40 37 68 -302 60 -371 -9z m197 -71 c13 -52 -32 -110 -73 -94 -39 15 -45 126 -8 139 39 14 70 -4 81 -45z"/> <path d="M3970 365 l0 -205 87 0 c71 0 85 6 75 32 -7 17 -12 109 -12 205 l0 174 -75 0 -75 0 0 -206z"/> <path d="M4229 531 c-79 -80 -43 -151 106 -210 36 -14 65 -38 65 -52 0 -43 -72 -53 -149 -21 -66 28 -71 27 -71 -5 0 -60 44 -83 161 -83 239 0 313 216 94 271 -65 16 -88 44 -59 73 15 15 40 14 82 0 58 -21 62 -19 62 27 0 74 -217 74 -291 0z"/> <path d="M4950 365 l0 -205 87 0 c71 0 85 6 75 32 -7 17 -12 109 -12 205 l0 174 -75 0 -75 0 0 -206z"/> <path d="M5218 522 c-175 -175 93 -492 285 -337 47 38 66 103 25 87 -131 -50 -208 -8 -208 116 0 84 41 121 120 105 54 -11 60 -7 60 38 0 79 -199 73 -282 -9z"/> <path d="M5628 533 c-81 -69 -56 -137 72 -195 153 -69 107 -155 -49 -90 -66 28 -71 27 -71 -5 0 -106 296 -118 365 -15 50 75 -5 176 -110 203 -65 16 -88 44 -59 73 15 15 40 14 82 0 58 -21 62 -19 62 27 0 72 -209 73 -292 2z"/> <path d="M255 279 c-94 -107 -115 -117 -74 -33 19 38 16 37 -19 -6 -59 -72 -57 -74 100 -78 112 -3 138 1 125 22 -9 14 -21 66 -26 115 l-11 89 -95 -109z"/> </g> </svg> 